<?xml version="1.0" standalone="no"?>
<!DOCTYPE svg PUBLIC "-//W3C//DTD SVG 20010904//EN"
 "http://www.w3.org/TR/2001/REC-SVG-20010904/DTD/svg10.dtd">
<svg version="1.0" xmlns="http://www.w3.org/2000/svg"
 width="382.000000pt" height="382.000000pt" viewBox="0 0 382.000000 382.000000"
 preserveAspectRatio="xMidYMid meet">
<metadata>
Created by potrace 1.14, written by Peter Selinger 2001-2017
</metadata>
<g transform="translate(0.000000,382.000000) scale(0.100000,-0.100000)"
fill="#000000" stroke="none">
<path d="M1770 3647 c-3 -2 -34 -8 -70 -11 -268 -27 -561 -137 -793 -299 -136
-95 -220 -172 -330 -301 -82 -94 -87 -101 -87 -108 0 -4 -6 -13 -13 -20 -71
-73 -239 -434 -260 -558 -3 -14 -9 -43 -15 -65 -6 -22 -13 -60 -16 -85 -4 -25
-10 -67 -14 -95 -21 -148 11 -595 44 -595 6 0 9 -10 7 -22 -10 -56 116 -355
214 -509 233 -366 609 -638 1028 -742 92 -23 122 -30 210 -43 70 -11 372 -9
453 3 331 48 619 174 878 384 89 73 231 223 286 303 92 134 111 166 168 281
123 249 169 454 171 748 0 138 3 167 15 167 19 0 18 7 -7 41 -11 16 -24 55
-29 86 -87 539 -468 1041 -970 1277 -153 71 -345 129 -505 151 -58 7 -359 18
-365 12z"/>
</g>
</svg>
