<?xml version="1.0" standalone="no"?>
<!DOCTYPE svg PUBLIC "-//W3C//DTD SVG 1.1//EN" "http://www.w3.org/Graphics/SVG/1.1/DTD/svg11.dtd" >
<svg>
<metadata>
Created by FontForge 20090914 at Thu Aug 12 17:44:12 2021
 By www-data
Copyright 2017 Production Systems SAS - Design Yoann Minet. Original art direction with Emmanuel Labard - All rights reserved - End-User License Agreement:  http://www.productiontype.com/license
</metadata>
<defs>
<font id="StratosLCWeb-Medium" horiz-adv-x="1126" >
  <font-face 
    font-family="Stratos LC Web Medium"
    font-weight="500"
    font-stretch="normal"
    units-per-em="2048"
    panose-1="2 0 0 0 0 0 0 0 0 0"
    ascent="1516"
    descent="-532"
    x-height="1024"
    cap-height="1536"
    bbox="-512 -752 2519 2396"
    underline-thickness="163"
    underline-position="-621"
    unicode-range="U+0020-U+FB02"
  />
<missing-glyph horiz-adv-x="1044" 
d="M20 0v1536h1004v-1536h-1004zM184 1427l338 -559l338 559h-676zM125 209l338 559l-338 557v-1116zM922 209v1116l-338 -557zM184 113h676l-338 555z" />
    <glyph glyph-name="fi" unicode="fi" horiz-adv-x="1228" 
d="M451 1171v-147.001h634v-1024h-245v809h-389v-809h-246v809h-164v215h164v154c0 116.667 33 208.834 99 276.501s151 101.5 255 101.5c68 0 113.667 -3.33301 137 -10v-225c-22 6.66699 -60 10 -114 10c-41.333 0 -73.5 -13.833 -96.5 -41.5s-34.5 -67.167 -34.5 -118.5z
M963 1229c-44 0 -80.667 14.667 -110 44s-44 65.666 -44 108.999c0 44 14.667 80.667 44 110s66 44 110 44c44.667 0 81.334 -14.667 110.001 -44s43 -66 43 -110c0 -43.333 -14.333 -79.666 -43 -108.999s-65.334 -44 -110.001 -44z" />
    <glyph glyph-name="fl" unicode="fl" horiz-adv-x="1228" 
d="M451 1171v-147.001h266v-215h-266v-809h-246v809h-164v215h164v154c0 116.667 37 208.834 111 276.501s168.667 101.5 284 101.5c54 0 99.667 -5.33301 137 -16v-225c-35.333 10.667 -73.333 16 -114 16c-54 0 -96.167 -13.833 -126.5 -41.5s-45.5 -67.167 -45.5 -118.5z
M1085 -0.000976562h-245v1536h245v-1536z" />
    <glyph glyph-name="f_b" unicode="fb" horiz-adv-x="1955" 
d="M451 1171v-147.001h266v-215h-266v-809h-246v809h-164v215h164v154c0 116.667 37 208.834 111 276.501s168.667 101.5 284 101.5c54 0 99.667 -5.33301 137 -16v-225c-35.333 10.667 -73.333 16 -114 16c-54 0 -96.167 -13.833 -126.5 -41.5s-45.5 -67.167 -45.5 -118.5z
M1884 511.999c0 -155.333 -46.5 -282.833 -139.5 -382.5s-210.167 -149.5 -351.5 -149.5c-122.667 0 -225.334 49.667 -308.001 149v-129h-245v1536h245v-641c82.667 99.333 185.334 149 308.001 149c141.333 0 258.5 -49.833 351.5 -149.5s139.5 -227.167 139.5 -382.5z
M1362 818.999c-80 0 -146.167 -28.5 -198.5 -85.5s-78.5 -130.833 -78.5 -221.5s26.167 -164.5 78.5 -221.5s118.5 -85.5 198.5 -85.5s146 28.333 198 85s78 130.667 78 222s-26 165.333 -78 222s-118 85 -198 85z" />
    <glyph glyph-name="f_f_b" unicode="ffb" horiz-adv-x="2590" 
d="M840 0l-0.000976562 808.998h-389v-809h-246v809h-164v215h164v154c0 116.667 37 208.834 111 276.501s168.667 101.5 284 101.5c54 0 99.667 -5.33301 137 -16v-225c-35.333 10.667 -73.333 16 -114 16c-54 0 -96.167 -13.833 -126.5 -41.5s-45.5 -67.167 -45.5 -118.5
v-147h389v154c0 116.667 37 208.834 111 276.501s168.667 101.5 284 101.5c54 0 99.667 -5.33301 137 -16v-225c-35.333 10.667 -73.666 16 -114.999 16c-54 0 -96.167 -13.833 -126.5 -41.5s-45.5 -67.167 -45.5 -118.5v-147h267v-215h-267v-809h-245zM2519 511.998
c0 -155.333 -46.5 -282.833 -139.5 -382.5s-210.167 -149.5 -351.5 -149.5c-122.667 0 -225.334 49.667 -308.001 149v-129h-245v1536h245v-641c82.667 99.333 185.334 149 308.001 149c141.333 0 258.5 -49.833 351.5 -149.5s139.5 -227.167 139.5 -382.5zM1997 818.998
c-80 0 -146.167 -28.5 -198.5 -85.5s-78.5 -130.833 -78.5 -221.5s26.167 -164.5 78.5 -221.5s118.5 -85.5 198.5 -85.5s146 28.333 198 85s78 130.667 78 222s-26 165.333 -78 222s-118 85 -198 85z" />
    <glyph glyph-name="f_f" unicode="ff" horiz-adv-x="1413" 
d="M840 0l-0.000976562 808.998h-389v-809h-246v809h-164v215h164v154c0 116.667 37 208.834 111 276.501s168.667 101.5 284 101.5c54 0 99.667 -5.33301 137 -16v-225c-35.333 10.667 -73.333 16 -114 16c-54 0 -96.167 -13.833 -126.5 -41.5s-45.5 -67.167 -45.5 -118.5
v-147h389v154c0 116.667 37 208.834 111 276.501s168.667 101.5 284 101.5c54 0 99.667 -5.33301 137 -16v-225c-35.333 10.667 -73.666 16 -114.999 16c-54 0 -96.167 -13.833 -126.5 -41.5s-45.5 -67.167 -45.5 -118.5v-147h267v-215h-267v-809h-245z" />
    <glyph glyph-name="f_h" unicode="fh" horiz-adv-x="1894" 
d="M451 1171v-147.001h266v-215h-266v-809h-246v809h-164v215h164v154c0 116.667 37 208.834 111 276.501s168.667 101.5 284 101.5c54 0 99.667 -5.33301 137 -16v-225c-35.333 10.667 -73.333 16 -114 16c-54 0 -96.167 -13.833 -126.5 -41.5s-45.5 -67.167 -45.5 -118.5z
M1085 562.999v-563.001h-245v1536h245v-659c31.333 54 72.333 95.333 123 124s108 43 172 43c113.333 0 205.166 -37.167 275.499 -111.5s105.5 -181.166 105.5 -320.499v-612h-245v563c0 85.333 -19.167 151 -57.5 197s-91.166 69 -158.499 69s-120 -23 -158 -69
s-57 -111.667 -57 -197z" />
    <glyph glyph-name="f_f_h" unicode="ffh" horiz-adv-x="2529" 
d="M840 0l-0.000976562 808.998h-389v-809h-246v809h-164v215h164v154c0 116.667 37 208.834 111 276.501s168.667 101.5 284 101.5c54 0 99.667 -5.33301 137 -16v-225c-35.333 10.667 -73.333 16 -114 16c-54 0 -96.167 -13.833 -126.5 -41.5s-45.5 -67.167 -45.5 -118.5
v-147h389v154c0 116.667 37 208.834 111 276.501s168.667 101.5 284 101.5c54 0 99.667 -5.33301 137 -16v-225c-35.333 10.667 -73.666 16 -114.999 16c-54 0 -96.167 -13.833 -126.5 -41.5s-45.5 -67.167 -45.5 -118.5v-147h267v-215h-267v-809h-245zM1720 562.998
l0.000976562 -563.001h-245v1536h245v-659c31.333 54 72.333 95.333 123 124s108 43 172 43c113.333 0 205.166 -37.167 275.499 -111.5s105.5 -181.166 105.5 -320.499v-612h-246v563c0 85.333 -19 151 -57 197s-90.667 69 -158 69s-120 -23 -158 -69
s-57 -111.667 -57 -197z" />
    <glyph glyph-name="f_f_i" unicode="ffi" horiz-adv-x="1863" 
d="M840 0l-0.000976562 808.998h-389v-809h-246v809h-164v215h164v154c0 116.667 37 208.834 111 276.501s168.667 101.5 284 101.5c54 0 99.667 -5.33301 137 -16v-225c-35.333 10.667 -73.333 16 -114 16c-54 0 -96.167 -13.833 -126.5 -41.5s-45.5 -67.167 -45.5 -118.5
v-147h389v154c0 116.667 33 208.834 99 276.501s151 101.5 255 101.5c68 0 113.667 -3.33301 137 -10v-225c-22 6.66699 -60 10 -114 10c-41.333 0 -73.666 -13.833 -96.999 -41.5s-35 -67.167 -35 -118.5v-147h635v-1024h-245v809h-390v-809h-245zM1597 1229
c-44 0 -80.5 14.667 -109.5 44s-43.5 65.666 -43.5 108.999c0 44 14.5 80.667 43.5 110s65.5 44 109.5 44c44.667 0 81.5 -14.667 110.5 -44s43.5 -66 43.5 -110c0 -43.333 -14.5 -79.666 -43.5 -108.999s-65.833 -44 -110.5 -44z" />
    <glyph glyph-name="f_j" unicode="fj" horiz-adv-x="1228" 
d="M451 1171v-147.001h634v-1178c0 -238.667 -121.333 -358 -364 -358c-50 0 -85.667 2.66699 -107 8v223c23.333 -4 48 -6 74 -6c50.667 0 88.667 10.167 114 30.5s38 56.833 38 109.5v956h-389v-809h-246v809h-164v215h164v154c0 116.667 37 208.834 111 276.501
s168.667 101.5 284 101.5c54 0 99.667 -5.33301 137 -16v-225c-35.333 10.667 -73.333 16 -114 16c-54 0 -96.167 -13.833 -126.5 -41.5s-45.5 -67.167 -45.5 -118.5zM963 1229c-44 0 -80.667 14.667 -110 44s-44 65.666 -44 108.999c0 44 14.667 80.667 44 110
s66 44 110 44c44.667 0 81.334 -14.667 110.001 -44s43 -66 43 -110c0 -43.333 -14.333 -79.666 -43 -108.999s-65.334 -44 -110.001 -44z" />
    <glyph glyph-name="f_f_j" unicode="ffj" horiz-adv-x="1863" 
d="M1085 1171l-0.000976562 -147.002h635v-1178c0 -238.667 -121.333 -358 -364 -358c-50 0 -85.667 2.66699 -107 8v223c23.333 -4 48 -6 74 -6c50.667 0 88.667 10.167 114 30.5s38 56.833 38 109.5v956h-390v-809h-245v809h-389v-809h-246v809h-164v215h164v154
c0 116.667 37 208.834 111 276.501s168.667 101.5 284 101.5c54 0 99.667 -5.33301 137 -16v-225c-35.333 10.667 -73.333 16 -114 16c-54 0 -96.167 -13.833 -126.5 -41.5s-45.5 -67.167 -45.5 -118.5v-147h389v154c0 116.667 33 208.834 99 276.501s151 101.5 255 101.5
c68 0 113.667 -3.33301 137 -10v-225c-22 6.66699 -60 10 -114 10c-41.333 0 -73.666 -13.833 -96.999 -41.5s-35 -67.167 -35 -118.5zM1597 1229c-44 0 -80.5 14.667 -109.5 44s-43.5 65.666 -43.5 108.999c0 44 14.5 80.667 43.5 110s65.5 44 109.5 44
c44.667 0 81.5 -14.667 110.5 -44s43.5 -66 43.5 -110c0 -43.333 -14.5 -79.666 -43.5 -108.999s-65.833 -44 -110.5 -44z" />
    <glyph glyph-name="f_k" unicode="fk" horiz-adv-x="1853" 
d="M451 1171v-147.001h266v-215h-266v-809h-246v809h-164v215h164v154c0 116.667 37 208.834 111 276.501s168.667 101.5 284 101.5c54 0 99.667 -5.33301 137 -16v-225c-35.333 10.667 -73.333 16 -114 16c-54 0 -96.167 -13.833 -126.5 -41.5s-45.5 -67.167 -45.5 -118.5z
M1526 -0.000976562l-441 539v-539h-245v1536h245v-958l398 446h323l-450 -465l477 -559h-307z" />
    <glyph glyph-name="f_f_k" unicode="ffk" horiz-adv-x="2488" 
d="M840 0l-0.000976562 808.998h-389v-809h-246v809h-164v215h164v154c0 116.667 37 208.834 111 276.501s168.667 101.5 284 101.5c54 0 99.667 -5.33301 137 -16v-225c-35.333 10.667 -73.333 16 -114 16c-54 0 -96.167 -13.833 -126.5 -41.5s-45.5 -67.167 -45.5 -118.5
v-147h389v154c0 116.667 37 208.834 111 276.501s168.667 101.5 284 101.5c54 0 99.667 -5.33301 137 -16v-225c-35.333 10.667 -73.666 16 -114.999 16c-54 0 -96.167 -13.833 -126.5 -41.5s-45.5 -67.167 -45.5 -118.5v-147h267v-215h-267v-809h-245zM2161 -0.00195312
l-441 539v-539h-245v1536h245v-958l398 446h323l-450 -465l477 -559h-307z" />
    <glyph glyph-name="f_f_l" unicode="ffl" horiz-adv-x="1863" 
d="M840 0l-0.000976562 808.998h-389v-809h-246v809h-164v215h164v154c0 116.667 37 208.834 111 276.501s168.667 101.5 284 101.5c54 0 99.667 -5.33301 137 -16v-225c-35.333 10.667 -73.333 16 -114 16c-54 0 -96.167 -13.833 -126.5 -41.5s-45.5 -67.167 -45.5 -118.5
v-147h389v154c0 116.667 37 208.834 111 276.501s168.667 101.5 284 101.5c54 0 99.667 -5.33301 137 -16v-225c-35.333 10.667 -73.666 16 -114.999 16c-54 0 -96.167 -13.833 -126.5 -41.5s-45.5 -67.167 -45.5 -118.5v-147h267v-215h-267v-809h-245zM1720 -0.00195312
h-245v1536h245v-1536z" />
    <glyph glyph-name="f_t" unicode="ft" horiz-adv-x="1433" 
d="M451 1171l-0.000976562 -147.001h389v287h245v-287h267v-215h-267v-459c0 -50 12.333 -86.667 37 -110s63.667 -35 117 -35c40.667 0 78.334 6 113.001 18v-219c-49.333 -16 -103.333 -24 -162 -24c-53.333 0 -100.333 5.83301 -141 17.5s-77.167 30.5 -109.5 56.5
s-57 62.5 -74 109.5s-25.5 103.833 -25.5 170.5v475h-389v-809h-246v809h-164v215h164v154c0 116.667 37 208.834 111 276.501s168.667 101.5 284 101.5c54 0 99.667 -5.33301 137 -16v-225c-35.333 10.667 -73.333 16 -114 16c-54 0 -96.167 -13.833 -126.5 -41.5
s-45.5 -67.167 -45.5 -118.5z" />
    <glyph glyph-name="f_f_t" unicode="fft" horiz-adv-x="2068" 
d="M1085 1171l-0.000976562 -147.002h390v287h245v-287h267v-215h-267v-459c0 -50 12.333 -86.667 37 -110s63.667 -35 117 -35c40 0 77.667 6 113 18v-219c-49.333 -16 -103.333 -24 -162 -24c-53.333 0 -100.333 5.83301 -141 17.5s-77.167 30.5 -109.5 56.5
s-57 62.5 -74 109.5s-25.5 103.833 -25.5 170.5v475h-390v-809h-245v809h-389v-809h-246v809h-164v215h164v154c0 116.667 37 208.834 111 276.501s168.667 101.5 284 101.5c54 0 99.667 -5.33301 137 -16v-225c-35.333 10.667 -73.333 16 -114 16
c-54 0 -96.167 -13.833 -126.5 -41.5s-45.5 -67.167 -45.5 -118.5v-147h389v154c0 116.667 37 208.834 111 276.501s168.667 101.5 284 101.5c54 0 99.667 -5.33301 137 -16v-225c-35.333 10.667 -73.666 16 -114.999 16c-54 0 -96.167 -13.833 -126.5 -41.5
s-45.5 -67.167 -45.5 -118.5z" />
    <glyph glyph-name=".notdef" horiz-adv-x="1044" 
d="M20 0v1536h1004v-1536h-1004zM184 1427l338 -559l338 559h-676zM125 209l338 559l-338 557v-1116zM922 209v1116l-338 -557zM184 113h676l-338 555z" />
    <glyph glyph-name="space" unicode=" " horiz-adv-x="471" 
 />
    <glyph glyph-name="exclam" unicode="!" horiz-adv-x="552" 
d="M389 512h-225l-21 1024h267zM276 -20c-38.667 0 -72.168 14.333 -100.501 43s-42.5 62 -42.5 100c0 39.333 14.167 73 42.5 101s61.833 42 100.5 42c40 0 74 -14 102 -42s42 -61.667 42 -101c0 -38.667 -14.167 -72.167 -42.5 -100.5s-62.166 -42.5 -101.499 -42.5z" />
    <glyph glyph-name="quotedbl" unicode="&#x22;" horiz-adv-x="901" 
d="M164 1024l-21 512h226l-21 -512h-184zM553 1024l-21 512h226l-21 -512h-184z" />
    <glyph glyph-name="numbersign" unicode="#" 
d="M504 0l102 410h-268l-102 -410h-185l103 410h-154v163h197l96 390h-172v163h215l102 410h185l-103 -410h268l103 410h184l-102 -410h153v-163h-196l-96 -390h172v-163h-215l-103 -410h-184zM381 573h268l96 390h-268z" />
    <glyph glyph-name="dollar" unicode="$" 
d="M1004 399c0 -120 -33.332 -215.333 -99.999 -286s-154.334 -113.667 -263.001 -129v-240h-143v240c-110.667 12 -200.834 53.5 -270.501 124.5s-104.5 164.5 -104.5 280.5v123h246v-109c0 -106.667 43 -170.667 129 -192v471l-115 78
c-49.333 33.333 -90.666 67.666 -123.999 102.999s-61 79.333 -83 132s-33 110.667 -33 174c0 111.333 33 200.333 99 267s151.333 105.334 256 116.001v240h143v-242c102.667 -16 185.334 -60.667 248.001 -134s94 -170 94 -290v-102h-246v96c0 106.667 -32 173 -96 199
v-434l123 -82c75.333 -50 134.166 -107.333 176.499 -172s63.5 -142 63.5 -232zM389.001 1169c0 -38.667 9.16699 -72.334 27.5 -101.001s45.5 -57 81.5 -85v340c-72.667 -21.333 -109 -72.666 -109 -153.999zM758.001 369c0 80.667 -39 151.667 -117 213v-367
c78 24 117 75.333 117 154z" />
    <glyph glyph-name="percent" unicode="%" horiz-adv-x="1650" 
d="M367 727c-96 0 -172.999 34.333 -230.999 103s-87 171 -87 307c0 135.333 29.167 237.666 87.5 306.999s135.166 104 230.499 104s171.666 -34.667 228.999 -104s86 -171.666 86 -306.999c0 -136 -28.667 -238.333 -86 -307s-133.666 -103 -228.999 -103zM221.001 0
l1065 1536h144l-1065 -1536h-144zM367.001 901c40.667 0 70.833 19 90.5 57s29.5 97.667 29.5 179c0 160.667 -40 241 -120 241c-82 0 -123 -80.333 -123 -241c0 -157.333 41 -236 123 -236zM1284 -12c-96 0 -172.833 34.167 -230.5 102.5s-86.5 170.5 -86.5 306.5
c0 135.333 29 237.833 87 307.5s134.667 104.5 230 104.5s171.666 -34.833 228.999 -104.5s86 -172.167 86 -307.5c0 -136 -28.667 -238.167 -86 -306.5s-133.666 -102.5 -228.999 -102.5zM1284 162c80.667 0 121 78.333 121 235c0 161.333 -40.333 242 -121 242
c-82 0 -123 -80.667 -123 -242c0 -156.667 41 -235 123 -235z" />
    <glyph glyph-name="ampersand" unicode="&#x26;" horiz-adv-x="1187" 
d="M762 0l0.00195312 116.999c-52.667 -91.333 -142 -137 -268 -137c-128 0 -225.333 35.833 -292 107.5s-100 179.167 -100 322.5v82c0 75.333 18.667 140.333 56 195s88.333 96.667 153 126c-52.667 29.333 -93.834 68.833 -123.501 118.5s-44.5 107.834 -44.5 174.501v82
c0 116 37.833 206.333 113.5 271s171.167 97 286.5 97s210.666 -32.333 285.999 -97s113 -155 113 -271v-107h-246v86c0 109.333 -51 164 -153 164c-102.667 0 -154 -54.667 -154 -164v-61c0 -122.667 51.333 -184 154 -184h624v-226h-184v-696h-221zM543.002 204.999
c66.667 0 115.668 14.333 147.001 43s47 75.667 47 141v307h-194c-130 0 -195 -68 -195 -204v-82c0 -75.333 15.167 -128.333 45.5 -159s80.166 -46 149.499 -46z" />
    <glyph glyph-name="quotesingle" unicode="'" horiz-adv-x="512" 
d="M164 1024l-21 512h226l-21 -512h-184z" />
    <glyph glyph-name="parenleft" unicode="(" horiz-adv-x="696" 
d="M184 584c0 352 102.667 669.332 308 951.999h204c-190.667 -262 -286 -579.333 -286 -952c0 -373.333 95.333 -691 286 -953h-204c-205.333 282.667 -308 600.334 -308 953.001z" />
    <glyph glyph-name="parenright" unicode=")" horiz-adv-x="696" 
d="M512 584c0 -353.333 -102.333 -671.001 -307 -953.001h-205c191.333 262.667 287 580.334 287 953.001c0 372 -95.667 689.333 -287 952h205c204.667 -282 307 -599.333 307 -952z" />
    <glyph glyph-name="asterisk" unicode="*" horiz-adv-x="796" 
d="M489 903l-96 201l-90 -201l-182 129l149 158l-209 20l68 211l182 -100l-28 215h221l-27 -215l187 100l71 -211l-217 -20l152 -156z" />
    <glyph glyph-name="plus" unicode="+" 
d="M973 539h-324v-342h-172v342h-323v163h323v342h172v-342h324v-163z" />
    <glyph glyph-name="comma" unicode="," horiz-adv-x="471" 
d="M393 115c0 -112 -52.332 -246 -156.999 -402h-136c65.333 108 107.666 197 126.999 267c-42.667 2 -77.5 17.5 -104.5 46.5s-40.5 64.5 -40.5 106.5c0 43.333 14.5 79.833 43.5 109.5s65.833 44.5 110.5 44.5c45.333 0 82.833 -15.333 112.5 -46s44.5 -72.667 44.5 -126z
" />
    <glyph glyph-name="hyphen" unicode="-" horiz-adv-x="716" 
d="M614 451h-512v225h512v-225z" />
    <glyph glyph-name="period" unicode="." horiz-adv-x="471" 
d="M236 -20c-44 0 -80.667 14.667 -110 44s-44 65.666 -44 108.999c0 44 14.667 80.667 44 110s66 44 110 44c44.667 0 81.334 -14.667 110.001 -44s43 -66 43 -110c0 -43.333 -14.333 -79.666 -43 -108.999s-65.334 -44 -110.001 -44z" />
    <glyph glyph-name="slash" unicode="/" horiz-adv-x="831" 
d="M248 0h-176l512 1536h176z" />
    <glyph glyph-name="zero" unicode="0" 
d="M563 -20c-139.333 0 -247.5 43.333 -324.5 130s-115.5 214 -115.5 382v552c0 168 38.5 295.333 115.5 382s185.167 130 324.5 130s247.666 -43.333 324.999 -130s116 -214 116 -382v-552c0 -168 -38.667 -295.333 -116 -382s-185.666 -130 -324.999 -130zM563 205
c64 0 112.5 22 145.5 66s49.5 117.667 49.5 221v552c0 103.333 -16.5 177 -49.5 221s-81.5 66 -145.5 66s-112.333 -22 -145 -66s-49 -117.667 -49 -221v-552c0 -103.333 16.167 -177 48.5 -221s80.833 -66 145.5 -66z" />
    <glyph glyph-name="one" unicode="1" 
d="M508 1456v80h246v-1536h-246v1024h-287v205h58c81.333 0 139.833 17.667 175.5 53s53.5 93.333 53.5 174z" />
    <glyph glyph-name="two" unicode="2" 
d="M958 1118c0 -56.667 -8.83105 -111.834 -26.498 -165.501s-41 -102 -70 -145s-61 -84.833 -96 -125.5s-71.333 -79.834 -109 -117.501l-105 -109.5c-32.333 -35.333 -61 -73 -86 -113s-42.167 -79 -51.5 -117h565v-225h-832v119c0 50.667 6.5 99.667 19.5 147
s30.333 90.333 52 129s46.667 76.334 75 113.001s58.166 71.167 89.499 103.5l94 96c31.333 31.667 61.166 63.5 89.499 95.5s53.333 64 75 96s39 66.833 52 104.5s19.5 75.834 19.5 114.501c0 72 -13.5 125.5 -40.5 160.5s-64.167 52.5 -111.5 52.5
c-50.667 0 -89.167 -17.333 -115.5 -52s-39.5 -92.334 -39.5 -173.001v-123h-246v143c0 90.667 18.167 169 54.5 235s84.333 115 144 147s127.167 48 202.5 48c114.667 0 209.5 -38.167 284.5 -114.5s112.5 -184.166 112.5 -323.499z" />
    <glyph glyph-name="three" unicode="3" 
d="M1024 389c0 -86 -19.8281 -160.332 -59.4951 -222.999s-92.334 -109.334 -158.001 -140.001s-139.834 -46 -222.501 -46s-156.834 15.333 -222.501 46s-118.5 77.334 -158.5 140.001s-60 137 -60 223v103h246v-82c0 -136.667 65 -205 195 -205
c129.333 0 194 68.333 194 205v51c0 136.667 -64.667 205 -194 205h-123v245h123c102 0 153 61.667 153 185v71c0 109.333 -51 164 -153 164c-102.667 0 -154 -54.667 -154 -164v-61h-246v82c0 116 37.833 206.333 113.5 271s171.167 97 286.5 97
s210.666 -32.333 285.999 -97s113 -155 113 -271v-82c0 -66.667 -14.833 -124.834 -44.5 -174.501s-70.834 -89.167 -123.501 -118.5c64.667 -29.333 115.667 -71.333 153 -126s56 -119.667 56 -195v-103z" />
    <glyph glyph-name="four" unicode="4" 
d="M102 471l369 1065h369v-1065h184v-225h-184v-246h-246v246h-492v225zM303 471h291v850z" />
    <glyph glyph-name="five" unicode="5" 
d="M565 829c-87.333 0 -142.667 -40.6689 -166 -122.002h-235v829h778v-225h-543v-383c54.667 77.333 132 116 232 116c115.333 0 202.833 -38.167 262.5 -114.5s89.5 -188.166 89.5 -335.499v-156c0 -74 -10.833 -140.333 -32.5 -199s-51.667 -106.667 -90 -144
s-82.5 -65.833 -132.5 -85.5s-104.333 -29.5 -163 -29.5c-122.667 0 -223.667 37.667 -303 113s-119 181 -119 317v61h246v-20c0 -87.333 15 -150.166 45 -188.499s73.667 -57.5 131 -57.5c53.333 0 95.333 19.167 126 57.5s46 96.833 46 175.5v144
c0 164.667 -57.333 247 -172 247z" />
    <glyph glyph-name="six" unicode="6" 
d="M1004 451c0 -74.667 -11.502 -142 -34.502 -202s-54.5 -109.5 -94.5 -148.5s-86.667 -68.833 -140 -89.5s-110.666 -31 -171.999 -31c-127.333 0 -232.5 43.333 -315.5 130s-124.5 207 -124.5 361v594c0 154 41.5 274.333 124.5 361s188.167 130 315.5 130
c120.667 0 220.834 -38 300.501 -114s119.5 -181.333 119.5 -316v-41h-246v21c0 150 -58 225 -174 225c-129.333 0 -194 -95.667 -194 -287v-225c57.333 96 144.666 144 261.999 144c50.667 0 98.334 -10 143.001 -30s84.167 -49.167 118.5 -87.5s61.5 -87.833 81.5 -148.5
s30 -129 30 -205v-41zM368.998 492v-41c0 -164 64.667 -246 194 -246c130 0 195 82 195 246v41c0 163.333 -65 245 -195 245c-129.333 0 -194 -81.667 -194 -245z" />
    <glyph glyph-name="seven" unicode="7" 
d="M639 113v-113h-246v70c0 57.333 2 113.5 6 168.5s8.66699 105 14 150s14 92.333 26 142l31 126.5c8.66699 34.667 21.834 75.5 39.501 122.5l42.5 110.5c10.667 26.667 27.167 63.5 49.5 110.5l49.5 102l54.5 106l52.5 102.5h-590v225h790v-307l-64 -129l-62 -126
c-12 -24.667 -29.5 -63 -52.5 -115s-39.333 -93.833 -49 -125.5s-21.834 -73.667 -36.501 -126s-25 -101.333 -31 -147s-11.5 -98.5 -16.5 -158.5s-7.5 -123 -7.5 -189z" />
    <glyph glyph-name="eight" unicode="8" 
d="M1004 389c0 -86 -19.9941 -160.333 -59.9941 -223s-92.833 -109.334 -158.5 -140.001s-139.834 -46 -222.501 -46s-156.834 15.333 -222.501 46s-118.334 77.334 -158.001 140.001s-59.5 137 -59.5 223v103c0 75.333 18.667 140.333 56 195s88.333 96.667 153 126
c-52.667 29.333 -93.834 68.833 -123.501 118.5s-44.5 107.834 -44.5 174.501v82c0 116 37.667 206.333 113 271s170.666 97 285.999 97s210.833 -32.333 286.5 -97s113.5 -155 113.5 -271v-82c0 -66.667 -14.833 -124.834 -44.5 -174.501s-70.834 -89.167 -123.501 -118.5
c64.667 -29.333 115.667 -71.333 153 -126s56 -119.667 56 -195v-103zM410.006 1167v-61c0 -122.667 51 -184 153 -184c102.667 0 154 61.333 154 184v61c0 109.333 -51.333 164 -154 164c-102 0 -153 -54.667 -153 -164zM369.006 492v-82c0 -136.667 64.667 -205 194 -205
c130 0 195 68.333 195 205v82c0 136 -65 204 -195 204c-129.333 0 -194 -68 -194 -204z" />
    <glyph glyph-name="nine" unicode="9" 
d="M1004 471c0 -154 -41.666 -274.332 -124.999 -360.999s-188.666 -130 -315.999 -130c-120.667 0 -220.834 37.833 -300.501 113.5s-119.5 181.167 -119.5 316.5v41h246v-21c0 -150 58 -225 174 -225c130 0 195 95.667 195 287v225
c-57.333 -96 -144.666 -144 -261.999 -144c-50.667 0 -98.334 10 -143.001 30s-84.167 49.167 -118.5 87.5s-61.5 87.833 -81.5 148.5s-30 129 -30 205v41c0 147.333 41.5 262.666 124.5 345.999s188.167 125 315.5 125s232.666 -43.333 315.999 -130s125 -207 125 -361
v-594zM758.001 1044v41c0 164 -65 246 -195 246c-129.333 0 -194 -82 -194 -246v-41c0 -86.667 16.667 -149.167 50 -187.5s81.333 -57.5 144 -57.5c130 0 195 81.667 195 245z" />
    <glyph glyph-name="colon" unicode=":" horiz-adv-x="471" 
d="M236 737c-44 0 -80.667 14.833 -110 44.5s-44 66.167 -44 109.5c0 44 14.667 80.5 44 109.5s66 43.5 110 43.5c44.667 0 81.334 -14.5 110.001 -43.5s43 -65.5 43 -109.5c0 -43.333 -14.333 -79.833 -43 -109.5s-65.334 -44.5 -110.001 -44.5zM236 -20
c-44 0 -80.667 14.667 -110 44s-44 65.666 -44 108.999c0 44 14.667 80.667 44 110s66 44 110 44c44.667 0 81.334 -14.667 110.001 -44s43 -66 43 -110c0 -43.333 -14.333 -79.666 -43 -108.999s-65.334 -44 -110.001 -44z" />
    <glyph glyph-name="semicolon" unicode=";" horiz-adv-x="471" 
d="M236 737c-44 0 -80.667 14.833 -110 44.5s-44 66.167 -44 109.5c0 44 14.667 80.5 44 109.5s66 43.5 110 43.5c44.667 0 81.334 -14.5 110.001 -43.5s43 -65.5 43 -109.5c0 -43.333 -14.333 -79.833 -43 -109.5s-65.334 -44.5 -110.001 -44.5zM393 115
c0 -112 -52.332 -246 -156.999 -402h-136c65.333 108 107.666 197 126.999 267c-42.667 2 -77.5 17.5 -104.5 46.5s-40.5 64.5 -40.5 106.5c0 43.333 14.5 79.833 43.5 109.5s65.833 44.5 110.5 44.5c45.333 0 82.833 -15.333 112.5 -46s44.5 -72.667 44.5 -126z" />
    <glyph glyph-name="less" unicode="&#x3c;" 
d="M973 322v-187l-819 400v172l819 399v-186l-613 -299z" />
    <glyph glyph-name="equal" unicode="=" 
d="M154 743v164h819v-164h-819zM154 334v164h819v-164h-819z" />
    <glyph glyph-name="greater" unicode="&#x3e;" 
d="M973 535l-819 -400v187l612 299l-612 299v186l819 -399v-172z" />
    <glyph glyph-name="question" unicode="?" horiz-adv-x="1017" 
d="M967 1161c0 -56.667 -11.333 -108.335 -34 -155.002s-50.167 -86.167 -82.5 -118.5l-97.5 -94.5c-32.667 -30.667 -61 -65.5 -85 -104.5s-37 -80.833 -39 -125.5l-2 -51h-226v61c0 40.667 5.83301 79.167 17.5 115.5s27 68.333 46 96s39.833 54.334 62.5 80.001
s45.334 50 68.001 73s43.5 45.833 62.5 68.5s34.333 47.167 46 73.5s17.5 53.5 17.5 81.5c0 54.667 -17.833 96.667 -53.5 126s-86.167 44 -151.5 44s-117.833 -19.333 -157.5 -58s-59.5 -99.667 -59.5 -183v-66h-248v88c0 72.667 12.667 137.667 38 195
s59.666 103.833 102.999 139.5s92.5 62.834 147.5 81.501s113.833 28 176.5 28c136 0 245.167 -34.667 327.5 -104s123.5 -166.333 123.5 -291zM514 -20.001c-38.667 0 -72.167 14.333 -100.5 43s-42.5 62 -42.5 100c0 39.333 14.167 73 42.5 101s61.833 42 100.5 42
c40 0 73.833 -14 101.5 -42s41.5 -61.667 41.5 -101c0 -38.667 -14 -72.167 -42 -100.5s-61.667 -42.5 -101 -42.5z" />
    <glyph glyph-name="at" unicode="@" horiz-adv-x="1763" 
d="M1239 -238c-114.667 -60 -237.668 -90 -369.001 -90c-87.333 0 -171.333 13.333 -252 40s-153.167 64.5 -217.5 113.5s-120.5 106 -168.5 171s-85 137.333 -111 217s-39 162.167 -39 247.5c0 142.667 34.5 274.334 103.5 395.001s164 216.334 285 287.001
s254.167 106 399.5 106c112 0 218.333 -20.667 319 -62s186.834 -96.833 258.501 -166.5s128.5 -151.834 170.5 -246.501s63 -193.667 63 -297c0 -164.667 -30.333 -288.667 -91 -372s-140.667 -125 -240 -125c-60.667 0 -114.167 12.5 -160.5 37.5
s-81.833 59.5 -106.5 103.5c-72.667 -94 -177 -141 -313 -141c-90 0 -167.5 23.5 -232.5 70.5s-97.5 112.833 -97.5 197.5c0 51.333 11 94.666 33 129.999s50.667 62 86 80s74.333 32.333 117 43s85.334 19 128.001 25s81.667 12.5 117 19.5s64 18.333 86 34
s33 36.167 33 61.5c0 35.333 -16.5 63.666 -49.5 84.999s-73.167 32 -120.5 32c-50.667 0 -92 -13.167 -124 -39.5s-48 -63.166 -48 -110.499h-229c0 58 10.833 108.833 32.5 152.5s51.334 78.334 89.001 104.001s79.5 44.667 125.5 57s95.333 18.5 148 18.5
s102 -6.16699 148 -18.5s88.167 -31.333 126.5 -57s68.5 -60.334 90.5 -104.001s33 -94.5 33 -152.5v-354c0 -108 37.333 -162 112 -162c55.333 0 100 33 134 99s51 161.333 51 286c0 88 -17.833 172.333 -53.5 253s-83.834 150.834 -144.501 210.501
s-133.834 107.334 -219.501 143.001s-176.167 53.5 -271.5 53.5c-123.333 0 -236 -30.167 -338 -90.5s-182 -142.333 -240 -246s-87 -216.834 -87 -339.501c0 -122 29 -234.833 87 -338.5s138 -185.834 240 -246.501s214.667 -91 338 -91c114 0 221.333 27.333 322 82z
M661.999 264c0 -29.333 12.667 -51.333 38 -66s59 -22 101 -22c66 0 122.333 18.167 169 54.5s70 85.833 70 148.5v43c-26 -10 -58 -18.833 -96 -26.5s-72.167 -14.167 -102.5 -19.5s-59.833 -12 -88.5 -20s-51 -19.5 -67 -34.5s-24 -34.167 -24 -57.5z" />
    <glyph glyph-name="A" unicode="A" horiz-adv-x="1044" 
d="M20 0l318 1536h369l317 -1536h-248l-67 348h-373l-68 -348h-248zM379 573h287l-144 740z" />
    <glyph glyph-name="B" unicode="B" 
d="M143 0l0.000976562 1536h437c129.333 0 232.333 -32.833 309 -98.5s115 -159.167 115 -280.5v-20c0 -141.333 -61 -241 -183 -299c69.333 -29.333 123.833 -74.5 163.5 -135.5s59.5 -134.833 59.5 -221.5v-41c0 -140 -38.333 -248.333 -115 -325
s-179.334 -115 -308.001 -115h-478zM559.001 1311l-170 -0.000976562v-389h170c65.333 0 114.833 15.5 148.5 46.5s50.5 80.167 50.5 147.5v21c0 60.667 -16.833 104.834 -50.5 132.501s-83.167 41.5 -148.5 41.5zM600.001 695.999h-211v-471h211
c65.333 0 114.833 18.833 148.5 56.5s50.5 97.5 50.5 179.5v20c0 76 -16.667 130.833 -50 164.5s-83 50.5 -149 50.5z" />
    <glyph glyph-name="C" unicode="C" horiz-adv-x="1167" 
d="M799 594h245v-82c0 -175.333 -40.167 -307.833 -120.5 -397.5s-193.5 -134.5 -339.5 -134.5s-259.333 45 -340 135s-121 222.333 -121 397v512c0 174.667 40.333 307 121 397s194 135 340 135s259.167 -44.833 339.5 -134.5s120.5 -222.167 120.5 -397.5v-61h-245v61
c0 110.667 -18 189.5 -54 236.5s-89.667 70.5 -161 70.5c-70.667 0 -124.167 -23.5 -160.5 -70.5s-54.5 -125.833 -54.5 -236.5v-512c0 -110.667 18 -189.5 54 -236.5s89.667 -70.5 161 -70.5c70.667 0 124.167 23.5 160.5 70.5s54.5 125.833 54.5 236.5v82z" />
    <glyph glyph-name="D" unicode="D" horiz-adv-x="1167" 
d="M584 1536c146 0 259.167 -43.333 339.5 -130s120.5 -214 120.5 -382v-512c0 -168 -40.167 -295.333 -120.5 -382s-193.5 -130 -339.5 -130h-441v1536h441zM584 225c70 0 123.333 22.167 160 66.5s55 117.833 55 220.5v512c0 103.333 -18.167 177 -54.5 221
s-89.833 66 -160.5 66h-195v-1086h195z" />
    <glyph glyph-name="E" unicode="E" horiz-adv-x="929" 
d="M143 0v1536h705v-225h-459v-410h418v-225h-418v-451h459v-225h-705z" />
    <glyph glyph-name="F" unicode="F" horiz-adv-x="888" 
d="M143 0v1536h705v-225h-459v-451h397v-225h-397v-635h-246z" />
    <glyph glyph-name="G" unicode="G" horiz-adv-x="1177" 
d="M553 809h491v-809h-221v166c-56.667 -124 -152.667 -186 -288 -186c-130 0 -231.167 45 -303.5 135s-108.5 222.333 -108.5 397v512c0 174.667 40.333 307 121 397s194 135 340 135s259.167 -44.833 339.5 -134.5s120.5 -222.167 120.5 -397.5v-61h-245v61
c0 110.667 -18 189.5 -54 236.5s-89.667 70.5 -161 70.5c-70.667 0 -124.167 -23.5 -160.5 -70.5s-54.5 -125.833 -54.5 -236.5v-512c0 -110.667 18 -189.5 54 -236.5s89.667 -70.5 161 -70.5c143.333 0 215 95.667 215 287v92h-246v225z" />
    <glyph glyph-name="H" unicode="H" horiz-adv-x="1208" 
d="M819 0v676h-430v-676h-246v1536h246v-635h430v635h246v-1536h-246z" />
    <glyph glyph-name="I" unicode="I" horiz-adv-x="532" 
d="M389 0h-246v1536h246v-1536z" />
    <glyph glyph-name="J" unicode="J" horiz-adv-x="1044" 
d="M676 1536l245.997 -0.000976562v-1126c0 -92.667 -19 -172 -57 -238s-88.167 -114.5 -150.5 -145.5s-133.166 -46.5 -212.499 -46.5s-150.166 15.5 -212.499 46.5s-112.5 79.5 -150.5 145.5s-57 145.333 -57 238v135h246v-115c0 -81.333 15 -139.166 45 -173.499
s73 -51.5 129 -51.5c56.667 0 99.834 17 129.501 51s44.5 92 44.5 174v1106z" />
    <glyph glyph-name="K" unicode="K" horiz-adv-x="1062" 
d="M768 0l-379 743v-743h-246v1536h246v-743l385 743h268l-403 -731l424 -805h-295z" />
    <glyph glyph-name="L" unicode="L" horiz-adv-x="888" 
d="M868 225v-225h-725v1536h246v-1311h479z" />
    <glyph glyph-name="M" unicode="M" horiz-adv-x="1597" 
d="M1208 0v1333l-270 -1333h-297l-272 1343v-1343h-226v1536h418l238 -1180l229 1180h426v-1536h-246z" />
    <glyph glyph-name="N" unicode="N" horiz-adv-x="1208" 
d="M1065 1536v-1536h-403l-293 1348v-1348h-226v1536h408l289 -1329v1329h225z" />
    <glyph glyph-name="O" unicode="O" horiz-adv-x="1167" 
d="M584 -20c-146 0 -259.333 45 -340 135s-121 222.333 -121 397v512c0 174.667 40.333 307 121 397s194 135 340 135s259.167 -44.833 339.5 -134.5s120.5 -222.167 120.5 -397.5v-512c0 -175.333 -40.167 -307.833 -120.5 -397.5s-193.5 -134.5 -339.5 -134.5zM584 205
c70.667 0 124.167 23.5 160.5 70.5s54.5 125.833 54.5 236.5v512c0 110.667 -18 189.5 -54 236.5s-89.667 70.5 -161 70.5c-70.667 0 -124.167 -23.5 -160.5 -70.5s-54.5 -125.833 -54.5 -236.5v-512c0 -110.667 18 -189.5 54 -236.5s89.667 -70.5 161 -70.5z" />
    <glyph glyph-name="P" unicode="P" horiz-adv-x="1085" 
d="M143 0l-0.000976562 1536h449c130 0 234.5 -36.667 313.5 -110s118.5 -176.666 118.5 -309.999v-102c0 -139.333 -39.667 -247.666 -119 -324.999s-183.666 -116 -312.999 -116h-203v-573h-246zM570.999 1311h-182v-512h182c138 0 207 78.333 207 235v62
c0 143.333 -69 215 -207 215z" />
    <glyph glyph-name="Q" unicode="Q" horiz-adv-x="1167" 
d="M836 0l-78 113c-34 -88.667 -109.333 -133 -226 -133c-122.667 0 -221.5 45.667 -296.5 137s-112.5 223 -112.5 395v512c0 174.667 40.333 307 121 397s194 135 340 135s259.167 -44.833 339.5 -134.5s120.5 -222.167 120.5 -397.5v-512c0 -149.333 -38 -253 -114 -311
l141 -201h-235zM369 512c0 -110.667 18 -189.5 54 -236.5s89.667 -70.5 161 -70.5c28 0 54.667 4 80 12l-226 315h242l106 -159c8.66699 42 13 88.333 13 139v512c0 110.667 -18 189.5 -54 236.5s-89.667 70.5 -161 70.5c-70.667 0 -124.167 -23.5 -160.5 -70.5
s-54.5 -125.833 -54.5 -236.5v-512z" />
    <glyph glyph-name="R" unicode="R" 
d="M1085 0l-291.999 0.000976562l-404 754v-754h-246v1536h463c129.333 0 233.666 -34.833 312.999 -104.5s119 -167.834 119 -294.501v-62c0 -110 -30.833 -198 -92.5 -264s-144.167 -108.333 -247.5 -127zM586.001 1311h-197v-430h197c138 0 207 71.667 207 215v20
c0 130 -69 195 -207 195z" />
    <glyph glyph-name="S" unicode="S" horiz-adv-x="993" 
d="M102 1169c0 66.667 10.333 125.335 31 176.002s49.5 91.167 86.5 121.5s78.833 52.833 125.5 67.5s98.334 22 155.001 22c76 0 143.667 -14.5 203 -43.5s107.166 -74.833 143.499 -137.5s54.5 -138.667 54.5 -228v-103h-246v97c0 64 -13.5 111.667 -40.5 143
s-65.167 47 -114.5 47c-46 0 -82.833 -14.167 -110.5 -42.5s-41.5 -68.166 -41.5 -119.499c0 -46.667 13 -87.334 39 -122.001s63.667 -69.667 113 -105l180 -129c76 -54.667 135.333 -114.667 178 -180s64 -143.333 64 -234s-19.167 -168.167 -57.5 -232.5
s-88.666 -111.5 -150.999 -141.5s-132.833 -45 -211.5 -45c-120.667 0 -220.834 36.333 -300.501 109s-119.5 172.667 -119.5 300v123h246v-109c0 -60.667 15.833 -108.834 47.5 -144.501s73.834 -53.5 126.501 -53.5c53.333 0 95.666 14.667 126.999 44s47 69.333 47 120
c0 53.333 -13.833 100.166 -41.5 140.499s-67.167 78.833 -118.5 115.5l-174 125c-49.333 35.333 -90.5 70.833 -123.5 106.5s-60.667 80.5 -83 134.5s-33.5 113.333 -33.5 178z" />
    <glyph glyph-name="T" unicode="T" horiz-adv-x="888" 
d="M20 1311v225h848v-225h-301v-1311h-245v1311h-302z" />
    <glyph glyph-name="U" unicode="U" horiz-adv-x="1167" 
d="M133 1536h245.998v-1055c0 -99.333 17.167 -170.166 51.5 -212.499s85.5 -63.5 153.5 -63.5c66.667 0 117.334 21.167 152.001 63.5s52 113.166 52 212.499v1055h246v-1055c0 -165.333 -39.167 -290.166 -117.5 -374.499s-189.166 -126.5 -332.499 -126.5
s-254.333 42.167 -333 126.5s-118 209.166 -118 374.499v1055z" />
    <glyph glyph-name="V" unicode="V" horiz-adv-x="1044" 
d="M1024 1536l-317 -1536h-369l-318 1536h248l254 -1313l254 1313h248z" />
    <glyph glyph-name="W" unicode="W" horiz-adv-x="1536" 
d="M1516 1536l-211 -1536h-371l-166 1296l-166 -1296h-371l-211 1536h246l156 -1260l162 1260h368l162 -1260l156 1260h246z" />
    <glyph glyph-name="X" unicode="X" horiz-adv-x="1003" 
d="M737 0l-235 569l-236 -569h-266l365 786l-345 750h267l215 -535l215 535h266l-344 -750l365 -786h-267z" />
    <glyph glyph-name="Y" unicode="Y" horiz-adv-x="983" 
d="M614 614v-614h-245v614l-369 922h246l246 -651l245 651h246z" />
    <glyph glyph-name="Z" unicode="Z" horiz-adv-x="901" 
d="M860 225v-225h-799v287l547 1024h-536v225h768v-287l-545 -1024h565z" />
    <glyph glyph-name="bracketleft" unicode="[" horiz-adv-x="696" 
d="M205 -369v1905h491v-184h-266v-1536h266v-185h-491z" />
    <glyph glyph-name="backslash" unicode="\" horiz-adv-x="831" 
d="M584 0l-512 1536h176l512 -1536h-176z" />
    <glyph glyph-name="bracketright" unicode="]" horiz-adv-x="696" 
d="M0 1352v184h492v-1905h-492v185h266v1536h-266z" />
    <glyph glyph-name="asciicircum" unicode="^" 
d="M862 717l-299 612l-299 -612h-186l399 819h172l400 -819h-187z" />
    <glyph glyph-name="underscore" unicode="_" horiz-adv-x="1024" 
d="M922 -379h-820v164h820v-164z" />
    <glyph glyph-name="grave" unicode="`" horiz-adv-x="1024" 
d="M420 1229l-184 307h266l123 -307h-205z" />
    <glyph glyph-name="a" unicode="a" 
d="M762 0v151.998c-62.667 -114.667 -171.334 -172 -326.001 -172c-61.333 0 -117.166 9.66699 -167.499 29s-92.333 51.833 -126 97.5s-50.5 101.5 -50.5 167.5c0 52.667 9.5 98.334 28.5 137.001s44.167 68.667 75.5 90s67 39.5 107 54.5s80.667 25.5 122 31.5
s82 12.667 122 20s75.667 14.5 107 21.5s56.5 18.5 75.5 34.5s28.5 36 28.5 60c0 38.667 -17.833 69.5 -53.5 92.5s-80.834 34.5 -135.501 34.5c-58 0 -104.167 -15 -138.5 -45s-51.5 -73 -51.5 -129h-256c0 64 12.333 120.333 37 169s58.334 87.167 101.001 115.5
s89.834 49.333 141.501 63s107.167 20.5 166.5 20.5c58.667 0 113.167 -6.16699 163.5 -18.5s96.166 -31.166 137.499 -56.499s74 -59.833 98 -103.5s36 -94.5 36 -152.5v-713h-242zM344 290.998c0 -34.667 13.168 -61.1689 39.501 -79.502s60.833 -27.5 103.5 -27.5
c76 0 140.833 21 194.5 63s80.5 100.333 80.5 175v47c-28 -12 -63 -22.5 -105 -31.5s-80 -16.667 -114 -23s-66.833 -14.166 -98.5 -23.499s-56.334 -22.166 -74.001 -38.499s-26.5 -36.833 -26.5 -61.5z" />
    <glyph glyph-name="b" unicode="b" horiz-adv-x="1259" 
d="M1188 512c0 -155.333 -46.667 -282.833 -140 -382.5s-210.666 -149.5 -351.999 -149.5c-122 0 -224.333 49.667 -307 149v-129h-246v1536h246v-641c82.667 99.333 185 149 307 149c141.333 0 258.666 -49.833 351.999 -149.5s140 -227.167 140 -382.5zM666 819
c-80 0 -146.167 -28.5 -198.5 -85.5s-78.5 -130.833 -78.5 -221.5s26.167 -164.5 78.5 -221.5s118.5 -85.5 198.5 -85.5s146 28.333 198 85s78 130.667 78 222s-26 165.333 -78 222s-118 85 -198 85z" />
    <glyph glyph-name="c" unicode="c" horiz-adv-x="1171" 
d="M840 616c-8 65.333 -35.498 115.5 -82.498 150.5s-104.167 52.5 -171.5 52.5c-78 0 -142.333 -28.333 -193 -85s-76 -130.667 -76 -222s25.333 -165.333 76 -222s115 -85 193 -85c67.333 0 125.166 19.5 173.499 58.5s77.166 94.5 86.499 166.5h254
c-6 -134 -57.167 -242.5 -153.5 -325.5s-216.5 -124.5 -360.5 -124.5c-148.667 0 -271.5 49.833 -368.5 149.5s-145.5 227.167 -145.5 382.5s48.5 282.833 145.5 382.5s219.833 149.5 368.5 149.5c138.667 0 255.5 -39.5 350.5 -118.5s148.833 -182.167 161.5 -309.5h-258z
" />
    <glyph glyph-name="d" unicode="d" horiz-adv-x="1259" 
d="M870 0v129c-38.667 -47.333 -84.334 -84 -137.001 -110s-109.334 -39 -170.001 -39c-141.333 0 -258.5 49.833 -351.5 149.5s-139.5 227.167 -139.5 382.5s46.5 282.833 139.5 382.5s210.167 149.5 351.5 149.5c60.667 0 117.334 -13 170.001 -39
s98.334 -62.667 137.001 -110v641h246v-1536h-246zM594 819c-80 0 -146.167 -28.5 -198.5 -85.5s-78.5 -130.833 -78.5 -221.5s26.167 -164.5 78.5 -221.5s118.5 -85.5 198.5 -85.5s146 28.333 198 85s78 130.667 78 222s-26 165.333 -78 222s-118 85 -198 85z" />
    <glyph glyph-name="e" unicode="e" horiz-adv-x="1159" 
d="M1087 512c0 -18.667 -1.33203 -46.001 -3.99902 -82.001h-770c13.333 -75.333 43.833 -133.333 91.5 -174s109.5 -61 185.5 -61c102.667 0 171 37.333 205 112h266c-30 -105.333 -87.167 -186.166 -171.5 -242.499s-187.5 -84.5 -309.5 -84.5
c-147.333 0 -268.833 49.667 -364.5 149s-143.5 227 -143.5 383s47.833 283.667 143.5 383s217.167 149 364.5 149s268.666 -49.667 363.999 -149s143 -227 143 -383zM580.001 828.999c-71.333 0 -130 -19.5 -176 -58.5s-75.667 -94.5 -89 -166.5h529
c-13.333 72 -42.833 127.5 -88.5 166.5s-104.167 58.5 -175.5 58.5z" />
    <glyph glyph-name="f" unicode="f" horiz-adv-x="778" 
d="M451 1171v-147.001h266v-215h-266v-809h-246v809h-164v215h164v154c0 116.667 37 208.834 111 276.501s168.667 101.5 284 101.5c54 0 99.667 -5.33301 137 -16v-225c-35.333 10.667 -73.333 16 -114 16c-54 0 -96.167 -13.833 -126.5 -41.5s-45.5 -67.167 -45.5 -118.5z
" />
    <glyph glyph-name="g" unicode="g" horiz-adv-x="1259" 
d="M1116 0c0 -154 -49.498 -281.168 -148.498 -381.501s-220.167 -150.5 -363.5 -150.5c-135.333 0 -249.833 41.333 -343.5 124s-149.834 191.334 -168.501 326.001h248c11.333 -68 40.666 -122.5 87.999 -163.5s106 -61.5 176 -61.5c82.667 0 147.667 28.167 195 84.5
s71 130.5 71 222.5v129c-38.667 -47.333 -84.334 -84 -137.001 -110s-109.334 -39 -170.001 -39c-141.333 0 -258.5 49.833 -351.5 149.5s-139.5 227.167 -139.5 382.5s46.5 282.833 139.5 382.5s210.167 149.5 351.5 149.5c60.667 0 117.334 -13 170.001 -39
s98.334 -62.667 137.001 -110v129h246v-1024zM594.002 204.999c80 0 146 28.333 198 85s78 130.667 78 222s-26 165.333 -78 222s-118 85 -198 85s-146.167 -28.5 -198.5 -85.5s-78.5 -130.833 -78.5 -221.5s26.167 -164.5 78.5 -221.5s118.5 -85.5 198.5 -85.5z" />
    <glyph glyph-name="h" unicode="h" horiz-adv-x="1198" 
d="M389 563l0.000976562 -563.001h-246v1536h246v-659c31.333 54 72.333 95.333 123 124s108 43 172 43c113.333 0 205.166 -37.167 275.499 -111.5s105.5 -181.166 105.5 -320.499v-612h-246v563c0 85.333 -19 151 -57 197s-90.667 69 -158 69s-120 -23 -158 -69
s-57 -111.667 -57 -197z" />
    <glyph glyph-name="i" unicode="i" horiz-adv-x="532" 
d="M266 1229c-44 0 -80.5 14.667 -109.5 44s-43.5 65.666 -43.5 108.999c0 44 14.5 80.667 43.5 110s65.5 44 109.5 44c44.667 0 81.5 -14.667 110.5 -44s43.5 -66 43.5 -110c0 -43.333 -14.5 -79.666 -43.5 -108.999s-65.833 -44 -110.5 -44zM389 0h-246v1024h246v-1024z
" />
    <glyph glyph-name="j" unicode="j" horiz-adv-x="532" 
d="M266 1229c-44 0 -80.5 14.667 -109.5 44s-43.5 65.666 -43.5 108.999c0 44 14.5 80.667 43.5 110s65.5 44 109.5 44c44.667 0 81.5 -14.667 110.5 -44s43.5 -66 43.5 -110c0 -43.333 -14.5 -79.666 -43.5 -108.999s-65.833 -44 -110.5 -44zM143 -147v1171h246v-1178
c0 -238.667 -121.333 -358 -364 -358c-50 0 -85.667 2.66699 -107 8v223c23.333 -4 48 -6 74 -6c50.667 0 88.5 10.167 113.5 30.5s37.5 56.833 37.5 109.5z" />
    <glyph glyph-name="k" unicode="k" horiz-adv-x="1157" 
d="M829 0l-440 539v-539h-246v1536h246v-958l397 446h324l-451 -465l478 -559h-308z" />
    <glyph glyph-name="l" unicode="l" horiz-adv-x="532" 
d="M389 0h-246v1536h246v-1536z" />
    <glyph glyph-name="m" unicode="m" horiz-adv-x="1792" 
d="M389 584l-0.00292969 -584h-246v1024h246v-133c29.333 48.667 67.833 86.334 115.5 113.001s100.834 40 159.501 40c70.667 0 133.667 -16 189 -48s97.333 -78.667 126 -140c30 60 73 106.333 129 139s119.333 49 190 49c108 0 195.167 -35.333 261.5 -106
s99.5 -172.334 99.5 -305.001v-633h-246v584c0 79.333 -17 140 -51 182s-81.667 63 -143 63s-109.166 -21 -143.499 -63s-51.5 -102.667 -51.5 -182v-584h-246v584c0 79.333 -17 140 -51 182s-81.667 63 -143 63s-109.166 -21 -143.499 -63s-51.5 -102.667 -51.5 -182z" />
    <glyph glyph-name="n" unicode="n" horiz-adv-x="1198" 
d="M389 563l0.000976562 -563.001h-246v1024h246v-147c31.333 54 72.333 95.333 123 124s108 43 172 43c113.333 0 205.166 -37.167 275.499 -111.5s105.5 -181.166 105.5 -320.499v-612h-246v563c0 85.333 -19 151 -57 197s-90.667 69 -158 69s-120 -23 -158 -69
s-57 -111.667 -57 -197z" />
    <glyph glyph-name="o" unicode="o" horiz-adv-x="1187" 
d="M594 -20c-150.667 0 -275.334 49.833 -374.001 149.5s-148 227.167 -148 382.5s49.333 282.833 148 382.5s223.334 149.5 374.001 149.5s275.334 -49.833 374.001 -149.5s148 -227.167 148 -382.5s-49.333 -282.833 -148 -382.5s-223.334 -149.5 -374.001 -149.5z
M594 205c80 0 146 28.333 198 85s78 130.667 78 222s-26 165.333 -78 222s-118 85 -198 85s-146.167 -28.5 -198.5 -85.5s-78.5 -130.833 -78.5 -221.5s26.167 -164.5 78.5 -221.5s118.5 -85.5 198.5 -85.5z" />
    <glyph glyph-name="p" unicode="p" horiz-adv-x="1259" 
d="M696 -20c-122 0 -224.333 49.667 -307 149v-641h-246v1536h246v-129c82.667 99.333 185 149 307 149c141.333 0 258.666 -49.833 351.999 -149.5s140 -227.167 140 -382.5s-46.667 -282.833 -140 -382.5s-210.666 -149.5 -351.999 -149.5zM666 205
c80 0 146 28.333 198 85s78 130.667 78 222s-26 165.333 -78 222s-118 85 -198 85s-146.167 -28.5 -198.5 -85.5s-78.5 -130.833 -78.5 -221.5s26.167 -164.5 78.5 -221.5s118.5 -85.5 198.5 -85.5z" />
    <glyph glyph-name="q" unicode="q" horiz-adv-x="1259" 
d="M1116 1024v-1536h-246v641c-38.667 -47.333 -84.334 -84 -137.001 -110s-109.334 -39 -170.001 -39c-141.333 0 -258.5 49.833 -351.5 149.5s-139.5 227.167 -139.5 382.5s46.5 282.833 139.5 382.5s210.167 149.5 351.5 149.5c60.667 0 117.334 -13 170.001 -39
s98.334 -62.667 137.001 -110v129h246zM594 205c80 0 146 28.333 198 85s78 130.667 78 222s-26 165.333 -78 222s-118 85 -198 85s-146.167 -28.5 -198.5 -85.5s-78.5 -130.833 -78.5 -221.5s26.167 -164.5 78.5 -221.5s118.5 -85.5 198.5 -85.5z" />
    <glyph glyph-name="r" unicode="r" horiz-adv-x="825" 
d="M389 522v-522h-246v1024h246v-166c76 124 190.667 186 344 186c26 0 43 -1.33301 51 -4v-268c-30.667 10.667 -66 16 -106 16c-91.333 0 -162.333 -23 -213 -69s-76 -111.667 -76 -197z" />
    <glyph glyph-name="s" unicode="s" horiz-adv-x="1032" 
d="M950 295c0 -96 -39.167 -172.497 -117.5 -229.497s-178.5 -85.5 -300.5 -85.5c-131.333 0 -239.166 32 -323.499 96s-126.5 151.333 -126.5 262h256c0 -53.333 17.833 -94.333 53.5 -123s82.5 -43 140.5 -43c52 0 92.333 9.5 121 28.5s43 47.167 43 84.5
c0 29.333 -11 53 -33 71s-50.5 31.5 -85.5 40.5s-73.667 17.167 -116 24.5s-84.666 17.333 -126.999 30s-81 29.167 -116 49.5s-63.5 50.333 -85.5 90s-33 87.834 -33 144.501c0 93.333 38 168.166 114 224.499s172 84.5 288 84.5c122.667 0 225 -33.167 307 -99.5
s123 -148.5 123 -246.5h-256c0 43.333 -16.5 79.5 -49.5 108.5s-74.5 43.5 -124.5 43.5c-46.667 0 -84 -9.33301 -112 -28s-42 -44.334 -42 -77.001c0 -23.333 8.66699 -42.833 26 -58.5s40 -27.334 68 -35.001s60.167 -15.667 96.5 -24s73.166 -16 110.499 -23
s74.166 -18.333 110.499 -34s68.5 -34 96.5 -55s50.667 -50.333 68 -88s26 -81.834 26 -132.501z" />
    <glyph glyph-name="t" unicode="t" horiz-adv-x="798" 
d="M451 350c0 -50 12.332 -86.667 36.999 -110s63.334 -35 116.001 -35c40 0 77.667 6 113 18v-219c-49.333 -16 -103.333 -24 -162 -24c-53.333 0 -100.333 5.83301 -141 17.5s-77.167 30.5 -109.5 56.5s-57 62.5 -74 109.5s-25.5 103.833 -25.5 170.5v475h-164v215h164
v307h246v-307h266v-215h-266v-459z" />
    <glyph glyph-name="u" unicode="u" horiz-adv-x="1187" 
d="M799 0v145.002c-30.667 -52.667 -71 -93.334 -121 -122.001s-106 -43 -168 -43c-112 0 -202.833 37.167 -272.5 111.5s-104.5 181.166 -104.5 320.499v612h246v-563c0 -85.333 18.667 -151 56 -197s89 -69 155 -69c65.333 0 116.5 23 153.5 69s55.5 111.667 55.5 197v563
h245v-1024h-245z" />
    <glyph glyph-name="v" unicode="v" horiz-adv-x="1024" 
d="M1004 1024l-318 -1024h-348l-318 1024h256l236 -813l236 813h256z" />
    <glyph glyph-name="w" unicode="w" horiz-adv-x="1566" 
d="M1536 1024l-256 -1024h-313l-183 797l-184 -797h-313l-256 1024h235l180 -795l181 795h313l180 -795l180 795h236z" />
    <glyph glyph-name="x" unicode="x" horiz-adv-x="1064" 
d="M778 0l-258 348l-233 -348h-287l387 528l-367 496h287l236 -317l215 317h286l-366 -502l387 -522h-287z" />
    <glyph glyph-name="y" unicode="y" horiz-adv-x="1026" 
d="M629 -106c-23.333 -68 -47.3311 -126 -71.998 -174s-54.834 -92 -90.501 -132s-77.834 -70 -126.501 -90s-104.667 -30 -168 -30c-58 0 -110.667 7.33301 -158 22v217c48 -14.667 93.333 -22 136 -22c56.667 0 104.167 17 142.5 51s72.5 87.333 102.5 160l-385 1128h246
l256 -788l258 788h246z" />
    <glyph glyph-name="z" unicode="z" horiz-adv-x="962" 
d="M911 215v-215h-839v276l553 533h-543v215h788v-276l-553 -533h594z" />
    <glyph glyph-name="braceleft" unicode="{" horiz-adv-x="696" 
d="M195 471l-103 0.00195312v225h103c25.333 0 49 10.667 71 32s33 51.666 33 90.999v406c0 95.333 27 171 81 227s125.333 84 214 84h102v-184h-59c-34 0 -61.333 -12.333 -82 -37s-31 -60.334 -31 -107.001v-422c0 -81.333 -37.333 -148.666 -112 -201.999
c74.667 -53.333 112 -121 112 -203v-422c0 -46.667 10.333 -82.167 31 -106.5s48 -36.5 82 -36.5h59v-185h-102c-88.667 0 -160 28 -214 84s-81 132 -81 228v405c0 39.333 -11 69.666 -33 90.999s-45.667 32 -71 32z" />
    <glyph glyph-name="bar" unicode="|" horiz-adv-x="593" 
d="M379 -512h-164v2048h164v-2048z" />
    <glyph glyph-name="braceright" unicode="}" horiz-adv-x="696" 
d="M502 696l102 -0.00195312v-225h-102c-25.333 0 -49.166 -10.667 -71.499 -32s-33.5 -51.666 -33.5 -90.999v-405c0 -96 -27 -172 -81 -228s-125.333 -84 -214 -84h-102v185h59c34 0 61.333 12.167 82 36.5s31 59.833 31 106.5v422c0 82 37.667 149.667 113 203
c-75.333 53.333 -113 120.666 -113 201.999v422c0 46.667 -10.333 82.334 -31 107.001s-48 37 -82 37h-59v184h102c88.667 0 160 -28 214 -84s81 -131.667 81 -227v-406c0 -39.333 11.167 -69.666 33.5 -90.999s46.166 -32 71.499 -32z" />
    <glyph glyph-name="asciitilde" unicode="~" 
d="M410 596c-22.667 0 -42 -7.99902 -58 -23.999s-24 -38.667 -24 -68v-33h-174v64c0 78 20 138.333 60 181s91.667 64 155 64c38 0 76 -7 114 -21s69.667 -29.5 95 -46.5s52 -32.5 80 -46.5s52.333 -21 73 -21c19.333 0 35.5 8 48.5 24s19.5 38.667 19.5 68v33h174v-63
c0 -78.667 -19.833 -139.334 -59.5 -182.001s-91.5 -64 -155.5 -64c-31.333 0 -63.833 7 -97.5 21s-62.667 29.5 -87 46.5s-51.5 32.5 -81.5 46.5s-57.333 21 -82 21z" />
    <glyph glyph-name="uni00A0" unicode="&#xa0;" horiz-adv-x="471" 
 />
    <glyph glyph-name="exclamdown" unicode="&#xa1;" horiz-adv-x="552" 
d="M276 1044c40 0 73.999 -14 101.999 -42s42 -61.667 42 -101c0 -38.667 -14.167 -72.167 -42.5 -100.5s-62.166 -42.5 -101.499 -42.5c-38.667 0 -72.167 14.333 -100.5 43s-42.5 62 -42.5 100c0 39.333 14.167 73 42.5 101s61.833 42 100.5 42zM163.999 512h225l21 -1024
h-267z" />
    <glyph glyph-name="cent" unicode="&#xa2;" 
d="M1092 686c-16.667 -120.667 -65.668 -221.334 -147.001 -302.001s-182 -128.667 -302 -144v-240h-143v240c-134 14.667 -245.333 70.834 -334 168.501s-133 217.5 -133 359.5s44.333 261.833 133 359.5s200 153.834 334 168.501v240h143v-240
c116.667 -15.333 215 -61 295 -137s130.667 -172.333 152 -289h-252c-11.333 50 -34.166 92.167 -68.499 126.5s-76.5 57.833 -126.5 70.5v-598c53.333 13.333 98 39.166 134 77.499s58.333 84.833 67 139.5h248zM278.999 768c0 -79.333 19.5 -146 58.5 -200
s93.167 -87.667 162.5 -101v602c-69.333 -13.333 -123.5 -47 -162.5 -101s-58.5 -120.667 -58.5 -200z" />
    <glyph glyph-name="sterling" unicode="&#xa3;" 
d="M999 225l-0.000976562 -225.002h-872v119c98 104 162.167 187.333 192.5 250s45.5 145 45.5 247c0 22 -3 42 -9 60h-202v143h131l-26 39.5c-14.667 22.333 -24.167 37.166 -28.5 44.499l-24.5 41.5c-12 20.333 -20.167 36.833 -24.5 49.5l-17 48.5
c-7 19.667 -11.667 38.834 -14 57.501s-3.5 38.334 -3.5 59.001c0 126 39.333 223.667 118 293s178.667 104 300 104c122 0 222.833 -37.833 302.5 -113.5s119.5 -181.167 119.5 -316.5v-41h-246v21c0 80.667 -15 138.334 -45 173.001s-73.667 52 -131 52
c-53.333 0 -95.333 -14.167 -126 -42.5s-46 -71.5 -46 -129.5c0 -38 7.33301 -75 22 -111s35.834 -77.167 63.501 -123.5s47.167 -81.5 58.5 -105.5h354v-143h-309c2.66699 -21.333 4 -39 4 -53c0 -80 -11.667 -154.167 -35 -222.5s-52 -126.833 -86 -175.5h534z" />
    <glyph glyph-name="currency" unicode="&#xa4;" 
d="M924 381l-121 -120.999l-125 125c-38.667 -15.333 -77 -23 -115 -23c-41.333 0 -80.333 8.33301 -117 25l-114 -115l-117 117l111 111c-19.333 37.333 -29 76.666 -29 117.999c0 42 9.66699 81.667 29 119l-123 123l121 121l127 -127c38.667 13.333 76 20 112 20
c40 0 78.333 -7.33301 115 -22l117 117l116 -117l-112 -113c18.667 -36 28 -76.333 28 -121c0 -40 -8.66699 -78 -26 -114zM563 506.001c32 0 58.5 10.5 79.5 31.5s31.5 47.833 31.5 80.5s-10.5 59.667 -31.5 81s-47.5 32 -79.5 32s-58.667 -10.667 -80 -32
s-32 -48.333 -32 -81s10.667 -59.5 32 -80.5s48 -31.5 80 -31.5z" />
    <glyph glyph-name="yen" unicode="&#xa5;" 
d="M932 496h-246v-496h-246v496h-245v143h245v258h-245v143h174l-287 496h240l241 -434l242 434h239l-286 -496h174v-143h-246v-258h246v-143z" />
    <glyph glyph-name="brokenbar" unicode="&#xa6;" horiz-adv-x="593" 
d="M379 717h-164v819h164v-819zM379 -512h-164v819h164v-819z" />
    <glyph glyph-name="section" unicode="&#xa7;" horiz-adv-x="1019" 
d="M911 -164c0 -124.667 -36.6709 -217.169 -110.004 -277.502s-169 -90.5 -287 -90.5c-76 0 -143.667 13.833 -203 41.5s-107.166 71.334 -143.499 131.001s-54.5 131.834 -54.5 216.501v67h245v-61c0 -57.333 13.667 -100 41 -128s65.666 -42 114.999 -42
c46 0 82.833 11.667 110.5 35s41.5 56 41.5 98c0 38.667 -12.5 71.667 -37.5 99s-63.167 57 -114.5 89l-180 117c-49.333 32 -90.5 63.833 -123.5 95.5s-61 71.167 -84 118.5s-34.5 99 -34.5 155c0 156.667 78 270 234 340c-74 59.333 -128 114.166 -162 164.499
s-51 110.833 -51 181.5c0 64.667 10.333 121.167 31 169.5s49.334 86.833 86.001 115.5s78.334 50 125.001 64s98.334 21 155.001 21c117.333 0 213.5 -33.5 288.5 -100.5s112.5 -163.833 112.5 -290.5v-65h-245v61c0 57.333 -13.667 100 -41 128s-65.666 42 -114.999 42
c-46 0 -82.833 -11.667 -110.5 -35s-41.5 -56.666 -41.5 -99.999c0 -38 12.667 -70.833 38 -98.5s63.333 -57.5 114 -89.5l180 -115c76 -48.667 135.333 -102.167 178 -160.5s64 -127.833 64 -208.5c0 -154.667 -74.333 -266.667 -223 -336
c69.333 -50 120.333 -102.833 153 -158.5s49 -120.167 49 -193.5zM511.996 349.998c50.667 0 92.334 14.8311 125.001 44.498s49 68.834 49 117.501s-16.333 87.834 -49 117.501s-74.334 44.5 -125.001 44.5c-50 0 -91.5 -15 -124.5 -45s-49.5 -69 -49.5 -117
s16.5 -87 49.5 -117s74.5 -45 124.5 -45z" />
    <glyph glyph-name="dieresis" unicode="&#xa8;" horiz-adv-x="1024" 
d="M307 1249c-36 0 -67.167 13.167 -93.5 39.5s-39.5 57.5 -39.5 93.5s13.167 67.333 39.5 94s57.5 40 93.5 40c36.667 0 68 -13.333 94 -40s39 -58 39 -94s-13 -67.167 -39 -93.5s-57.333 -39.5 -94 -39.5zM717 1249c-36 0 -67.167 13.167 -93.5 39.5
s-39.5 57.5 -39.5 93.5s13.167 67.333 39.5 94s57.5 40 93.5 40c36.667 0 68 -13.333 94 -40s39 -58 39 -94s-13 -67.167 -39 -93.5s-57.333 -39.5 -94 -39.5z" />
    <glyph glyph-name="copyright" unicode="&#xa9;" horiz-adv-x="1699" 
d="M850 -20c-110 0 -213.667 21 -311 63s-180 98.5 -248 169.5s-121.5 154.667 -160.5 251s-58.5 197.833 -58.5 304.5c0 108 19.5 210.333 58.5 307s92.5 180.334 160.5 251.001s150.5 126.667 247.5 168s200.833 62 311.5 62s214.5 -20.667 311.5 -62
s179.5 -97.333 247.5 -168s121.5 -154.334 160.5 -251.001s58.5 -199 58.5 -307c0 -106.667 -19.5 -208.167 -58.5 -304.5s-92.5 -180 -160.5 -251s-150.667 -127.5 -248 -169.5s-201 -63 -311 -63zM850 1444c-123.333 0 -235.333 -30.5 -336 -91.5s-179 -143 -235 -246
s-84 -215.833 -84 -338.5c0 -123.333 28 -236.5 84 -339.5s134.167 -184.833 234.5 -245.5s212.5 -91 336.5 -91s236.167 30.333 336.5 91s178.5 142.5 234.5 245.5s84 216.167 84 339.5c0 122.667 -28 235.5 -84 338.5s-134.333 185 -235 246s-212.667 91.5 -336 91.5z
M1065 852c-11.333 49.333 -37.002 88.668 -77.002 118.001s-86 44 -138 44c-66 0 -120.667 -22.833 -164 -68.5s-65 -104.834 -65 -177.501s21.667 -131.834 65 -177.501s98 -68.5 164 -68.5c56.667 0 105.334 16.333 146.001 49s65 76.334 73 131.001h205
c-8.66699 -107.333 -53.167 -194.833 -133.5 -262.5s-177.166 -101.5 -290.499 -101.5c-122.667 0 -224.334 40.333 -305.001 121s-121 183.667 -121 309s40.333 228.333 121 309s182.334 121 305.001 121c110 0 204.667 -32 284 -96s125.333 -147.333 138 -250h-207z" />
    <glyph glyph-name="ordfeminine" unicode="&#xaa;" horiz-adv-x="776" 
d="M481 561l-0.00195312 107c-38.667 -79.333 -109.667 -119 -213 -119c-59.333 0 -110.333 16.333 -153 49s-64 79.667 -64 141c0 38 7.83301 70.333 23.5 97s35.834 46.667 60.501 60s52 24 82 32s60 14.167 90 18.5s57.333 8.83301 82 13.5s44.834 12.167 60.501 22.5
s23.5 24.166 23.5 41.499c0 22.667 -9.33301 40.667 -28 54s-42.667 20 -72 20c-34 0 -60.333 -8.66699 -79 -26s-28 -42.333 -28 -75h-194c0 42.667 8.5 80 25.5 112s40.333 57.333 70 76s62.167 32.667 97.5 42s73.333 14 114 14c40 0 77.167 -4.16699 111.5 -12.5
s65.5 -21 93.5 -38s50 -40.167 66 -69.5s24 -63.666 24 -102.999v-457h-193zM249.998 756c0 -20 7.83301 -35.668 23.5 -47.001s35.167 -17 58.5 -17c40.667 0 75 11.833 103 35.5s42 56.167 42 97.5v37c-20.667 -9.33301 -52 -18.166 -94 -26.499
s-74.667 -17.833 -98 -28.5s-35 -27.667 -35 -51zM673.998 181.999h-572v185h572v-185z" />
    <glyph glyph-name="guillemotleft" unicode="&#xab;" horiz-adv-x="1187" 
d="M553 113l-451 286v246l451 287v-225l-311 -185l311 -184v-225zM1085 113l-450 286v246l450 287v-225l-311 -185l311 -184v-225z" />
    <glyph glyph-name="logicalnot" unicode="&#xac;" 
d="M973 197h-172v342h-647v163h819v-505z" />
    <glyph glyph-name="registered" unicode="&#xae;" horiz-adv-x="1019" 
d="M510 610c-88 0 -168 21.5 -240 64.5s-127.833 100.5 -167.5 172.5s-59.5 150.667 -59.5 236c0 86.667 20 166 60 238s95.833 129.167 167.5 171.5s151.5 63.5 239.5 63.5s167.833 -21.167 239.5 -63.5s127.5 -99.5 167.5 -171.5s60 -151.333 60 -238
c0 -85.333 -19.833 -164 -59.5 -236s-95.5 -129.5 -167.5 -172.5s-152 -64.5 -240 -64.5zM510 1473c-107.333 0 -197 -37.833 -269 -113.5s-108 -167.834 -108 -276.501s36 -200.667 108 -276s161.667 -113 269 -113s197 37.667 269 113s108 167.333 108 276
s-36 200.834 -108 276.501s-161.667 113.5 -269 113.5zM319 838l0.000976562 491h213c53.333 0 96.166 -11.833 128.499 -35.5s48.5 -62.167 48.5 -115.5c0 -34 -9.66699 -63.5 -29 -88.5s-45.333 -43.5 -78 -55.5l135 -196h-155l-119 186h-21v-186h-123zM530.001 1221
l-88 0.000976562v-91h88c18 0 32.167 4.16699 42.5 12.5s15.5 20.166 15.5 35.499c0 28.667 -19.333 43 -58 43z" />
    <glyph glyph-name="macron" unicode="&#xaf;" horiz-adv-x="1024" 
d="M809 1413v-164h-573v164h573z" />
    <glyph glyph-name="degree" unicode="&#xb0;" horiz-adv-x="735" 
d="M369 1024c-76.667 0 -140.334 24.333 -191.001 73s-76 109.667 -76 183s25.333 134.333 76 183s114.334 73 191.001 73c76 0 139 -24.333 189 -73s75 -109.667 75 -183s-25 -134.333 -75 -183s-113 -73 -189 -73zM369 1167c31.333 0 57.5 10.667 78.5 32
s31.5 48.333 31.5 81s-10.5 59.667 -31.5 81s-47.167 32 -78.5 32c-32 0 -58.833 -10.667 -80.5 -32s-32.5 -48.333 -32.5 -81s10.833 -59.667 32.5 -81s48.5 -32 80.5 -32z" />
    <glyph glyph-name="plusminus" unicode="&#xb1;" 
d="M973 539h-324v-342h-172v342h-323v163h323v342h172v-342h324v-163zM154 0v164h819v-164h-819z" />
    <glyph glyph-name="twosuperior" unicode="&#xb2;" horiz-adv-x="647" 
d="M608 1100c0 -36.667 -9.33105 -71.8311 -27.998 -105.498s-42.334 -63.334 -71.001 -89.001s-57.834 -49.667 -87.501 -72s-57.667 -45 -84 -68s-44.5 -44.167 -54.5 -63.5h331v-165h-573v69c0 34 7 66.833 21 98.5s32.167 59.667 54.5 84s46.833 48 73.5 71
s53.5 44.5 80.5 64.5s51.667 39.167 74 57.5s40.5 37.333 54.5 57s21 38.834 21 57.501c0 25.333 -8.5 45.666 -25.5 60.999s-39.167 23 -66.5 23c-64.667 0 -97 -34.333 -97 -103v-26h-186v43c0 79.333 26.667 141.166 80 185.499s121 66.5 203 66.5
c80.667 0 147.5 -21.5 200.5 -64.5s79.5 -103.5 79.5 -181.5z" />
    <glyph glyph-name="threesuperior" unicode="&#xb3;" horiz-adv-x="706" 
d="M668 766c0 -77.333 -27.1689 -136.998 -81.502 -178.998s-126.833 -63 -217.5 -63c-95.333 0 -173.5 23.667 -234.5 71s-91.5 111.666 -91.5 192.999h190c0 -32 11.833 -57 35.5 -75s54.167 -27 91.5 -27c34 0 61.333 8.16699 82 24.5s31 38.166 31 65.499
c0 60 -39.667 90 -119 90h-82v156h82c30.667 0 54.834 7.16699 72.501 21.5s26.5 33.166 26.5 56.499c0 26 -9.5 45.833 -28.5 59.5s-44.5 20.5 -76.5 20.5s-57.333 -8.16699 -76 -24.5s-28 -39.833 -28 -70.5h-189c0 82.667 26.333 146.834 79 192.501
s125.334 68.5 218.001 68.5c88 0 159.167 -21.333 213.5 -64s81.5 -98.667 81.5 -168c0 -70.667 -31.333 -124.667 -94 -162c76.667 -40.667 115 -102.667 115 -186z" />
    <glyph glyph-name="acute" unicode="&#xb4;" horiz-adv-x="1024" 
d="M625 1229h-205l123 307h266z" />
    <glyph glyph-name="paragraph" unicode="&#xb6;" horiz-adv-x="1310" 
d="M143 1116c0 132 42.5 235 127.5 309s192.833 111 323.5 111h184v-2048h-184v1085c-130.667 0 -238.5 39 -323.5 117s-127.5 186 -127.5 324v102zM1167 -512h-184v2048h184v-2048z" />
    <glyph glyph-name="periodcentered" unicode="&#xb7;" horiz-adv-x="552" 
d="M276 379c-44 0 -80.5 14.667 -109.5 44s-43.5 65.666 -43.5 108.999c0 44 14.5 80.667 43.5 110s65.5 44 109.5 44c44.667 0 81.5 -14.667 110.5 -44s43.5 -66 43.5 -110c0 -43.333 -14.5 -79.666 -43.5 -108.999s-65.833 -44 -110.5 -44z" />
    <glyph glyph-name="cedilla" unicode="&#xb8;" horiz-adv-x="1024" 
d="M741 -307c0 -58.667 -21.334 -107.5 -64.001 -146.5s-97.667 -58.5 -165 -58.5s-122.333 16.167 -165 48.5s-64 72.166 -64 119.499h145c3.33301 -13.333 12.5 -24.166 27.5 -32.499s33.833 -12.5 56.5 -12.5c24.667 0 45.167 7.83301 61.5 23.5s24.5 35.167 24.5 58.5
s-8.16699 42.833 -24.5 58.5s-36.833 23.5 -61.5 23.5c-18 0 -33.667 -3.33301 -47 -10s-21.666 -13.667 -24.999 -21h-145l156 256h143l-70 -102h8c61.333 0 111.5 -20 150.5 -60s58.5 -88.333 58.5 -145z" />
    <glyph glyph-name="onesuperior" unicode="&#xb9;" horiz-adv-x="452" 
d="M178 1321v12h197v-796h-201v507h-151v156h43c40 0 68.667 9.33301 86 28s26 49.667 26 93z" />
    <glyph glyph-name="ordmasculine" unicode="&#xba;" horiz-adv-x="776" 
d="M389 549c-100.667 0 -183.834 32.333 -249.501 97s-98.5 147.667 -98.5 249c0 102.667 32.833 186 98.5 250s148.834 96 249.501 96c100 0 182.667 -32 248 -96s98 -147.333 98 -250c0 -101.333 -32.833 -184.333 -98.5 -249s-148.167 -97 -247.5 -97zM389 727
c44 0 80.333 15.5 109 46.5s43 71.5 43 121.5c0 50.667 -14.167 91.667 -42.5 123s-64.833 47 -109.5 47c-45.333 0 -82.166 -15.667 -110.499 -47s-42.5 -72.333 -42.5 -123c0 -50 14.167 -90.5 42.5 -121.5s65.166 -46.5 110.499 -46.5zM674 182h-572v185h572v-185z" />
    <glyph glyph-name="guillemotright" unicode="&#xbb;" horiz-adv-x="1187" 
d="M635 932l450 -287v-246l-450 -286v225l311 184l-311 185v225zM102 932l451 -287v-246l-451 -286v225l312 184l-312 185v225z" />
    <glyph glyph-name="onequarter" unicode="&#xbc;" horiz-adv-x="1650" 
d="M342 1524v12h197v-797h-201v508h-152v156h43c40 0 68.833 9.5 86.5 28.5s26.5 49.833 26.5 92.5zM221 0l1065 1536h144l-1065 -1536h-144zM899 303l244 494h301v-490h129v-160h-129v-147h-191v147h-354v156zM1077 307h176v363z" />
    <glyph glyph-name="onehalf" unicode="&#xbd;" horiz-adv-x="1650" 
d="M342 1524v12h197v-797h-201v508h-152v156h43c40 0 68.833 9.5 86.5 28.5s26.5 49.833 26.5 92.5zM221 0l1065 1536h144l-1065 -1536h-144zM1526 563c0 -36.667 -9.33301 -71.8271 -28 -105.494s-42.5 -63.334 -71.5 -89.001s-58.167 -49.5 -87.5 -71.5
s-57.333 -44.5 -84 -67.5s-45 -44.167 -55 -63.5h332v-166h-574v70c0 39.333 9.33301 77.166 28 113.499s42 67.5 70 93.5s58.5 52.333 91.5 79s63.5 50.167 91.5 70.5s51.333 42.166 70 65.499s28 45.666 28 66.999c0 25.333 -8.5 45.666 -25.5 60.999s-39.167 23 -66.5 23
c-64 0 -96 -34 -96 -102v-27h-186v43c0 79.333 26.5 141.166 79.5 185.499s120.5 66.5 202.5 66.5c80.667 0 147.667 -21.5 201 -64.5s80 -103.5 80 -181.5z" />
    <glyph glyph-name="threequarters" unicode="&#xbe;" horiz-adv-x="1650" 
d="M668 969c0 -77.333 -27.168 -136.998 -81.501 -178.998s-126.833 -63 -217.5 -63c-95.333 0 -173.5 23.667 -234.5 71s-91.5 111.666 -91.5 192.999h190c0 -32 11.833 -57 35.5 -75s54.167 -27 91.5 -27c34 0 61.333 8.16699 82 24.5s31 38.166 31 65.499
c0 60 -39.667 90 -119 90h-82v156h82c30.667 0 54.834 7.16699 72.501 21.5s26.5 33.166 26.5 56.499c0 26 -9.33301 45.667 -28 59s-44.334 20 -77.001 20s-58.167 -8 -76.5 -24s-27.5 -39.333 -27.5 -70h-189c0 82.667 26.333 146.667 79 192s125.334 68 218.001 68
c88 0 159.167 -21.167 213.5 -63.5s81.5 -98.166 81.5 -167.499c0 -70.667 -31.333 -124.667 -94 -162c76.667 -40.667 115 -102.667 115 -186zM220.999 0.00195312l1065 1536h144l-1065 -1536h-144zM898.999 303.002l244 494h301v-490h129v-160h-129v-147h-191v147h-354
v156zM1077 307.002h176v363z" />
    <glyph glyph-name="questiondown" unicode="&#xbf;" horiz-adv-x="1017" 
d="M504 1044c38.667 0 72.168 -14.333 100.501 -43s42.5 -62 42.5 -100c0 -39.333 -14.167 -73 -42.5 -101s-61.833 -42 -100.5 -42c-40 0 -74 14 -102 42s-42 61.667 -42 101c0 38.667 14.167 72.167 42.5 100.5s62.166 42.5 101.499 42.5zM51.001 -137
c0 56.667 11.335 108.335 34.002 155.002s50.167 86.167 82.5 118.5l97.5 94.5c32.667 30.667 61 65.5 85 104.5s37 80.833 39 125.5l2 51h225v-61c0 -40.667 -5.83301 -79.167 -17.5 -115.5s-26.834 -68.333 -45.501 -96s-39.5 -54.334 -62.5 -80.001l-68.5 -73
c-22.667 -23 -43.334 -45.833 -62.001 -68.5s-33.834 -47.167 -45.501 -73.5s-17.5 -53.5 -17.5 -81.5c0 -54.667 17.833 -96.667 53.5 -126s86.167 -44 151.5 -44s117.833 19.333 157.5 58s59.5 99.667 59.5 183v66h248v-88c0 -72.667 -12.667 -137.667 -38 -195
s-59.666 -103.833 -102.999 -139.5s-92.5 -62.834 -147.5 -81.501s-113.833 -28 -176.5 -28c-136 0 -245.167 34.667 -327.5 104s-123.5 166.333 -123.5 291z" />
    <glyph glyph-name="Agrave" unicode="&#xc0;" horiz-adv-x="1044" 
d="M428 1679l-184 308h266l123 -308h-205zM20 0l318 1536h369l317 -1536h-248l-67 348h-373l-68 -348h-248zM379 573h287l-144 740z" />
    <glyph glyph-name="Aacute" unicode="&#xc1;" horiz-adv-x="1044" 
d="M635 1679h-205l123 308h266zM20 0l318 1536h369l317 -1536h-248l-67 348h-373l-68 -348h-248zM379 573h287l-144 740z" />
    <glyph glyph-name="Acircumflex" unicode="&#xc2;" horiz-adv-x="1044" 
d="M387 1679h-205l205 308h266l205 -308h-205l-133 154zM20 0l318 1536h369l317 -1536h-248l-67 348h-373l-68 -348h-248zM379 573h287l-144 740z" />
    <glyph glyph-name="Atilde" unicode="&#xc3;" horiz-adv-x="1044" 
d="M174 1679v103c0 136.667 58.667 205 176 205c29.333 0 59.333 -5.83301 90 -17.5s56.834 -24.667 78.501 -39s44.334 -27.333 68.001 -39s43.834 -17.5 60.501 -17.5c40 0 60 23.333 60 70v43h163v-103c0 -136.667 -58.667 -205 -176 -205
c-29.333 0 -59.333 5.83301 -90 17.5s-56.834 24.667 -78.501 39s-44.334 27.333 -68.001 39s-43.834 17.5 -60.501 17.5c-39.333 0 -59 -23.333 -59 -70v-43h-164zM20 0l318 1536h369l317 -1536h-248l-67 348h-373l-68 -348h-248zM379 573h287l-144 740z" />
    <glyph glyph-name="Adieresis" unicode="&#xc4;" horiz-adv-x="1044" 
d="M317 1700c-36 0 -67.167 13.167 -93.5 39.5s-39.5 57.5 -39.5 93.5s13.167 67.167 39.5 93.5s57.5 39.5 93.5 39.5c36.667 0 68.167 -13.167 94.5 -39.5s39.5 -57.5 39.5 -93.5s-13.167 -67.167 -39.5 -93.5s-57.833 -39.5 -94.5 -39.5zM727 1700
c-36 0 -67.167 13.167 -93.5 39.5s-39.5 57.5 -39.5 93.5s13.167 67.167 39.5 93.5s57.5 39.5 93.5 39.5c36.667 0 68 -13.167 94 -39.5s39 -57.5 39 -93.5s-13 -67.167 -39 -93.5s-57.333 -39.5 -94 -39.5zM20 0l318 1536h369l317 -1536h-248l-67 348h-373l-68 -348h-248z
M379 573h287l-144 740z" />
    <glyph glyph-name="Aring" unicode="&#xc5;" horiz-adv-x="1044" 
d="M522 1618c-64 0 -116.166 18.5 -156.499 55.5s-60.5 83.167 -60.5 138.5c0 54 20.333 100 61 138s92.667 57 156 57c64 0 116.5 -19 157.5 -57s61.5 -84 61.5 -138c0 -55.333 -20.333 -101.5 -61 -138.5s-93.334 -55.5 -158.001 -55.5zM522.001 1741
c21.333 0 39.333 6.66602 54 19.999s22 30.333 22 51s-7.33301 37.834 -22 51.501s-32.667 20.5 -54 20.5c-20 0 -37.167 -7 -51.5 -21s-21.5 -31 -21.5 -51s7.16699 -36.833 21.5 -50.5s31.5 -20.5 51.5 -20.5zM20.001 -0.000976562l318 1536h369l317 -1536h-248l-67 348
h-373l-68 -348h-248zM379.001 572.999h287l-144 740z" />
    <glyph glyph-name="AE" unicode="&#xc6;" horiz-adv-x="1597" 
d="M1516 225v-225h-705v348h-410l-143 -348h-258l651 1536h865v-225h-459v-410h418v-225h-418v-451h459zM494 573h317v773z" />
    <glyph glyph-name="Ccedilla" unicode="&#xc7;" horiz-adv-x="1167" 
d="M813 -307c0 -58.667 -21.334 -107.502 -64.001 -146.502s-97.667 -58.5 -165 -58.5s-122.5 16.333 -165.5 49s-64.5 72.334 -64.5 119.001h146c3.33301 -13.333 12.5 -24.166 27.5 -32.499s33.833 -12.5 56.5 -12.5c24.667 0 45.167 7.83301 61.5 23.5
s24.5 35.167 24.5 58.5s-8.16699 42.833 -24.5 58.5s-36.833 23.5 -61.5 23.5c-18 0 -33.667 -3.33301 -47 -10s-21.666 -13.667 -24.999 -21h-145l145 240c-124 14 -219.833 65.333 -287.5 154s-101.5 213.334 -101.5 374.001v512c0 174.667 40.333 307 121 397
s194 135 340 135s259.167 -44.833 339.5 -134.5s120.5 -222.167 120.5 -397.5v-61h-245v61c0 110.667 -18 189.5 -54 236.5s-89.667 70.5 -161 70.5c-70.667 0 -124.167 -23.5 -160.5 -70.5s-54.5 -125.833 -54.5 -236.5v-512c0 -110.667 18 -189.5 54 -236.5
s89.667 -70.5 161 -70.5c70.667 0 124.167 23.5 160.5 70.5s54.5 125.833 54.5 236.5v82h245v-82c0 -160.667 -33.833 -285.334 -101.5 -374.001s-164.167 -140 -289.5 -154l-57 -86h8c61.333 0 111.5 -20 150.5 -60s58.5 -88.333 58.5 -145z" />
    <glyph glyph-name="Egrave" unicode="&#xc8;" horiz-adv-x="929" 
d="M412 1679l-185 308h267l122 -308h-204zM143 0v1536h705v-225h-459v-410h418v-225h-418v-451h459v-225h-705z" />
    <glyph glyph-name="Eacute" unicode="&#xc9;" horiz-adv-x="929" 
d="M618 1679h-204l123 308h266zM143 0v1536h705v-225h-459v-410h418v-225h-418v-451h459v-225h-705z" />
    <glyph glyph-name="Ecircumflex" unicode="&#xca;" horiz-adv-x="929" 
d="M371 1679h-205l205 308h266l205 -308h-205l-133 154zM143 0v1536h705v-225h-459v-410h418v-225h-418v-451h459v-225h-705z" />
    <glyph glyph-name="Edieresis" unicode="&#xcb;" horiz-adv-x="929" 
d="M301 1700c-36 0 -67.167 13.167 -93.5 39.5s-39.5 57.5 -39.5 93.5s13.167 67.167 39.5 93.5s57.5 39.5 93.5 39.5c36.667 0 68 -13.167 94 -39.5s39 -57.5 39 -93.5s-13 -67.167 -39 -93.5s-57.333 -39.5 -94 -39.5zM711 1700c-36 0 -67.167 13.167 -93.5 39.5
s-39.5 57.5 -39.5 93.5s13.167 67.167 39.5 93.5s57.5 39.5 93.5 39.5c36.667 0 68 -13.167 94 -39.5s39 -57.5 39 -93.5s-13 -67.167 -39 -93.5s-57.333 -39.5 -94 -39.5zM143 0v1536h705v-225h-459v-410h418v-225h-418v-451h459v-225h-705z" />
    <glyph glyph-name="Igrave" unicode="&#xcc;" horiz-adv-x="532" 
d="M172 1679l-184 308h266l123 -308h-205zM389 0h-246v1536h246v-1536z" />
    <glyph glyph-name="Iacute" unicode="&#xcd;" horiz-adv-x="532" 
d="M379 1679h-205l123 308h266zM389 0h-246v1536h246v-1536z" />
    <glyph glyph-name="Icircumflex" unicode="&#xce;" horiz-adv-x="532" 
d="M131 1679h-205l205 308h266l205 -308h-205l-133 154zM389 0h-246v1536h246v-1536z" />
    <glyph glyph-name="Idieresis" unicode="&#xcf;" horiz-adv-x="532" 
d="M61 1700c-36 0 -67.167 13.167 -93.5 39.5s-39.5 57.5 -39.5 93.5s13.167 67.167 39.5 93.5s57.5 39.5 93.5 39.5c36.667 0 68.167 -13.167 94.5 -39.5s39.5 -57.5 39.5 -93.5s-13.167 -67.167 -39.5 -93.5s-57.833 -39.5 -94.5 -39.5zM471 1700
c-36 0 -67.167 13.167 -93.5 39.5s-39.5 57.5 -39.5 93.5s13.167 67.167 39.5 93.5s57.5 39.5 93.5 39.5c36.667 0 68 -13.167 94 -39.5s39 -57.5 39 -93.5s-13 -67.167 -39 -93.5s-57.333 -39.5 -94 -39.5zM389 0h-246v1536h246v-1536z" />
    <glyph glyph-name="Eth" unicode="&#xd0;" horiz-adv-x="1167" 
d="M1044 512c0 -168 -40.167 -295.333 -120.5 -382s-193.5 -130 -339.5 -130h-441v707h-143v163h143v666h441c146 0 259.167 -43.333 339.5 -130s120.5 -214 120.5 -382v-512zM389 225h195c70 0 123.333 22.167 160 66.5s55 117.833 55 220.5v512
c0 103.333 -18.167 177 -54.5 221s-89.833 66 -160.5 66h-195v-441h205v-163h-205v-482z" />
    <glyph glyph-name="Ntilde" unicode="&#xd1;" horiz-adv-x="1208" 
d="M256 1679v103c0 136.667 58.667 205 176 205c29.333 0 59.333 -5.83301 90 -17.5s56.834 -24.667 78.501 -39s44.334 -27.333 68.001 -39s43.834 -17.5 60.501 -17.5c39.333 0 59 23.333 59 70v43h164v-103c0 -136.667 -58.667 -205 -176 -205
c-29.333 0 -59.333 5.83301 -90 17.5s-56.834 24.667 -78.501 39s-44.334 27.333 -68.001 39s-43.834 17.5 -60.501 17.5c-39.333 0 -59 -23.333 -59 -70v-43h-164zM1065 1536v-1536h-403l-293 1348v-1348h-226v1536h408l289 -1329v1329h225z" />
    <glyph glyph-name="Ograve" unicode="&#xd2;" horiz-adv-x="1167" 
d="M489 1679l-184 308h266l123 -308h-205zM584 -20c-146 0 -259.333 45 -340 135s-121 222.333 -121 397v512c0 174.667 40.333 307 121 397s194 135 340 135s259.167 -44.833 339.5 -134.5s120.5 -222.167 120.5 -397.5v-512c0 -175.333 -40.167 -307.833 -120.5 -397.5
s-193.5 -134.5 -339.5 -134.5zM584 205c70.667 0 124.167 23.5 160.5 70.5s54.5 125.833 54.5 236.5v512c0 110.667 -18 189.5 -54 236.5s-89.667 70.5 -161 70.5c-70.667 0 -124.167 -23.5 -160.5 -70.5s-54.5 -125.833 -54.5 -236.5v-512c0 -110.667 18 -189.5 54 -236.5
s89.667 -70.5 161 -70.5z" />
    <glyph glyph-name="Oacute" unicode="&#xd3;" horiz-adv-x="1167" 
d="M696 1679h-204l122 308h267zM584 -20c-146 0 -259.333 45 -340 135s-121 222.333 -121 397v512c0 174.667 40.333 307 121 397s194 135 340 135s259.167 -44.833 339.5 -134.5s120.5 -222.167 120.5 -397.5v-512c0 -175.333 -40.167 -307.833 -120.5 -397.5
s-193.5 -134.5 -339.5 -134.5zM584 205c70.667 0 124.167 23.5 160.5 70.5s54.5 125.833 54.5 236.5v512c0 110.667 -18 189.5 -54 236.5s-89.667 70.5 -161 70.5c-70.667 0 -124.167 -23.5 -160.5 -70.5s-54.5 -125.833 -54.5 -236.5v-512c0 -110.667 18 -189.5 54 -236.5
s89.667 -70.5 161 -70.5z" />
    <glyph glyph-name="Ocircumflex" unicode="&#xd4;" horiz-adv-x="1167" 
d="M449 1679h-205l205 308h266l205 -308h-205l-133 154zM584 -20c-146 0 -259.333 45 -340 135s-121 222.333 -121 397v512c0 174.667 40.333 307 121 397s194 135 340 135s259.167 -44.833 339.5 -134.5s120.5 -222.167 120.5 -397.5v-512
c0 -175.333 -40.167 -307.833 -120.5 -397.5s-193.5 -134.5 -339.5 -134.5zM584 205c70.667 0 124.167 23.5 160.5 70.5s54.5 125.833 54.5 236.5v512c0 110.667 -18 189.5 -54 236.5s-89.667 70.5 -161 70.5c-70.667 0 -124.167 -23.5 -160.5 -70.5
s-54.5 -125.833 -54.5 -236.5v-512c0 -110.667 18 -189.5 54 -236.5s89.667 -70.5 161 -70.5z" />
    <glyph glyph-name="Otilde" unicode="&#xd5;" horiz-adv-x="1167" 
d="M236 1679v103c0 136.667 58.667 205 176 205c29.333 0 59.333 -5.83301 90 -17.5s56.834 -24.667 78.501 -39s44.334 -27.333 68.001 -39s43.834 -17.5 60.501 -17.5c39.333 0 59 23.333 59 70v43h164v-103c0 -136.667 -58.667 -205 -176 -205
c-29.333 0 -59.333 5.83301 -90 17.5s-56.834 24.667 -78.501 39s-44.334 27.333 -68.001 39s-43.834 17.5 -60.501 17.5c-40 0 -60 -23.333 -60 -70v-43h-163zM584 -20c-146 0 -259.333 45 -340 135s-121 222.333 -121 397v512c0 174.667 40.333 307 121 397
s194 135 340 135s259.167 -44.833 339.5 -134.5s120.5 -222.167 120.5 -397.5v-512c0 -175.333 -40.167 -307.833 -120.5 -397.5s-193.5 -134.5 -339.5 -134.5zM584 205c70.667 0 124.167 23.5 160.5 70.5s54.5 125.833 54.5 236.5v512c0 110.667 -18 189.5 -54 236.5
s-89.667 70.5 -161 70.5c-70.667 0 -124.167 -23.5 -160.5 -70.5s-54.5 -125.833 -54.5 -236.5v-512c0 -110.667 18 -189.5 54 -236.5s89.667 -70.5 161 -70.5z" />
    <glyph glyph-name="Odieresis" unicode="&#xd6;" horiz-adv-x="1167" 
d="M379 1700c-36 0 -67.167 13.167 -93.5 39.5s-39.5 57.5 -39.5 93.5s13.167 67.167 39.5 93.5s57.5 39.5 93.5 39.5c36.667 0 68 -13.167 94 -39.5s39 -57.5 39 -93.5s-13 -67.167 -39 -93.5s-57.333 -39.5 -94 -39.5zM788 1700c-36 0 -67.167 13.167 -93.5 39.5
s-39.5 57.5 -39.5 93.5s13.167 67.167 39.5 93.5s57.5 39.5 93.5 39.5c36.667 0 68.167 -13.167 94.5 -39.5s39.5 -57.5 39.5 -93.5s-13.167 -67.167 -39.5 -93.5s-57.833 -39.5 -94.5 -39.5zM584 -20c-146 0 -259.333 45 -340 135s-121 222.333 -121 397v512
c0 174.667 40.333 307 121 397s194 135 340 135s259.167 -44.833 339.5 -134.5s120.5 -222.167 120.5 -397.5v-512c0 -175.333 -40.167 -307.833 -120.5 -397.5s-193.5 -134.5 -339.5 -134.5zM584 205c70.667 0 124.167 23.5 160.5 70.5s54.5 125.833 54.5 236.5v512
c0 110.667 -18 189.5 -54 236.5s-89.667 70.5 -161 70.5c-70.667 0 -124.167 -23.5 -160.5 -70.5s-54.5 -125.833 -54.5 -236.5v-512c0 -110.667 18 -189.5 54 -236.5s89.667 -70.5 161 -70.5z" />
    <glyph glyph-name="multiply" unicode="&#xd7;" 
d="M924 381l-121 -121l-242 242l-229 -230l-117 117l229 229l-241 242l121 121l241 -242l230 230l116 -117l-229 -229z" />
    <glyph glyph-name="Oslash" unicode="&#xd8;" horiz-adv-x="1167" 
d="M1044 512c0 -172 -39.5 -303.667 -118.5 -395s-182.833 -137 -311.5 -137c-118 0 -204 27 -258 81l-28 -61h-205l90 195c-60 69.333 -90 175 -90 317v512c0 172 39.5 303.667 118.5 395s182.833 137 311.5 137c118 0 204 -27 258 -81l29 61h204l-90 -195
c60 -69.333 90 -175 90 -317v-512zM369 1024l-0.000976562 -498l354 758c-35.333 31.333 -81.666 47 -138.999 47c-71.333 0 -125 -23.5 -161 -70.5s-54 -125.833 -54 -236.5zM798.999 512v498l-355 -758c35.333 -31.333 82 -47 140 -47c71.333 0 125 23.5 161 70.5
s54 125.833 54 236.5z" />
    <glyph glyph-name="Ugrave" unicode="&#xd9;" horiz-adv-x="1167" 
d="M489 1679l-184 308h266l123 -308h-205zM133 1536h245.998v-1055c0 -99.333 17.167 -170.166 51.5 -212.499s85.5 -63.5 153.5 -63.5c66.667 0 117.334 21.167 152.001 63.5s52 113.166 52 212.499v1055h246v-1055c0 -165.333 -39.167 -290.166 -117.5 -374.499
s-189.166 -126.5 -332.499 -126.5s-254.333 42.167 -333 126.5s-118 209.166 -118 374.499v1055z" />
    <glyph glyph-name="Uacute" unicode="&#xda;" horiz-adv-x="1167" 
d="M696 1679h-204l122 308h267zM133 1536h245.998v-1055c0 -99.333 17.167 -170.166 51.5 -212.499s85.5 -63.5 153.5 -63.5c66.667 0 117.334 21.167 152.001 63.5s52 113.166 52 212.499v1055h246v-1055c0 -165.333 -39.167 -290.166 -117.5 -374.499
s-189.166 -126.5 -332.499 -126.5s-254.333 42.167 -333 126.5s-118 209.166 -118 374.499v1055z" />
    <glyph glyph-name="Ucircumflex" unicode="&#xdb;" horiz-adv-x="1167" 
d="M449 1679h-205l205 308h266l205 -308h-205l-133 154zM133 1536h245.998v-1055c0 -99.333 17.167 -170.166 51.5 -212.499s85.5 -63.5 153.5 -63.5c66.667 0 117.334 21.167 152.001 63.5s52 113.166 52 212.499v1055h246v-1055
c0 -165.333 -39.167 -290.166 -117.5 -374.499s-189.166 -126.5 -332.499 -126.5s-254.333 42.167 -333 126.5s-118 209.166 -118 374.499v1055z" />
    <glyph glyph-name="Udieresis" unicode="&#xdc;" horiz-adv-x="1167" 
d="M379 1700c-36 0 -67.167 13.167 -93.5 39.5s-39.5 57.5 -39.5 93.5s13.167 67.167 39.5 93.5s57.5 39.5 93.5 39.5c36.667 0 68 -13.167 94 -39.5s39 -57.5 39 -93.5s-13 -67.167 -39 -93.5s-57.333 -39.5 -94 -39.5zM788 1700c-36 0 -67.167 13.167 -93.5 39.5
s-39.5 57.5 -39.5 93.5s13.167 67.167 39.5 93.5s57.5 39.5 93.5 39.5c36.667 0 68.167 -13.167 94.5 -39.5s39.5 -57.5 39.5 -93.5s-13.167 -67.167 -39.5 -93.5s-57.833 -39.5 -94.5 -39.5zM133 1536h245.998v-1055c0 -99.333 17.167 -170.166 51.5 -212.499
s85.5 -63.5 153.5 -63.5c66.667 0 117.334 21.167 152.001 63.5s52 113.166 52 212.499v1055h246v-1055c0 -165.333 -39.167 -290.166 -117.5 -374.499s-189.166 -126.5 -332.499 -126.5s-254.333 42.167 -333 126.5s-118 209.166 -118 374.499v1055z" />
    <glyph glyph-name="Yacute" unicode="&#xdd;" horiz-adv-x="983" 
d="M604 1679h-205l123 308h266zM614 614v-614h-245v614l-369 922h246l246 -651l245 651h246z" />
    <glyph glyph-name="Thorn" unicode="&#xde;" horiz-adv-x="1085" 
d="M592 348l-203.001 -0.000976562v-348h-246v1536h246v-225h203c130 0 234.5 -36.667 313.5 -110s118.5 -176.666 118.5 -309.999v-103c0 -139.333 -39.667 -247.5 -119 -324.5s-183.666 -115.5 -312.999 -115.5zM570.999 1085h-182v-512h182c138 0 207 78.667 207 236v61
c0 143.333 -69 215 -207 215z" />
    <glyph glyph-name="germandbls" unicode="&#xdf;" horiz-adv-x="1257" 
d="M451 1171v-1171h-246v809h-164v215h164v154c0 116.667 38.833 208.834 116.5 276.501s177.5 101.5 299.5 101.5c122.667 0 223.167 -33.833 301.5 -101.5s117.5 -159.834 117.5 -276.501c0 -92.667 -36.667 -166.667 -110 -222
c79.333 -42.667 141.833 -102.834 187.5 -180.501s68.5 -165.5 68.5 -263.5c0 -149.333 -50.5 -272 -151.5 -368s-228.167 -144 -381.5 -144h-43v215h43c82.667 0 151.167 27.5 205.5 82.5s81.5 126.5 81.5 214.5s-27.167 159.5 -81.5 214.5s-122.833 82.5 -205.5 82.5h-43
v215h13c54 0 96.167 12.667 126.5 38s45.5 61.666 45.5 108.999c0 51.333 -15.167 90.833 -45.5 118.5s-72.5 41.5 -126.5 41.5s-96.167 -13.833 -126.5 -41.5s-45.5 -67.167 -45.5 -118.5z" />
    <glyph glyph-name="agrave" unicode="&#xe0;" 
d="M477 1229l-184 307h266l123 -307h-205zM762 0v151.998c-62.667 -114.667 -171.334 -172 -326.001 -172c-61.333 0 -117.166 9.66699 -167.499 29s-92.333 51.833 -126 97.5s-50.5 101.5 -50.5 167.5c0 52.667 9.5 98.334 28.5 137.001s44.167 68.667 75.5 90
s67 39.5 107 54.5s80.667 25.5 122 31.5s82 12.667 122 20s75.667 14.5 107 21.5s56.5 18.5 75.5 34.5s28.5 36 28.5 60c0 38.667 -17.833 69.5 -53.5 92.5s-80.834 34.5 -135.501 34.5c-58 0 -104.167 -15 -138.5 -45s-51.5 -73 -51.5 -129h-256
c0 64 12.333 120.333 37 169s58.334 87.167 101.001 115.5s89.834 49.333 141.501 63s107.167 20.5 166.5 20.5c58.667 0 113.167 -6.16699 163.5 -18.5s96.166 -31.166 137.499 -56.499s74 -59.833 98 -103.5s36 -94.5 36 -152.5v-713h-242zM344 290.998
c0 -34.667 13.168 -61.1689 39.501 -79.502s60.833 -27.5 103.5 -27.5c76 0 140.833 21 194.5 63s80.5 100.333 80.5 175v47c-28 -12 -63 -22.5 -105 -31.5s-80 -16.667 -114 -23s-66.833 -14.166 -98.5 -23.499s-56.334 -22.166 -74.001 -38.499s-26.5 -36.833 -26.5 -61.5
z" />
    <glyph glyph-name="aacute" unicode="&#xe1;" 
d="M682 1229h-205l123 307h266zM762 0v151.998c-62.667 -114.667 -171.334 -172 -326.001 -172c-61.333 0 -117.166 9.66699 -167.499 29s-92.333 51.833 -126 97.5s-50.5 101.5 -50.5 167.5c0 52.667 9.5 98.334 28.5 137.001s44.167 68.667 75.5 90s67 39.5 107 54.5
s80.667 25.5 122 31.5s82 12.667 122 20s75.667 14.5 107 21.5s56.5 18.5 75.5 34.5s28.5 36 28.5 60c0 38.667 -17.833 69.5 -53.5 92.5s-80.834 34.5 -135.501 34.5c-58 0 -104.167 -15 -138.5 -45s-51.5 -73 -51.5 -129h-256c0 64 12.333 120.333 37 169
s58.334 87.167 101.001 115.5s89.834 49.333 141.501 63s107.167 20.5 166.5 20.5c58.667 0 113.167 -6.16699 163.5 -18.5s96.166 -31.166 137.499 -56.499s74 -59.833 98 -103.5s36 -94.5 36 -152.5v-713h-242zM344 290.998c0 -34.667 13.168 -61.1689 39.501 -79.502
s60.833 -27.5 103.5 -27.5c76 0 140.833 21 194.5 63s80.5 100.333 80.5 175v47c-28 -12 -63 -22.5 -105 -31.5s-80 -16.667 -114 -23s-66.833 -14.166 -98.5 -23.499s-56.334 -22.166 -74.001 -38.499s-26.5 -36.833 -26.5 -61.5z" />
    <glyph glyph-name="acircumflex" unicode="&#xe2;" 
d="M436 1229h-205l205 307h266l205 -307h-205l-133 153zM762 0v151.998c-62.667 -114.667 -171.334 -172 -326.001 -172c-61.333 0 -117.166 9.66699 -167.499 29s-92.333 51.833 -126 97.5s-50.5 101.5 -50.5 167.5c0 52.667 9.5 98.334 28.5 137.001
s44.167 68.667 75.5 90s67 39.5 107 54.5s80.667 25.5 122 31.5s82 12.667 122 20s75.667 14.5 107 21.5s56.5 18.5 75.5 34.5s28.5 36 28.5 60c0 38.667 -17.833 69.5 -53.5 92.5s-80.834 34.5 -135.501 34.5c-58 0 -104.167 -15 -138.5 -45s-51.5 -73 -51.5 -129h-256
c0 64 12.333 120.333 37 169s58.334 87.167 101.001 115.5s89.834 49.333 141.501 63s107.167 20.5 166.5 20.5c58.667 0 113.167 -6.16699 163.5 -18.5s96.166 -31.166 137.499 -56.499s74 -59.833 98 -103.5s36 -94.5 36 -152.5v-713h-242zM344 290.998
c0 -34.667 13.168 -61.1689 39.501 -79.502s60.833 -27.5 103.5 -27.5c76 0 140.833 21 194.5 63s80.5 100.333 80.5 175v47c-28 -12 -63 -22.5 -105 -31.5s-80 -16.667 -114 -23s-66.833 -14.166 -98.5 -23.499s-56.334 -22.166 -74.001 -38.499s-26.5 -36.833 -26.5 -61.5
z" />
    <glyph glyph-name="atilde" unicode="&#xe3;" 
d="M221 1229l-0.00195312 101.999c0 136.667 58.667 205 176 205c29.333 0 59.333 -5.83301 90 -17.5s56.834 -24.667 78.501 -39s44.334 -27.333 68.001 -39s43.834 -17.5 60.501 -17.5c40 0 60 23.333 60 70v43h164v-102c0 -136.667 -59 -205 -177 -205
c-36.667 0 -74.334 9.33301 -113.001 28s-74 37.334 -106 56.001s-58 28 -78 28c-39.333 0 -59 -23 -59 -69v-43h-164zM761.998 -0.000976562v151.998c-62.667 -114.667 -171.334 -172 -326.001 -172c-61.333 0 -117.166 9.66699 -167.499 29s-92.333 51.833 -126 97.5
s-50.5 101.5 -50.5 167.5c0 52.667 9.5 98.334 28.5 137.001s44.167 68.667 75.5 90s67 39.5 107 54.5s80.667 25.5 122 31.5s82 12.667 122 20s75.667 14.5 107 21.5s56.5 18.5 75.5 34.5s28.5 36 28.5 60c0 38.667 -17.833 69.5 -53.5 92.5s-80.834 34.5 -135.501 34.5
c-58 0 -104.167 -15 -138.5 -45s-51.5 -73 -51.5 -129h-256c0 64 12.333 120.333 37 169s58.334 87.167 101.001 115.5s89.834 49.333 141.501 63s107.167 20.5 166.5 20.5c58.667 0 113.167 -6.16699 163.5 -18.5s96.166 -31.166 137.499 -56.499s74 -59.833 98 -103.5
s36 -94.5 36 -152.5v-713h-242zM343.998 290.997c0 -34.667 13.168 -61.1689 39.501 -79.502s60.833 -27.5 103.5 -27.5c76 0 140.833 21 194.5 63s80.5 100.333 80.5 175v47c-28 -12 -63 -22.5 -105 -31.5s-80 -16.667 -114 -23s-66.833 -14.166 -98.5 -23.499
s-56.334 -22.166 -74.001 -38.499s-26.5 -36.833 -26.5 -61.5z" />
    <glyph glyph-name="adieresis" unicode="&#xe4;" 
d="M365 1249c-36 0 -67.333 13.167 -94 39.5s-40 57.5 -40 93.5s13.333 67.333 40 94s58 40 94 40c36.667 0 68 -13.333 94 -40s39 -58 39 -94s-13 -67.167 -39 -93.5s-57.333 -39.5 -94 -39.5zM774 1249c-36 0 -67.167 13.167 -93.5 39.5s-39.5 57.5 -39.5 93.5
s13.167 67.333 39.5 94s57.5 40 93.5 40c36.667 0 68 -13.333 94 -40s39 -58 39 -94s-13 -67.167 -39 -93.5s-57.333 -39.5 -94 -39.5zM762 0v151.998c-62.667 -114.667 -171.334 -172 -326.001 -172c-61.333 0 -117.166 9.66699 -167.499 29s-92.333 51.833 -126 97.5
s-50.5 101.5 -50.5 167.5c0 52.667 9.5 98.334 28.5 137.001s44.167 68.667 75.5 90s67 39.5 107 54.5s80.667 25.5 122 31.5s82 12.667 122 20s75.667 14.5 107 21.5s56.5 18.5 75.5 34.5s28.5 36 28.5 60c0 38.667 -17.833 69.5 -53.5 92.5s-80.834 34.5 -135.501 34.5
c-58 0 -104.167 -15 -138.5 -45s-51.5 -73 -51.5 -129h-256c0 64 12.333 120.333 37 169s58.334 87.167 101.001 115.5s89.834 49.333 141.501 63s107.167 20.5 166.5 20.5c58.667 0 113.167 -6.16699 163.5 -18.5s96.166 -31.166 137.499 -56.499s74 -59.833 98 -103.5
s36 -94.5 36 -152.5v-713h-242zM344 290.998c0 -34.667 13.168 -61.1689 39.501 -79.502s60.833 -27.5 103.5 -27.5c76 0 140.833 21 194.5 63s80.5 100.333 80.5 175v47c-28 -12 -63 -22.5 -105 -31.5s-80 -16.667 -114 -23s-66.833 -14.166 -98.5 -23.499
s-56.334 -22.166 -74.001 -38.499s-26.5 -36.833 -26.5 -61.5z" />
    <glyph glyph-name="aring" unicode="&#xe5;" 
d="M569 1167c-63.333 0 -115.332 18.667 -155.999 56s-61 83.666 -61 138.999c0 54 20.333 99.833 61 137.5s92.667 56.5 156 56.5c64 0 116.5 -18.833 157.5 -56.5s61.5 -83.5 61.5 -137.5c0 -55.333 -20.333 -101.666 -61 -138.999s-93.334 -56 -158.001 -56z
M569.001 1290c21.333 0 39.333 6.83105 54 20.498s22 30.834 22 51.501s-7.33301 37.834 -22 51.501s-32.667 20.5 -54 20.5c-20 0 -37.167 -7 -51.5 -21s-21.5 -31 -21.5 -51s7.16699 -37 21.5 -51s31.5 -21 51.5 -21zM762.001 -0.00195312v151.998
c-62.667 -114.667 -171.334 -172 -326.001 -172c-61.333 0 -117.166 9.66699 -167.499 29s-92.333 51.833 -126 97.5s-50.5 101.5 -50.5 167.5c0 52.667 9.5 98.334 28.5 137.001s44.167 68.667 75.5 90s67 39.5 107 54.5s80.667 25.5 122 31.5s82 12.667 122 20
s75.667 14.5 107 21.5s56.5 18.5 75.5 34.5s28.5 36 28.5 60c0 38.667 -17.833 69.5 -53.5 92.5s-80.834 34.5 -135.501 34.5c-58 0 -104.167 -15 -138.5 -45s-51.5 -73 -51.5 -129h-256c0 64 12.333 120.333 37 169s58.334 87.167 101.001 115.5s89.834 49.333 141.501 63
s107.167 20.5 166.5 20.5c58.667 0 113.167 -6.16699 163.5 -18.5s96.166 -31.166 137.499 -56.499s74 -59.833 98 -103.5s36 -94.5 36 -152.5v-713h-242zM344.001 290.996c0 -34.667 13.168 -61.1689 39.501 -79.502s60.833 -27.5 103.5 -27.5c76 0 140.833 21 194.5 63
s80.5 100.333 80.5 175v47c-28 -12 -63 -22.5 -105 -31.5s-80 -16.667 -114 -23s-66.833 -14.166 -98.5 -23.499s-56.334 -22.166 -74.001 -38.499s-26.5 -36.833 -26.5 -61.5z" />
    <glyph glyph-name="ae" unicode="&#xe6;" horiz-adv-x="1855" 
d="M1784 512c0 -18.667 -1.3291 -46.0029 -3.99609 -82.0029h-770c13.333 -75.333 43.833 -133.333 91.5 -174s109.167 -61 184.5 -61c102.667 0 171 37.333 205 112h266c-30 -105.333 -87.167 -186.166 -171.5 -242.499s-187.5 -84.5 -309.5 -84.5
c-88 0 -168 18.667 -240 56s-130.667 89.666 -176 156.999c-65.333 -142 -196.333 -213 -393 -213c-50 0 -96.833 5.83301 -140.5 17.5s-83.334 28.834 -119.001 51.501s-63.834 53.334 -84.501 92.001s-31 83 -31 133c0 52.667 9.5 98.334 28.5 137.001
s44.167 68.667 75.5 90s67 39.5 107 54.5s80.667 25.5 122 31.5s82 12.667 122 20s75.667 14.5 107 21.5s56.5 18.5 75.5 34.5s28.5 36 28.5 60c0 38.667 -17.833 69.5 -53.5 92.5s-80.834 34.5 -135.501 34.5c-58 0 -104.167 -15 -138.5 -45s-51.5 -73 -51.5 -129h-256
c0 51.333 7.83301 98 23.5 140s36.834 77 63.501 105s58.334 51.333 95.001 70s75.167 32.167 115.5 40.5s83.166 12.5 128.499 12.5c79.333 0 150.666 -12.167 213.999 -36.5s112.666 -61.833 147.999 -112.5c95.333 99.333 217 149 365 149
c147.333 0 268.833 -49.667 364.5 -149s143.5 -227 143.5 -383zM1276 828.997c-71.333 0 -129.833 -19.5 -175.5 -58.5s-75.167 -94.5 -88.5 -166.5h528c-13.333 72 -42.833 127.5 -88.5 166.5s-104.167 58.5 -175.5 58.5zM344.004 290.997
c0 -34.667 13.168 -61.1689 39.501 -79.502s60.833 -27.5 103.5 -27.5c76 0 140.833 21 194.5 63s80.5 100.333 80.5 175v47c-28 -12 -63 -22.5 -105 -31.5s-80 -16.667 -114 -23s-66.833 -14.166 -98.5 -23.499s-56.334 -22.166 -74.001 -38.499s-26.5 -36.833 -26.5 -61.5
z" />
    <glyph glyph-name="ccedilla" unicode="&#xe7;" horiz-adv-x="1171" 
d="M815 -307c0 -58.667 -21.3301 -107.503 -63.9971 -146.503s-97.667 -58.5 -165 -58.5s-122.5 16.333 -165.5 49s-64.5 72.334 -64.5 119.001h146c3.33301 -13.333 12.5 -24.166 27.5 -32.499s33.833 -12.5 56.5 -12.5c24.667 0 45.167 7.83301 61.5 23.5
s24.5 35.167 24.5 58.5s-8.16699 42.833 -24.5 58.5s-36.833 23.5 -61.5 23.5c-18 0 -33.667 -3.33301 -47 -10s-21.666 -13.667 -24.999 -21h-145l145 240c-130 16.667 -236.167 73.334 -318.5 170.001s-123.5 216 -123.5 358c0 155.333 48.5 282.833 145.5 382.5
s219.833 149.5 368.5 149.5c138.667 0 255.5 -39.5 350.5 -118.5s148.833 -182.167 161.5 -309.5h-258c-8 65.333 -35.5 115.5 -82.5 150.5s-104.167 52.5 -171.5 52.5c-78 0 -142.333 -28.333 -193 -85s-76 -130.667 -76 -222s25.333 -165.333 76 -222s115 -85 193 -85
c67.333 0 125.166 19.5 173.499 58.5s77.166 94.5 86.499 166.5h254c-4.66699 -122 -48.334 -223.333 -131.001 -304s-187.334 -128 -314.001 -142l-57 -86h8c61.333 0 111.5 -20 150.5 -60s58.5 -88.333 58.5 -145z" />
    <glyph glyph-name="egrave" unicode="&#xe8;" horiz-adv-x="1159" 
d="M487 1229l-184 307h266l123 -307h-205zM1087 512c0 -18.667 -1.33203 -46.001 -3.99902 -82.001h-770c13.333 -75.333 43.833 -133.333 91.5 -174s109.5 -61 185.5 -61c102.667 0 171 37.333 205 112h266c-30 -105.333 -87.167 -186.166 -171.5 -242.499
s-187.5 -84.5 -309.5 -84.5c-147.333 0 -268.833 49.667 -364.5 149s-143.5 227 -143.5 383s47.833 283.667 143.5 383s217.167 149 364.5 149s268.666 -49.667 363.999 -149s143 -227 143 -383zM580.001 828.999c-71.333 0 -130 -19.5 -176 -58.5s-75.667 -94.5 -89 -166.5
h529c-13.333 72 -42.833 127.5 -88.5 166.5s-104.167 58.5 -175.5 58.5z" />
    <glyph glyph-name="eacute" unicode="&#xe9;" horiz-adv-x="1159" 
d="M692 1229h-205l123 307h267zM1087 512c0 -18.667 -1.33203 -46.001 -3.99902 -82.001h-770c13.333 -75.333 43.833 -133.333 91.5 -174s109.5 -61 185.5 -61c102.667 0 171 37.333 205 112h266c-30 -105.333 -87.167 -186.166 -171.5 -242.499s-187.5 -84.5 -309.5 -84.5
c-147.333 0 -268.833 49.667 -364.5 149s-143.5 227 -143.5 383s47.833 283.667 143.5 383s217.167 149 364.5 149s268.666 -49.667 363.999 -149s143 -227 143 -383zM580.001 828.999c-71.333 0 -130 -19.5 -176 -58.5s-75.667 -94.5 -89 -166.5h529
c-13.333 72 -42.833 127.5 -88.5 166.5s-104.167 58.5 -175.5 58.5z" />
    <glyph glyph-name="ecircumflex" unicode="&#xea;" horiz-adv-x="1159" 
d="M446 1229h-204l204 307h267l205 -307h-205l-133 153zM1087 512c0 -18.667 -1.33203 -46.001 -3.99902 -82.001h-770c13.333 -75.333 43.833 -133.333 91.5 -174s109.5 -61 185.5 -61c102.667 0 171 37.333 205 112h266c-30 -105.333 -87.167 -186.166 -171.5 -242.499
s-187.5 -84.5 -309.5 -84.5c-147.333 0 -268.833 49.667 -364.5 149s-143.5 227 -143.5 383s47.833 283.667 143.5 383s217.167 149 364.5 149s268.666 -49.667 363.999 -149s143 -227 143 -383zM580.001 828.999c-71.333 0 -130 -19.5 -176 -58.5s-75.667 -94.5 -89 -166.5
h529c-13.333 72 -42.833 127.5 -88.5 166.5s-104.167 58.5 -175.5 58.5z" />
    <glyph glyph-name="edieresis" unicode="&#xeb;" horiz-adv-x="1159" 
d="M375 1249c-36 0 -67.167 13.167 -93.5 39.5s-39.5 57.5 -39.5 93.5s13.167 67.333 39.5 94s57.5 40 93.5 40c36.667 0 68 -13.333 94 -40s39 -58 39 -94s-13 -67.167 -39 -93.5s-57.333 -39.5 -94 -39.5zM784 1249c-36 0 -67.167 13.167 -93.5 39.5
s-39.5 57.5 -39.5 93.5s13.167 67.333 39.5 94s57.5 40 93.5 40c36.667 0 68.167 -13.333 94.5 -40s39.5 -58 39.5 -94s-13.167 -67.167 -39.5 -93.5s-57.833 -39.5 -94.5 -39.5zM1087 512c0 -18.667 -1.33203 -46.001 -3.99902 -82.001h-770
c13.333 -75.333 43.833 -133.333 91.5 -174s109.5 -61 185.5 -61c102.667 0 171 37.333 205 112h266c-30 -105.333 -87.167 -186.166 -171.5 -242.499s-187.5 -84.5 -309.5 -84.5c-147.333 0 -268.833 49.667 -364.5 149s-143.5 227 -143.5 383s47.833 283.667 143.5 383
s217.167 149 364.5 149s268.666 -49.667 363.999 -149s143 -227 143 -383zM580.001 828.999c-71.333 0 -130 -19.5 -176 -58.5s-75.667 -94.5 -89 -166.5h529c-13.333 72 -42.833 127.5 -88.5 166.5s-104.167 58.5 -175.5 58.5z" />
    <glyph glyph-name="igrave" unicode="&#xec;" horiz-adv-x="532" 
d="M174 1229l-184 307h266l123 -307h-205zM389 0h-246v1024h246v-1024z" />
    <glyph glyph-name="iacute" unicode="&#xed;" horiz-adv-x="532" 
d="M379 1229h-205l123 307h266zM389 0h-246v1024h246v-1024z" />
    <glyph glyph-name="icircumflex" unicode="&#xee;" horiz-adv-x="532" 
d="M133 1229h-205l205 307h266l205 -307h-205l-133 153zM389 0h-246v1024h246v-1024z" />
    <glyph glyph-name="idieresis" unicode="&#xef;" horiz-adv-x="532" 
d="M61 1249c-36 0 -67.167 13.167 -93.5 39.5s-39.5 57.5 -39.5 93.5s13.167 67.333 39.5 94s57.5 40 93.5 40c36.667 0 68.167 -13.333 94.5 -40s39.5 -58 39.5 -94s-13.167 -67.167 -39.5 -93.5s-57.833 -39.5 -94.5 -39.5zM471 1249c-36 0 -67.167 13.167 -93.5 39.5
s-39.5 57.5 -39.5 93.5s13.167 67.333 39.5 94s57.5 40 93.5 40c36.667 0 68 -13.333 94 -40s39 -58 39 -94s-13 -67.167 -39 -93.5s-57.333 -39.5 -94 -39.5zM389 0h-246v1024h246v-1024z" />
    <glyph glyph-name="eth" unicode="&#xf0;" horiz-adv-x="1177" 
d="M1096 670c0 -99.333 -9.00195 -188.166 -27.002 -266.499s-42.5 -143.666 -73.5 -195.999s-68.833 -95.833 -113.5 -130.5s-92.5 -59.5 -143.5 -74.5s-106.167 -22.5 -165.5 -22.5c-145.333 0 -265.166 45.833 -359.499 137.5s-141.5 209.5 -141.5 353.5
c0 145.333 44 263.666 132 354.999s203.667 137 347 137c115.333 0 208 -41 278 -123c-14 143.333 -50.667 252.333 -110 327l-135 -125h-246l250 232c-56 24.667 -121.667 37 -197 37c-37.333 0 -75.666 -3.66699 -114.999 -11v224c48.667 8 98 12 148 12
c128 0 242.667 -32 344 -96l102 96h246l-223 -207c135.333 -152.667 203 -372.334 203 -659.001zM572.998 205c74 0 135.167 24.5 183.5 73.5s72.5 113.167 72.5 192.5s-24.167 143.5 -72.5 192.5s-109.5 73.5 -183.5 73.5s-135.167 -24.5 -183.5 -73.5
s-72.5 -113.167 -72.5 -192.5s24.167 -143.5 72.5 -192.5s109.5 -73.5 183.5 -73.5z" />
    <glyph glyph-name="ntilde" unicode="&#xf1;" horiz-adv-x="1198" 
d="M256 1229l-0.00195312 101.999c0 136.667 58.667 205 176 205c29.333 0 59.333 -5.83301 90 -17.5s56.834 -24.667 78.501 -39s44.334 -27.333 68.001 -39s43.834 -17.5 60.501 -17.5c39.333 0 59 23.333 59 70v43h164v-102c0 -136.667 -58.667 -205 -176 -205
c-36.667 0 -74.334 9.33301 -113.001 28s-74 37.334 -106 56.001s-58 28 -78 28c-39.333 0 -59 -23 -59 -69v-43h-164zM388.998 562.999l0.000976562 -563.001h-246v1024h246v-147c31.333 54 72.333 95.333 123 124s108 43 172 43c113.333 0 205.166 -37.167 275.499 -111.5
s105.5 -181.166 105.5 -320.499v-612h-246v563c0 85.333 -19 151 -57 197s-90.667 69 -158 69s-120 -23 -158 -69s-57 -111.667 -57 -197z" />
    <glyph glyph-name="ograve" unicode="&#xf2;" horiz-adv-x="1187" 
d="M502 1229l-185 307h267l123 -307h-205zM594 -20c-150.667 0 -275.334 49.833 -374.001 149.5s-148 227.167 -148 382.5s49.333 282.833 148 382.5s223.334 149.5 374.001 149.5s275.334 -49.833 374.001 -149.5s148 -227.167 148 -382.5s-49.333 -282.833 -148 -382.5
s-223.334 -149.5 -374.001 -149.5zM594 205c80 0 146 28.333 198 85s78 130.667 78 222s-26 165.333 -78 222s-118 85 -198 85s-146.167 -28.5 -198.5 -85.5s-78.5 -130.833 -78.5 -221.5s26.167 -164.5 78.5 -221.5s118.5 -85.5 198.5 -85.5z" />
    <glyph glyph-name="oacute" unicode="&#xf3;" horiz-adv-x="1187" 
d="M707 1229h-205l123 307h266zM594 -20c-150.667 0 -275.334 49.833 -374.001 149.5s-148 227.167 -148 382.5s49.333 282.833 148 382.5s223.334 149.5 374.001 149.5s275.334 -49.833 374.001 -149.5s148 -227.167 148 -382.5s-49.333 -282.833 -148 -382.5
s-223.334 -149.5 -374.001 -149.5zM594 205c80 0 146 28.333 198 85s78 130.667 78 222s-26 165.333 -78 222s-118 85 -198 85s-146.167 -28.5 -198.5 -85.5s-78.5 -130.833 -78.5 -221.5s26.167 -164.5 78.5 -221.5s118.5 -85.5 198.5 -85.5z" />
    <glyph glyph-name="ocircumflex" unicode="&#xf4;" horiz-adv-x="1187" 
d="M461 1229h-205l205 307h266l205 -307h-205l-133 153zM594 -20c-150.667 0 -275.334 49.833 -374.001 149.5s-148 227.167 -148 382.5s49.333 282.833 148 382.5s223.334 149.5 374.001 149.5s275.334 -49.833 374.001 -149.5s148 -227.167 148 -382.5
s-49.333 -282.833 -148 -382.5s-223.334 -149.5 -374.001 -149.5zM594 205c80 0 146 28.333 198 85s78 130.667 78 222s-26 165.333 -78 222s-118 85 -198 85s-146.167 -28.5 -198.5 -85.5s-78.5 -130.833 -78.5 -221.5s26.167 -164.5 78.5 -221.5s118.5 -85.5 198.5 -85.5z
" />
    <glyph glyph-name="otilde" unicode="&#xf5;" horiz-adv-x="1187" 
d="M246 1229l-0.00195312 101.999c0 136.667 58.667 205 176 205c29.333 0 59.333 -5.83301 90 -17.5s56.834 -24.667 78.501 -39s44.334 -27.333 68.001 -39s43.834 -17.5 60.501 -17.5c39.333 0 59 23.333 59 70v43h164v-102c0 -136.667 -58.667 -205 -176 -205
c-36.667 0 -74.334 9.33301 -113.001 28s-74 37.334 -106 56.001s-58 28 -78 28c-39.333 0 -59 -23 -59 -69v-43h-164zM593.998 -20.001c-150.667 0 -275.334 49.833 -374.001 149.5s-148 227.167 -148 382.5s49.333 282.833 148 382.5s223.334 149.5 374.001 149.5
s275.334 -49.833 374.001 -149.5s148 -227.167 148 -382.5s-49.333 -282.833 -148 -382.5s-223.334 -149.5 -374.001 -149.5zM593.998 204.999c80 0 146 28.333 198 85s78 130.667 78 222s-26 165.333 -78 222s-118 85 -198 85s-146.167 -28.5 -198.5 -85.5
s-78.5 -130.833 -78.5 -221.5s26.167 -164.5 78.5 -221.5s118.5 -85.5 198.5 -85.5z" />
    <glyph glyph-name="odieresis" unicode="&#xf6;" horiz-adv-x="1187" 
d="M389 1249c-36 0 -67.167 13.167 -93.5 39.5s-39.5 57.5 -39.5 93.5s13.167 67.333 39.5 94s57.5 40 93.5 40c36.667 0 68 -13.333 94 -40s39 -58 39 -94s-13 -67.167 -39 -93.5s-57.333 -39.5 -94 -39.5zM799 1249c-36 0 -67.167 13.167 -93.5 39.5
s-39.5 57.5 -39.5 93.5s13.167 67.333 39.5 94s57.5 40 93.5 40c36.667 0 68 -13.333 94 -40s39 -58 39 -94s-13 -67.167 -39 -93.5s-57.333 -39.5 -94 -39.5zM594 -20c-150.667 0 -275.334 49.833 -374.001 149.5s-148 227.167 -148 382.5s49.333 282.833 148 382.5
s223.334 149.5 374.001 149.5s275.334 -49.833 374.001 -149.5s148 -227.167 148 -382.5s-49.333 -282.833 -148 -382.5s-223.334 -149.5 -374.001 -149.5zM594 205c80 0 146 28.333 198 85s78 130.667 78 222s-26 165.333 -78 222s-118 85 -198 85
s-146.167 -28.5 -198.5 -85.5s-78.5 -130.833 -78.5 -221.5s26.167 -164.5 78.5 -221.5s118.5 -85.5 198.5 -85.5z" />
    <glyph glyph-name="divide" unicode="&#xf7;" 
d="M442 942c0 33.333 12.165 62.167 36.498 86.5s52.5 36.5 84.5 36.5c34.667 0 63.834 -12 87.501 -36s35.5 -53 35.5 -87s-11.667 -62.333 -35 -85s-52.666 -34 -87.999 -34c-32 0 -60.167 11.5 -84.5 34.5s-36.5 51.167 -36.5 84.5zM153.998 539.001v163h819v-163h-819z
M441.998 295.001c0 33.333 12.165 62.167 36.498 86.5s52.5 36.5 84.5 36.5c34.667 0 63.834 -12 87.501 -36s35.5 -53 35.5 -87s-11.667 -62.333 -35 -85s-52.666 -34 -87.999 -34c-32 0 -60.167 11.5 -84.5 34.5s-36.5 51.167 -36.5 84.5z" />
    <glyph glyph-name="oslash" unicode="&#xf8;" horiz-adv-x="1187" 
d="M1116 512c0 -155.333 -49.333 -282.833 -148 -382.5s-223.334 -149.5 -374.001 -149.5c-89.333 0 -172 19 -248 57l-29 -37h-245l123 158c-82 94.667 -123 212.667 -123 354c0 155.333 49.333 282.833 148 382.5s223.334 149.5 374.001 149.5c89.333 0 172 -19 248 -57
l28 37h246l-123 -158c82 -94.667 123 -212.667 123 -354zM317 512c0 -55.333 11 -106.667 33 -154l346 443c-30.667 12 -64.667 18 -102 18c-80 0 -146.167 -28.5 -198.5 -85.5s-78.5 -130.833 -78.5 -221.5zM870 511.999c0 56.667 -10.667 108 -32 154l-346 -443
c30.667 -12 64.667 -18 102 -18c80 0 146 28.333 198 85s78 130.667 78 222z" />
    <glyph glyph-name="ugrave" unicode="&#xf9;" horiz-adv-x="1187" 
d="M492 1229l-185 307h266l123 -307h-204zM799 0v145.002c-30.667 -52.667 -71 -93.334 -121 -122.001s-106 -43 -168 -43c-112 0 -202.833 37.167 -272.5 111.5s-104.5 181.166 -104.5 320.499v612h246v-563c0 -85.333 18.667 -151 56 -197s89 -69 155 -69
c65.333 0 116.5 23 153.5 69s55.5 111.667 55.5 197v563h245v-1024h-245z" />
    <glyph glyph-name="uacute" unicode="&#xfa;" horiz-adv-x="1187" 
d="M696 1229h-204l122 307h267zM799 0v145.002c-30.667 -52.667 -71 -93.334 -121 -122.001s-106 -43 -168 -43c-112 0 -202.833 37.167 -272.5 111.5s-104.5 181.166 -104.5 320.499v612h246v-563c0 -85.333 18.667 -151 56 -197s89 -69 155 -69
c65.333 0 116.5 23 153.5 69s55.5 111.667 55.5 197v563h245v-1024h-245z" />
    <glyph glyph-name="ucircumflex" unicode="&#xfb;" horiz-adv-x="1187" 
d="M451 1229h-205l205 307h266l205 -307h-205l-133 153zM799 0v145.002c-30.667 -52.667 -71 -93.334 -121 -122.001s-106 -43 -168 -43c-112 0 -202.833 37.167 -272.5 111.5s-104.5 181.166 -104.5 320.499v612h246v-563c0 -85.333 18.667 -151 56 -197s89 -69 155 -69
c65.333 0 116.5 23 153.5 69s55.5 111.667 55.5 197v563h245v-1024h-245z" />
    <glyph glyph-name="udieresis" unicode="&#xfc;" horiz-adv-x="1187" 
d="M379 1249c-36 0 -67.167 13.167 -93.5 39.5s-39.5 57.5 -39.5 93.5s13.167 67.333 39.5 94s57.5 40 93.5 40c36.667 0 68 -13.333 94 -40s39 -58 39 -94s-13 -67.167 -39 -93.5s-57.333 -39.5 -94 -39.5zM788 1249c-36 0 -67.167 13.167 -93.5 39.5
s-39.5 57.5 -39.5 93.5s13.167 67.333 39.5 94s57.5 40 93.5 40c36.667 0 68.167 -13.333 94.5 -40s39.5 -58 39.5 -94s-13.167 -67.167 -39.5 -93.5s-57.833 -39.5 -94.5 -39.5zM799 0v145.002c-30.667 -52.667 -71 -93.334 -121 -122.001s-106 -43 -168 -43
c-112 0 -202.833 37.167 -272.5 111.5s-104.5 181.166 -104.5 320.499v612h246v-563c0 -85.333 18.667 -151 56 -197s89 -69 155 -69c65.333 0 116.5 23 153.5 69s55.5 111.667 55.5 197v563h245v-1024h-245z" />
    <glyph glyph-name="yacute" unicode="&#xfd;" horiz-adv-x="1026" 
d="M647 1229h-205l123 307h266zM629 -106c-23.333 -68 -47.3311 -126 -71.998 -174s-54.834 -92 -90.501 -132s-77.834 -70 -126.501 -90s-104.667 -30 -168 -30c-58 0 -110.667 7.33301 -158 22v217c48 -14.667 93.333 -22 136 -22c56.667 0 104.167 17 142.5 51
s72.5 87.333 102.5 160l-385 1128h246l256 -788l258 788h246z" />
    <glyph glyph-name="thorn" unicode="&#xfe;" horiz-adv-x="1259" 
d="M696 -20c-122 0 -224.333 49.667 -307 149v-641h-246v2048h246v-641c82.667 99.333 185 149 307 149c141.333 0 258.666 -49.833 351.999 -149.5s140 -227.167 140 -382.5s-46.667 -282.833 -140 -382.5s-210.666 -149.5 -351.999 -149.5zM666 205
c80 0 146 28.333 198 85s78 130.667 78 222s-26 165.333 -78 222s-118 85 -198 85s-146.167 -28.5 -198.5 -85.5s-78.5 -130.833 -78.5 -221.5s26.167 -164.5 78.5 -221.5s118.5 -85.5 198.5 -85.5z" />
    <glyph glyph-name="ydieresis" unicode="&#xff;" horiz-adv-x="1026" 
d="M330 1249c-36 0 -67.167 13.167 -93.5 39.5s-39.5 57.5 -39.5 93.5s13.167 67.333 39.5 94s57.5 40 93.5 40c36.667 0 68 -13.333 94 -40s39 -58 39 -94s-13 -67.167 -39 -93.5s-57.333 -39.5 -94 -39.5zM739 1249c-36 0 -67.167 13.167 -93.5 39.5
s-39.5 57.5 -39.5 93.5s13.167 67.333 39.5 94s57.5 40 93.5 40c36.667 0 68 -13.333 94 -40s39 -58 39 -94s-13 -67.167 -39 -93.5s-57.333 -39.5 -94 -39.5zM629 -106c-23.333 -68 -47.3311 -126 -71.998 -174s-54.834 -92 -90.501 -132s-77.834 -70 -126.501 -90
s-104.667 -30 -168 -30c-58 0 -110.667 7.33301 -158 22v217c48 -14.667 93.333 -22 136 -22c56.667 0 104.167 17 142.5 51s72.5 87.333 102.5 160l-385 1128h246l256 -788l258 788h246z" />
    <glyph glyph-name="Amacron" unicode="&#x100;" horiz-adv-x="1044" 
d="M819 1864v-164h-573v164h573zM20 0l318 1536h369l317 -1536h-248l-67 348h-373l-68 -348h-248zM379 573h287l-144 740z" />
    <glyph glyph-name="amacron" unicode="&#x101;" 
d="M866 1413v-164h-573v164h573zM762 0v151.998c-62.667 -114.667 -171.334 -172 -326.001 -172c-61.333 0 -117.166 9.66699 -167.499 29s-92.333 51.833 -126 97.5s-50.5 101.5 -50.5 167.5c0 52.667 9.5 98.334 28.5 137.001s44.167 68.667 75.5 90s67 39.5 107 54.5
s80.667 25.5 122 31.5s82 12.667 122 20s75.667 14.5 107 21.5s56.5 18.5 75.5 34.5s28.5 36 28.5 60c0 38.667 -17.833 69.5 -53.5 92.5s-80.834 34.5 -135.501 34.5c-58 0 -104.167 -15 -138.5 -45s-51.5 -73 -51.5 -129h-256c0 64 12.333 120.333 37 169
s58.334 87.167 101.001 115.5s89.834 49.333 141.501 63s107.167 20.5 166.5 20.5c58.667 0 113.167 -6.16699 163.5 -18.5s96.166 -31.166 137.499 -56.499s74 -59.833 98 -103.5s36 -94.5 36 -152.5v-713h-242zM344 290.998c0 -34.667 13.168 -61.1689 39.501 -79.502
s60.833 -27.5 103.5 -27.5c76 0 140.833 21 194.5 63s80.5 100.333 80.5 175v47c-28 -12 -63 -22.5 -105 -31.5s-80 -16.667 -114 -23s-66.833 -14.166 -98.5 -23.499s-56.334 -22.166 -74.001 -38.499s-26.5 -36.833 -26.5 -61.5z" />
    <glyph glyph-name="Abreve" unicode="&#x102;" horiz-adv-x="1044" 
d="M649 1987h195c0 -95.333 -29.333 -170.5 -88 -225.5s-136.667 -82.5 -234 -82.5c-96 0 -173.167 27.5 -231.5 82.5s-87.5 130.167 -87.5 225.5h194c0 -44.667 11.833 -78.167 35.5 -100.5s53.5 -33.5 89.5 -33.5c38 0 68.667 11.167 92 33.5s35 55.833 35 100.5zM20 0
l318 1536h369l317 -1536h-248l-67 348h-373l-68 -348h-248zM379 573h287l-144 740z" />
    <glyph glyph-name="abreve" unicode="&#x103;" 
d="M696 1536h195c0 -95.333 -29.333 -170.333 -88 -225s-136.667 -82 -234 -82c-96 0 -173.167 27.333 -231.5 82s-87.5 129.667 -87.5 225h194c0 -44 11.833 -77.167 35.5 -99.5s53.5 -33.5 89.5 -33.5c38 0 68.667 11 92 33s35 55.333 35 100zM762 0v151.998
c-62.667 -114.667 -171.334 -172 -326.001 -172c-61.333 0 -117.166 9.66699 -167.499 29s-92.333 51.833 -126 97.5s-50.5 101.5 -50.5 167.5c0 52.667 9.5 98.334 28.5 137.001s44.167 68.667 75.5 90s67 39.5 107 54.5s80.667 25.5 122 31.5s82 12.667 122 20
s75.667 14.5 107 21.5s56.5 18.5 75.5 34.5s28.5 36 28.5 60c0 38.667 -17.833 69.5 -53.5 92.5s-80.834 34.5 -135.501 34.5c-58 0 -104.167 -15 -138.5 -45s-51.5 -73 -51.5 -129h-256c0 64 12.333 120.333 37 169s58.334 87.167 101.001 115.5s89.834 49.333 141.501 63
s107.167 20.5 166.5 20.5c58.667 0 113.167 -6.16699 163.5 -18.5s96.166 -31.166 137.499 -56.499s74 -59.833 98 -103.5s36 -94.5 36 -152.5v-713h-242zM344 290.998c0 -34.667 13.168 -61.1689 39.501 -79.502s60.833 -27.5 103.5 -27.5c76 0 140.833 21 194.5 63
s80.5 100.333 80.5 175v47c-28 -12 -63 -22.5 -105 -31.5s-80 -16.667 -114 -23s-66.833 -14.166 -98.5 -23.499s-56.334 -22.166 -74.001 -38.499s-26.5 -36.833 -26.5 -61.5z" />
    <glyph glyph-name="Aogonek" unicode="&#x104;" horiz-adv-x="1044" 
d="M588 -344c0 22 3.16602 44 9.49902 66s17.333 46 33 72s29 47.167 40 63.5s29 41 54 74l51.5 68.5l-67 348h-373l-68 -348h-248l318 1536h369l317 -1536h-104c-60 -86 -101.333 -152.5 -124 -199.5s-34 -87.833 -34 -122.5c0 -44.667 24 -67 72 -67
c42.667 0 68.334 21.667 77.001 65h176c0 -60 -23.667 -108 -71 -144s-110.333 -54 -189 -54c-72 0 -129.833 16.167 -173.5 48.5s-65.5 75.5 -65.5 129.5zM378.999 573h287l-144 740z" />
    <glyph glyph-name="aogonek" unicode="&#x105;" 
d="M573 -344c0 22 3.16602 43.998 9.49902 65.998s17.333 46 33 72s29.167 47.167 40.5 63.5s29.333 40.666 54 72.999l52 69.5v152c-62.667 -114.667 -171.334 -172 -326.001 -172c-61.333 0 -117.166 9.66699 -167.499 29s-92.333 51.833 -126 97.5
s-50.5 101.5 -50.5 167.5c0 52.667 9.5 98.334 28.5 137.001s44.167 68.667 75.5 90s67 39.5 107 54.5s80.667 25.5 122 31.5s82 12.667 122 20s75.667 14.5 107 21.5s56.5 18.5 75.5 34.5s28.5 36 28.5 60c0 38.667 -17.833 69.5 -53.5 92.5s-80.834 34.5 -135.501 34.5
c-58 0 -104.167 -15 -138.5 -45s-51.5 -73 -51.5 -129h-256c0 64 12.333 120.333 37 169s58.334 87.167 101.001 115.5s89.834 49.333 141.501 63s107.167 20.5 166.5 20.5c58.667 0 113.167 -6.16699 163.5 -18.5s96.166 -31.166 137.499 -56.499s74 -59.833 98 -103.5
s36 -94.5 36 -152.5v-713h-99c-60 -85.333 -101.167 -151.666 -123.5 -198.999s-33.5 -88.333 -33.5 -123c0 -44.667 23.667 -67 71 -67c20.667 0 37.834 5.83301 51.501 17.5s22.5 27.5 26.5 47.5h176c0 -60 -23.667 -108 -71 -144s-110.333 -54 -189 -54
c-72 0 -130 16.167 -174 48.5s-66 75.5 -66 129.5zM343.999 290.998c0 -34.667 13.168 -61.1689 39.501 -79.502s60.833 -27.5 103.5 -27.5c76 0 140.833 21 194.5 63s80.5 100.333 80.5 175v47c-28 -12 -63 -22.5 -105 -31.5s-80 -16.667 -114 -23
s-66.833 -14.166 -98.5 -23.499s-56.334 -22.166 -74.001 -38.499s-26.5 -36.833 -26.5 -61.5z" />
    <glyph glyph-name="Cacute" unicode="&#x106;" horiz-adv-x="1167" 
d="M696 1679h-204l122 308h267zM799 594h245v-82c0 -175.333 -40.167 -307.833 -120.5 -397.5s-193.5 -134.5 -339.5 -134.5s-259.333 45 -340 135s-121 222.333 -121 397v512c0 174.667 40.333 307 121 397s194 135 340 135s259.167 -44.833 339.5 -134.5
s120.5 -222.167 120.5 -397.5v-61h-245v61c0 110.667 -18 189.5 -54 236.5s-89.667 70.5 -161 70.5c-70.667 0 -124.167 -23.5 -160.5 -70.5s-54.5 -125.833 -54.5 -236.5v-512c0 -110.667 18 -189.5 54 -236.5s89.667 -70.5 161 -70.5c70.667 0 124.167 23.5 160.5 70.5
s54.5 125.833 54.5 236.5v82z" />
    <glyph glyph-name="cacute" unicode="&#x107;" horiz-adv-x="1171" 
d="M698 1229h-204l122 307h267zM840 616c-8 65.333 -35.498 115.5 -82.498 150.5s-104.167 52.5 -171.5 52.5c-78 0 -142.333 -28.333 -193 -85s-76 -130.667 -76 -222s25.333 -165.333 76 -222s115 -85 193 -85c67.333 0 125.166 19.5 173.499 58.5
s77.166 94.5 86.499 166.5h254c-6 -134 -57.167 -242.5 -153.5 -325.5s-216.5 -124.5 -360.5 -124.5c-148.667 0 -271.5 49.833 -368.5 149.5s-145.5 227.167 -145.5 382.5s48.5 282.833 145.5 382.5s219.833 149.5 368.5 149.5c138.667 0 255.5 -39.5 350.5 -118.5
s148.833 -182.167 161.5 -309.5h-258z" />
    <glyph glyph-name="Ccircumflex" unicode="&#x108;" horiz-adv-x="1167" 
d="M449 1679h-205l205 308h266l205 -308h-205l-133 154zM799 594h245v-82c0 -175.333 -40.167 -307.833 -120.5 -397.5s-193.5 -134.5 -339.5 -134.5s-259.333 45 -340 135s-121 222.333 -121 397v512c0 174.667 40.333 307 121 397s194 135 340 135
s259.167 -44.833 339.5 -134.5s120.5 -222.167 120.5 -397.5v-61h-245v61c0 110.667 -18 189.5 -54 236.5s-89.667 70.5 -161 70.5c-70.667 0 -124.167 -23.5 -160.5 -70.5s-54.5 -125.833 -54.5 -236.5v-512c0 -110.667 18 -189.5 54 -236.5s89.667 -70.5 161 -70.5
c70.667 0 124.167 23.5 160.5 70.5s54.5 125.833 54.5 236.5v82z" />
    <glyph glyph-name="ccircumflex" unicode="&#x109;" horiz-adv-x="1171" 
d="M453 1229h-205l205 307h266l205 -307h-205l-133 153zM840 616c-8 65.333 -35.498 115.5 -82.498 150.5s-104.167 52.5 -171.5 52.5c-78 0 -142.333 -28.333 -193 -85s-76 -130.667 -76 -222s25.333 -165.333 76 -222s115 -85 193 -85c67.333 0 125.166 19.5 173.499 58.5
s77.166 94.5 86.499 166.5h254c-6 -134 -57.167 -242.5 -153.5 -325.5s-216.5 -124.5 -360.5 -124.5c-148.667 0 -271.5 49.833 -368.5 149.5s-145.5 227.167 -145.5 382.5s48.5 282.833 145.5 382.5s219.833 149.5 368.5 149.5c138.667 0 255.5 -39.5 350.5 -118.5
s148.833 -182.167 161.5 -309.5h-258z" />
    <glyph glyph-name="Cdotaccent" unicode="&#x10a;" horiz-adv-x="1167" 
d="M584 1679c-44 0 -80.667 14.833 -110 44.5s-44 66.167 -44 109.5c0 44 14.667 80.667 44 110s66 44 110 44c44.667 0 81.334 -14.667 110.001 -44s43 -66 43 -110c0 -43.333 -14.333 -79.833 -43 -109.5s-65.334 -44.5 -110.001 -44.5zM799 594h245v-82
c0 -175.333 -40.167 -307.833 -120.5 -397.5s-193.5 -134.5 -339.5 -134.5s-259.333 45 -340 135s-121 222.333 -121 397v512c0 174.667 40.333 307 121 397s194 135 340 135s259.167 -44.833 339.5 -134.5s120.5 -222.167 120.5 -397.5v-61h-245v61
c0 110.667 -18 189.5 -54 236.5s-89.667 70.5 -161 70.5c-70.667 0 -124.167 -23.5 -160.5 -70.5s-54.5 -125.833 -54.5 -236.5v-512c0 -110.667 18 -189.5 54 -236.5s89.667 -70.5 161 -70.5c70.667 0 124.167 23.5 160.5 70.5s54.5 125.833 54.5 236.5v82z" />
    <glyph glyph-name="cdotaccent" unicode="&#x10b;" horiz-adv-x="1171" 
d="M586 1229c-44 0 -80.667 14.667 -110 44s-44 65.666 -44 108.999c0 44 14.667 80.667 44 110s66 44 110 44c44.667 0 81.334 -14.667 110.001 -44s43 -66 43 -110c0 -43.333 -14.333 -79.666 -43 -108.999s-65.334 -44 -110.001 -44zM840 616
c-8 65.333 -35.498 115.5 -82.498 150.5s-104.167 52.5 -171.5 52.5c-78 0 -142.333 -28.333 -193 -85s-76 -130.667 -76 -222s25.333 -165.333 76 -222s115 -85 193 -85c67.333 0 125.166 19.5 173.499 58.5s77.166 94.5 86.499 166.5h254
c-6 -134 -57.167 -242.5 -153.5 -325.5s-216.5 -124.5 -360.5 -124.5c-148.667 0 -271.5 49.833 -368.5 149.5s-145.5 227.167 -145.5 382.5s48.5 282.833 145.5 382.5s219.833 149.5 368.5 149.5c138.667 0 255.5 -39.5 350.5 -118.5s148.833 -182.167 161.5 -309.5h-258z
" />
    <glyph glyph-name="Ccaron" unicode="&#x10c;" horiz-adv-x="1167" 
d="M920 1987l-205 -308h-266l-205 308h205l133 -154l133 154h205zM799 594h245v-82c0 -175.333 -40.167 -307.833 -120.5 -397.5s-193.5 -134.5 -339.5 -134.5s-259.333 45 -340 135s-121 222.333 -121 397v512c0 174.667 40.333 307 121 397s194 135 340 135
s259.167 -44.833 339.5 -134.5s120.5 -222.167 120.5 -397.5v-61h-245v61c0 110.667 -18 189.5 -54 236.5s-89.667 70.5 -161 70.5c-70.667 0 -124.167 -23.5 -160.5 -70.5s-54.5 -125.833 -54.5 -236.5v-512c0 -110.667 18 -189.5 54 -236.5s89.667 -70.5 161 -70.5
c70.667 0 124.167 23.5 160.5 70.5s54.5 125.833 54.5 236.5v82z" />
    <glyph glyph-name="ccaron" unicode="&#x10d;" horiz-adv-x="1171" 
d="M924 1536l-205 -307h-266l-205 307h205l133 -154l133 154h205zM840 616c-8 65.333 -35.498 115.5 -82.498 150.5s-104.167 52.5 -171.5 52.5c-78 0 -142.333 -28.333 -193 -85s-76 -130.667 -76 -222s25.333 -165.333 76 -222s115 -85 193 -85
c67.333 0 125.166 19.5 173.499 58.5s77.166 94.5 86.499 166.5h254c-6 -134 -57.167 -242.5 -153.5 -325.5s-216.5 -124.5 -360.5 -124.5c-148.667 0 -271.5 49.833 -368.5 149.5s-145.5 227.167 -145.5 382.5s48.5 282.833 145.5 382.5s219.833 149.5 368.5 149.5
c138.667 0 255.5 -39.5 350.5 -118.5s148.833 -182.167 161.5 -309.5h-258z" />
    <glyph glyph-name="Dcaron" unicode="&#x10e;" horiz-adv-x="1167" 
d="M903 1987l-205 -308h-266l-205 308h205l133 -154l133 154h205zM584 1536c146 0 259.167 -43.333 339.5 -130s120.5 -214 120.5 -382v-512c0 -168 -40.167 -295.333 -120.5 -382s-193.5 -130 -339.5 -130h-441v1536h441zM584 225c70 0 123.333 22.167 160 66.5
s55 117.833 55 220.5v512c0 103.333 -18.167 177 -54.5 221s-89.833 66 -160.5 66h-195v-1086h195z" />
    <glyph glyph-name="dcaron" unicode="&#x10f;" horiz-adv-x="1259" 
d="M870 0v129c-38.667 -47.333 -84.334 -84 -137.001 -110s-109.334 -39 -170.001 -39c-141.333 0 -258.5 49.833 -351.5 149.5s-139.5 227.167 -139.5 382.5s46.5 282.833 139.5 382.5s210.167 149.5 351.5 149.5c60.667 0 117.334 -13 170.001 -39
s98.334 -62.667 137.001 -110v641h246v-1536h-246zM1270 1536h235l-98 -379h-137v379zM594 819c-80 0 -146.167 -28.5 -198.5 -85.5s-78.5 -130.833 -78.5 -221.5s26.167 -164.5 78.5 -221.5s118.5 -85.5 198.5 -85.5s146 28.333 198 85s78 130.667 78 222
s-26 165.333 -78 222s-118 85 -198 85z" />
    <glyph glyph-name="Dcroat" unicode="&#x110;" horiz-adv-x="1167" 
d="M1044 512c0 -168 -40.167 -295.333 -120.5 -382s-193.5 -130 -339.5 -130h-441v707h-143v163h143v666h441c146 0 259.167 -43.333 339.5 -130s120.5 -214 120.5 -382v-512zM389 225h195c70 0 123.333 22.167 160 66.5s55 117.833 55 220.5v512
c0 103.333 -18.167 177 -54.5 221s-89.833 66 -160.5 66h-195v-441h205v-163h-205v-482z" />
    <glyph glyph-name="dcroat" unicode="&#x111;" horiz-adv-x="1259" 
d="M870 0v129c-38.667 -47.333 -84.334 -84 -137.001 -110s-109.334 -39 -170.001 -39c-141.333 0 -258.5 49.833 -351.5 149.5s-139.5 227.167 -139.5 382.5s46.5 282.833 139.5 382.5s210.167 149.5 351.5 149.5c60.667 0 117.334 -13 170.001 -39
s98.334 -62.667 137.001 -110v324h-276v143h276v174h246v-174h144v-143h-144v-1219h-246zM594 819c-80 0 -146.167 -28.5 -198.5 -85.5s-78.5 -130.833 -78.5 -221.5s26.167 -164.5 78.5 -221.5s118.5 -85.5 198.5 -85.5s146 28.333 198 85s78 130.667 78 222
s-26 165.333 -78 222s-118 85 -198 85z" />
    <glyph glyph-name="Emacron" unicode="&#x112;" horiz-adv-x="929" 
d="M803 1864v-164h-574v164h574zM143 0v1536h705v-225h-459v-410h418v-225h-418v-451h459v-225h-705z" />
    <glyph glyph-name="emacron" unicode="&#x113;" horiz-adv-x="1159" 
d="M877 1413v-164h-574v164h574zM1087 512c0 -18.667 -1.33203 -46.001 -3.99902 -82.001h-770c13.333 -75.333 43.833 -133.333 91.5 -174s109.5 -61 185.5 -61c102.667 0 171 37.333 205 112h266c-30 -105.333 -87.167 -186.166 -171.5 -242.499
s-187.5 -84.5 -309.5 -84.5c-147.333 0 -268.833 49.667 -364.5 149s-143.5 227 -143.5 383s47.833 283.667 143.5 383s217.167 149 364.5 149s268.666 -49.667 363.999 -149s143 -227 143 -383zM580.001 828.999c-71.333 0 -130 -19.5 -176 -58.5s-75.667 -94.5 -89 -166.5
h529c-13.333 72 -42.833 127.5 -88.5 166.5s-104.167 58.5 -175.5 58.5z" />
    <glyph glyph-name="Ebreve" unicode="&#x114;" horiz-adv-x="929" 
d="M633 1987h193.999c0 -95.333 -29.167 -170.5 -87.5 -225.5s-136.166 -82.5 -233.499 -82.5c-96 0 -173.333 27.5 -232 82.5s-88 130.167 -88 225.5h195c0 -44.667 11.833 -78.167 35.5 -100.5s53.5 -33.5 89.5 -33.5c38 0 68.667 11.167 92 33.5s35 55.833 35 100.5z
M142.999 0v1536h705v-225h-459v-410h418v-225h-418v-451h459v-225h-705z" />
    <glyph glyph-name="ebreve" unicode="&#x115;" horiz-adv-x="1159" 
d="M707 1536h193.999c0 -95.333 -29.167 -170.333 -87.5 -225s-136.166 -82 -233.499 -82c-96.667 0 -174.167 27.333 -232.5 82s-87.5 129.667 -87.5 225h195c0 -44 11.833 -77.167 35.5 -99.5s53.5 -33.5 89.5 -33.5c38 0 68.667 11 92 33s35 55.333 35 100zM1087 512
c0 -18.667 -1.33203 -46.001 -3.99902 -82.001h-770c13.333 -75.333 43.833 -133.333 91.5 -174s109.5 -61 185.5 -61c102.667 0 171 37.333 205 112h266c-30 -105.333 -87.167 -186.166 -171.5 -242.499s-187.5 -84.5 -309.5 -84.5c-147.333 0 -268.833 49.667 -364.5 149
s-143.5 227 -143.5 383s47.833 283.667 143.5 383s217.167 149 364.5 149s268.666 -49.667 363.999 -149s143 -227 143 -383zM580 828.999c-71.333 0 -130 -19.5 -176 -58.5s-75.667 -94.5 -89 -166.5h529c-13.333 72 -42.833 127.5 -88.5 166.5s-104.167 58.5 -175.5 58.5z
" />
    <glyph glyph-name="Edotaccent" unicode="&#x116;" horiz-adv-x="929" 
d="M506 1679c-44 0 -80.667 14.833 -110 44.5s-44 66.167 -44 109.5c0 44 14.667 80.667 44 110s66 44 110 44c44.667 0 81.334 -14.667 110.001 -44s43 -66 43 -110c0 -43.333 -14.333 -79.833 -43 -109.5s-65.334 -44.5 -110.001 -44.5zM143 0v1536h705v-225h-459v-410
h418v-225h-418v-451h459v-225h-705z" />
    <glyph glyph-name="edotaccent" unicode="&#x117;" horiz-adv-x="1159" 
d="M580 1229c-44 0 -80.667 14.667 -110 44s-44 65.666 -44 108.999c0 44 14.667 80.667 44 110s66 44 110 44c44.667 0 81.334 -14.667 110.001 -44s43 -66 43 -110c0 -43.333 -14.333 -79.666 -43 -108.999s-65.334 -44 -110.001 -44zM1087 512
c0 -18.667 -1.33203 -46.001 -3.99902 -82.001h-770c13.333 -75.333 43.833 -133.333 91.5 -174s109.5 -61 185.5 -61c102.667 0 171 37.333 205 112h266c-30 -105.333 -87.167 -186.166 -171.5 -242.499s-187.5 -84.5 -309.5 -84.5c-147.333 0 -268.833 49.667 -364.5 149
s-143.5 227 -143.5 383s47.833 283.667 143.5 383s217.167 149 364.5 149s268.666 -49.667 363.999 -149s143 -227 143 -383zM580.001 828.999c-71.333 0 -130 -19.5 -176 -58.5s-75.667 -94.5 -89 -166.5h529c-13.333 72 -42.833 127.5 -88.5 166.5
s-104.167 58.5 -175.5 58.5z" />
    <glyph glyph-name="Eogonek" unicode="&#x118;" horiz-adv-x="929" 
d="M848 225l0.000976562 -224.999h-168c-60 -86 -101.333 -152.5 -124 -199.5s-34 -87.833 -34 -122.5c0 -44.667 24 -67 72 -67c21.333 0 38.666 5.83301 51.999 17.5s22 27.5 26 47.5h176c0 -60 -23.667 -108 -71 -144s-110.333 -54 -189 -54c-72 0 -130 16.167 -174 48.5
s-66 75.5 -66 129.5c0 22 3.16699 44 9.5 66s17.333 46 33 72s29.167 47.167 40.5 63.5s29.333 40.666 54 72.999l52 69.5h-394v1536h705v-225h-459v-410h418v-225h-418v-451h459z" />
    <glyph glyph-name="eogonek" unicode="&#x119;" horiz-adv-x="1159" 
d="M1087 512c0 -18.667 -1.33008 -46.001 -3.99707 -82.001h-770c13.333 -75.333 43.833 -133.333 91.5 -174s109.5 -61 185.5 -61c102.667 0 171 37.333 205 112h266c-10 -44.667 -33 -98.167 -69 -160.5s-72.333 -118.666 -109 -168.999s-69.834 -102.5 -99.501 -156.5
s-44.5 -97.333 -44.5 -130c0 -53.333 28.667 -80 86 -80c21.333 0 39.333 5.83301 54 17.5s24.667 27.5 30 47.5h146c-1.33301 -52 -23.5 -96.333 -66.5 -133s-97.5 -55 -163.5 -55c-68.667 0 -124 17 -166 51s-63 77.667 -63 131c0 26 3 51.167 9 75.5
s16.833 49.833 32.5 76.5s28.167 47 37.5 61s26.5 36.833 51.5 68.5l47.5 60.5c-62.667 -21.333 -127.334 -32 -194.001 -32c-147.333 0 -268.833 49.667 -364.5 149s-143.5 227 -143.5 383s47.833 283.667 143.5 383s217.167 149 364.5 149s268.666 -49.667 363.999 -149
s143 -227 143 -383zM580.003 828.999c-71.333 0 -130 -19.5 -176 -58.5s-75.667 -94.5 -89 -166.5h529c-13.333 72 -42.833 127.5 -88.5 166.5s-104.167 58.5 -175.5 58.5z" />
    <glyph glyph-name="Ecaron" unicode="&#x11a;" horiz-adv-x="929" 
d="M842 1987l-205 -308h-266l-205 308h205l133 -154l133 154h205zM143 0v1536h705v-225h-459v-410h418v-225h-418v-451h459v-225h-705z" />
    <glyph glyph-name="ecaron" unicode="&#x11b;" horiz-adv-x="1159" 
d="M918 1536l-205 -307h-267l-204 307h204l134 -154l133 154h205zM1087 512c0 -18.667 -1.33203 -46.001 -3.99902 -82.001h-770c13.333 -75.333 43.833 -133.333 91.5 -174s109.5 -61 185.5 -61c102.667 0 171 37.333 205 112h266
c-30 -105.333 -87.167 -186.166 -171.5 -242.499s-187.5 -84.5 -309.5 -84.5c-147.333 0 -268.833 49.667 -364.5 149s-143.5 227 -143.5 383s47.833 283.667 143.5 383s217.167 149 364.5 149s268.666 -49.667 363.999 -149s143 -227 143 -383zM580.001 828.999
c-71.333 0 -130 -19.5 -176 -58.5s-75.667 -94.5 -89 -166.5h529c-13.333 72 -42.833 127.5 -88.5 166.5s-104.167 58.5 -175.5 58.5z" />
    <glyph glyph-name="Gcircumflex" unicode="&#x11c;" horiz-adv-x="1177" 
d="M449 1679h-205l205 308h266l205 -308h-205l-133 154zM553 809h491v-809h-221v166c-56.667 -124 -152.667 -186 -288 -186c-130 0 -231.167 45 -303.5 135s-108.5 222.333 -108.5 397v512c0 174.667 40.333 307 121 397s194 135 340 135s259.167 -44.833 339.5 -134.5
s120.5 -222.167 120.5 -397.5v-61h-245v61c0 110.667 -18 189.5 -54 236.5s-89.667 70.5 -161 70.5c-70.667 0 -124.167 -23.5 -160.5 -70.5s-54.5 -125.833 -54.5 -236.5v-512c0 -110.667 18 -189.5 54 -236.5s89.667 -70.5 161 -70.5c143.333 0 215 95.667 215 287v92
h-246v225z" />
    <glyph glyph-name="gcircumflex" unicode="&#x11d;" horiz-adv-x="1259" 
d="M451 1229h-205l205 307h266l205 -307h-205l-133 153zM1116 0c0 -154 -49.498 -281.168 -148.498 -381.501s-220.167 -150.5 -363.5 -150.5c-135.333 0 -249.833 41.333 -343.5 124s-149.834 191.334 -168.501 326.001h248c11.333 -68 40.666 -122.5 87.999 -163.5
s106 -61.5 176 -61.5c82.667 0 147.667 28.167 195 84.5s71 130.5 71 222.5v129c-38.667 -47.333 -84.334 -84 -137.001 -110s-109.334 -39 -170.001 -39c-141.333 0 -258.5 49.833 -351.5 149.5s-139.5 227.167 -139.5 382.5s46.5 282.833 139.5 382.5
s210.167 149.5 351.5 149.5c60.667 0 117.334 -13 170.001 -39s98.334 -62.667 137.001 -110v129h246v-1024zM594.002 204.999c80 0 146 28.333 198 85s78 130.667 78 222s-26 165.333 -78 222s-118 85 -198 85s-146.167 -28.5 -198.5 -85.5s-78.5 -130.833 -78.5 -221.5
s26.167 -164.5 78.5 -221.5s118.5 -85.5 198.5 -85.5z" />
    <glyph glyph-name="Gbreve" unicode="&#x11e;" horiz-adv-x="1177" 
d="M711 1987h193.999c0 -95.333 -29.167 -170.5 -87.5 -225.5s-136.166 -82.5 -233.499 -82.5c-96 0 -173.333 27.5 -232 82.5s-88 130.167 -88 225.5h195c0 -44.667 11.833 -78.167 35.5 -100.5s53.5 -33.5 89.5 -33.5c38 0 68.667 11.167 92 33.5s35 55.833 35 100.5z
M552.999 809h491v-809h-221v166c-56.667 -124 -152.667 -186 -288 -186c-130 0 -231.167 45 -303.5 135s-108.5 222.333 -108.5 397v512c0 174.667 40.333 307 121 397s194 135 340 135s259.167 -44.833 339.5 -134.5s120.5 -222.167 120.5 -397.5v-61h-245v61
c0 110.667 -18 189.5 -54 236.5s-89.667 70.5 -161 70.5c-70.667 0 -124.167 -23.5 -160.5 -70.5s-54.5 -125.833 -54.5 -236.5v-512c0 -110.667 18 -189.5 54 -236.5s89.667 -70.5 161 -70.5c143.333 0 215 95.667 215 287v92h-246v225z" />
    <glyph glyph-name="gbreve" unicode="&#x11f;" horiz-adv-x="1259" 
d="M711 1536h193.999c0 -95.333 -29.167 -170.333 -87.5 -225s-136.166 -82 -233.499 -82c-96.667 0 -174.167 27.333 -232.5 82s-87.5 129.667 -87.5 225h195c0 -44 11.833 -77.167 35.5 -99.5s53.5 -33.5 89.5 -33.5c38 0 68.667 11 92 33s35 55.333 35 100zM1116 0
c0 -154 -49.498 -281.168 -148.498 -381.501s-220.167 -150.5 -363.5 -150.5c-135.333 0 -249.833 41.333 -343.5 124s-149.834 191.334 -168.501 326.001h248c11.333 -68 40.666 -122.5 87.999 -163.5s106 -61.5 176 -61.5c82.667 0 147.667 28.167 195 84.5
s71 130.5 71 222.5v129c-38.667 -47.333 -84.334 -84 -137.001 -110s-109.334 -39 -170.001 -39c-141.333 0 -258.5 49.833 -351.5 149.5s-139.5 227.167 -139.5 382.5s46.5 282.833 139.5 382.5s210.167 149.5 351.5 149.5c60.667 0 117.334 -13 170.001 -39
s98.334 -62.667 137.001 -110v129h246v-1024zM594.001 204.999c80 0 146 28.333 198 85s78 130.667 78 222s-26 165.333 -78 222s-118 85 -198 85s-146.167 -28.5 -198.5 -85.5s-78.5 -130.833 -78.5 -221.5s26.167 -164.5 78.5 -221.5s118.5 -85.5 198.5 -85.5z" />
    <glyph glyph-name="Gdotaccent" unicode="&#x120;" horiz-adv-x="1177" 
d="M584 1679c-44 0 -80.667 14.833 -110 44.5s-44 66.167 -44 109.5c0 44 14.667 80.667 44 110s66 44 110 44c44.667 0 81.334 -14.667 110.001 -44s43 -66 43 -110c0 -43.333 -14.333 -79.833 -43 -109.5s-65.334 -44.5 -110.001 -44.5zM553 809h491v-809h-221v166
c-56.667 -124 -152.667 -186 -288 -186c-130 0 -231.167 45 -303.5 135s-108.5 222.333 -108.5 397v512c0 174.667 40.333 307 121 397s194 135 340 135s259.167 -44.833 339.5 -134.5s120.5 -222.167 120.5 -397.5v-61h-245v61c0 110.667 -18 189.5 -54 236.5
s-89.667 70.5 -161 70.5c-70.667 0 -124.167 -23.5 -160.5 -70.5s-54.5 -125.833 -54.5 -236.5v-512c0 -110.667 18 -189.5 54 -236.5s89.667 -70.5 161 -70.5c143.333 0 215 95.667 215 287v92h-246v225z" />
    <glyph glyph-name="gdotaccent" unicode="&#x121;" horiz-adv-x="1259" 
d="M584 1229c-44 0 -80.667 14.667 -110 44s-44 65.666 -44 108.999c0 44 14.667 80.667 44 110s66 44 110 44c44.667 0 81.334 -14.667 110.001 -44s43 -66 43 -110c0 -43.333 -14.333 -79.666 -43 -108.999s-65.334 -44 -110.001 -44zM1116 0
c0 -154 -49.498 -281.168 -148.498 -381.501s-220.167 -150.5 -363.5 -150.5c-135.333 0 -249.833 41.333 -343.5 124s-149.834 191.334 -168.501 326.001h248c11.333 -68 40.666 -122.5 87.999 -163.5s106 -61.5 176 -61.5c82.667 0 147.667 28.167 195 84.5
s71 130.5 71 222.5v129c-38.667 -47.333 -84.334 -84 -137.001 -110s-109.334 -39 -170.001 -39c-141.333 0 -258.5 49.833 -351.5 149.5s-139.5 227.167 -139.5 382.5s46.5 282.833 139.5 382.5s210.167 149.5 351.5 149.5c60.667 0 117.334 -13 170.001 -39
s98.334 -62.667 137.001 -110v129h246v-1024zM594.002 204.999c80 0 146 28.333 198 85s78 130.667 78 222s-26 165.333 -78 222s-118 85 -198 85s-146.167 -28.5 -198.5 -85.5s-78.5 -130.833 -78.5 -221.5s26.167 -164.5 78.5 -221.5s118.5 -85.5 198.5 -85.5z" />
    <glyph glyph-name="Gcommaaccent" unicode="&#x122;" horiz-adv-x="1177" 
d="M553 809h491v-809h-221v166c-56.667 -124 -152.667 -186 -288 -186c-130 0 -231.167 45 -303.5 135s-108.5 222.333 -108.5 397v512c0 174.667 40.333 307 121 397s194 135 340 135s259.167 -44.833 339.5 -134.5s120.5 -222.167 120.5 -397.5v-61h-245v61
c0 110.667 -18 189.5 -54 236.5s-89.667 70.5 -161 70.5c-70.667 0 -124.167 -23.5 -160.5 -70.5s-54.5 -125.833 -54.5 -236.5v-512c0 -110.667 18 -189.5 54 -236.5s89.667 -70.5 161 -70.5c143.333 0 215 95.667 215 287v92h-246v225zM514 -430h-164l62 307h245z" />
    <glyph glyph-name="gcommaaccent" unicode="&#x123;" horiz-adv-x="1259" 
d="M625 1597h163l-61 -307h-246zM1116 0c0 -154 -49.498 -281.168 -148.498 -381.501s-220.167 -150.5 -363.5 -150.5c-135.333 0 -249.833 41.333 -343.5 124s-149.834 191.334 -168.501 326.001h248c11.333 -68 40.666 -122.5 87.999 -163.5s106 -61.5 176 -61.5
c82.667 0 147.667 28.167 195 84.5s71 130.5 71 222.5v129c-38.667 -47.333 -84.334 -84 -137.001 -110s-109.334 -39 -170.001 -39c-141.333 0 -258.5 49.833 -351.5 149.5s-139.5 227.167 -139.5 382.5s46.5 282.833 139.5 382.5s210.167 149.5 351.5 149.5
c60.667 0 117.334 -13 170.001 -39s98.334 -62.667 137.001 -110v129h246v-1024zM594.002 204.999c80 0 146 28.333 198 85s78 130.667 78 222s-26 165.333 -78 222s-118 85 -198 85s-146.167 -28.5 -198.5 -85.5s-78.5 -130.833 -78.5 -221.5s26.167 -164.5 78.5 -221.5
s118.5 -85.5 198.5 -85.5z" />
    <glyph glyph-name="Hcircumflex" unicode="&#x124;" horiz-adv-x="1208" 
d="M469 1679h-205l205 308h266l205 -308h-205l-133 154zM819 0v676h-430v-676h-246v1536h246v-635h430v635h246v-1536h-246z" />
    <glyph glyph-name="hcircumflex" unicode="&#x125;" horiz-adv-x="1198" 
d="M469 1679h-205l205 308h266l205 -308h-205l-133 154zM389 563l0.000976562 -563.001h-246v1536h246v-659c31.333 54 72.333 95.333 123 124s108 43 172 43c113.333 0 205.166 -37.167 275.499 -111.5s105.5 -181.166 105.5 -320.499v-612h-246v563
c0 85.333 -19 151 -57 197s-90.667 69 -158 69s-120 -23 -158 -69s-57 -111.667 -57 -197z" />
    <glyph glyph-name="Hbar" unicode="&#x126;" horiz-adv-x="1208" 
d="M819 0v676h-430v-676h-246v1137h-143v163h143v236h246v-236h430v236h246v-236h143v-163h-143v-1137h-246zM389 901h430v236h-430v-236z" />
    <glyph glyph-name="hbar" unicode="&#x127;" horiz-adv-x="1198" 
d="M389 563l0.000976562 -563.001h-246v1219h-143v143h143v174h246v-174h277v-143h-277v-342c31.333 54 72.333 95.333 123 124s108 43 172 43c113.333 0 205.166 -37.167 275.499 -111.5s105.5 -181.166 105.5 -320.499v-612h-246v563c0 85.333 -19 151 -57 197
s-90.667 69 -158 69s-120 -23 -158 -69s-57 -111.667 -57 -197z" />
    <glyph glyph-name="Itilde" unicode="&#x128;" horiz-adv-x="532" 
d="M-82 1679v103c0 136.667 58.667 205 176 205c29.333 0 59.333 -5.83301 90 -17.5s56.834 -24.667 78.501 -39s44.334 -27.333 68.001 -39s43.834 -17.5 60.501 -17.5c40 0 60 23.333 60 70v43h163v-103c0 -136.667 -58.667 -205 -176 -205
c-29.333 0 -59.333 5.83301 -90 17.5s-56.834 24.667 -78.501 39s-44.334 27.333 -68.001 39s-43.834 17.5 -60.501 17.5c-39.333 0 -59 -23.333 -59 -70v-43h-164zM389 0h-246v1536h246v-1536z" />
    <glyph glyph-name="itilde" unicode="&#x129;" horiz-adv-x="532" 
d="M-82 1229l-0.00195312 101.999c0 136.667 58.667 205 176 205c29.333 0 59.333 -5.83301 90 -17.5s56.834 -24.667 78.501 -39s44.334 -27.333 68.001 -39s43.834 -17.5 60.501 -17.5c40 0 60 23.333 60 70v43h163v-102c0 -136.667 -58.667 -205 -176 -205
c-36.667 0 -74.334 9.33301 -113.001 28s-74 37.334 -106 56.001s-58 28 -78 28c-39.333 0 -59 -23 -59 -69v-43h-164zM388.998 -0.000976562h-246v1024h246v-1024z" />
    <glyph glyph-name="Imacron" unicode="&#x12a;" horiz-adv-x="532" 
d="M563 1864v-164h-573v164h573zM389 0h-246v1536h246v-1536z" />
    <glyph glyph-name="imacron" unicode="&#x12b;" horiz-adv-x="532" 
d="M563 1413v-164h-573v164h573zM389 0h-246v1024h246v-1024z" />
    <glyph glyph-name="Ibreve" unicode="&#x12c;" horiz-adv-x="532" 
d="M393 1987h195c0 -95.333 -29.333 -170.5 -88 -225.5s-136.667 -82.5 -234 -82.5c-96 0 -173.167 27.5 -231.5 82.5s-87.5 130.167 -87.5 225.5h194c0 -44.667 11.833 -78.167 35.5 -100.5s53.5 -33.5 89.5 -33.5c38 0 68.667 11.167 92 33.5s35 55.833 35 100.5zM389 0
h-246v1536h246v-1536z" />
    <glyph glyph-name="ibreve" unicode="&#x12d;" horiz-adv-x="532" 
d="M393 1536h195c0 -95.333 -29.333 -170.333 -88 -225s-136.667 -82 -234 -82c-96 0 -173.167 27.333 -231.5 82s-87.5 129.667 -87.5 225h194c0 -44 11.833 -77.167 35.5 -99.5s53.5 -33.5 89.5 -33.5c38 0 68.667 11 92 33s35 55.333 35 100zM389 0h-246v1024h246v-1024z
" />
    <glyph glyph-name="Iogonek" unicode="&#x12e;" horiz-adv-x="532" 
d="M16 -344c0 22 3.16797 44.001 9.50098 66.001s17.333 46 33 72s29.167 47.167 40.5 63.5s29.333 40.666 54 72.999l52 69.5h-62v1536h246v-1536h-41c-60 -86 -101.333 -152.5 -124 -199.5s-34 -87.833 -34 -122.5c0 -44.667 24 -67 72 -67
c21.333 0 38.666 5.83301 51.999 17.5s22 27.5 26 47.5h176c0 -60 -23.667 -108 -71 -144s-110.333 -54 -189 -54c-72 0 -130 16.167 -174 48.5s-66 75.5 -66 129.5z" />
    <glyph glyph-name="iogonek" unicode="&#x12f;" horiz-adv-x="532" 
d="M266 1229c-44 0 -80.5 14.667 -109.5 44s-43.5 65.666 -43.5 108.999c0 44 14.5 80.667 43.5 110s65.5 44 109.5 44c44.667 0 81.5 -14.667 110.5 -44s43.5 -66 43.5 -110c0 -43.333 -14.5 -79.666 -43.5 -108.999s-65.833 -44 -110.5 -44zM16 -344
c0 22 3.16797 44.001 9.50098 66.001s17.333 46 33 72s29.167 47.167 40.5 63.5s29.333 40.666 54 72.999l52 69.5h-62v1024h246v-1024h-41c-60 -86 -101.333 -152.5 -124 -199.5s-34 -87.833 -34 -122.5c0 -44.667 24 -67 72 -67c21.333 0 38.666 5.83301 51.999 17.5
s22 27.5 26 47.5h176c0 -60 -23.667 -108 -71 -144s-110.333 -54 -189 -54c-72 0 -130 16.167 -174 48.5s-66 75.5 -66 129.5z" />
    <glyph glyph-name="Idotaccent" unicode="&#x130;" horiz-adv-x="532" 
d="M266 1679c-44 0 -80.5 14.833 -109.5 44.5s-43.5 66.167 -43.5 109.5c0 44 14.5 80.667 43.5 110s65.5 44 109.5 44c44.667 0 81.5 -14.667 110.5 -44s43.5 -66 43.5 -110c0 -43.333 -14.5 -79.833 -43.5 -109.5s-65.833 -44.5 -110.5 -44.5zM389 0h-246v1536h246v-1536z
" />
    <glyph glyph-name="dotlessi" unicode="&#x131;" horiz-adv-x="532" 
d="M389 0h-246v1024h246v-1024z" />
    <glyph glyph-name="IJ" unicode="&#x132;" horiz-adv-x="1576" 
d="M389 0h-246v1536h246v-1536zM1208 1536l245.997 -0.000976562v-1126c0 -92.667 -19 -172 -57 -238s-88.167 -114.5 -150.5 -145.5s-133.166 -46.5 -212.499 -46.5s-150.166 15.5 -212.499 46.5s-112.5 79.5 -150.5 145.5s-57 145.333 -57 238v135h246v-115
c0 -81.333 15 -139.166 45 -173.499s73 -51.5 129 -51.5c56.667 0 99.834 17 129.501 51s44.5 92 44.5 174v1106z" />
    <glyph glyph-name="ij" unicode="&#x133;" horiz-adv-x="1064" 
d="M266 1229c-44 0 -80.5 14.667 -109.5 44s-43.5 65.666 -43.5 108.999c0 44 14.5 80.667 43.5 110s65.5 44 109.5 44c44.667 0 81.5 -14.667 110.5 -44s43.5 -66 43.5 -110c0 -43.333 -14.5 -79.666 -43.5 -108.999s-65.833 -44 -110.5 -44zM799 1229
c-44 0 -80.667 14.667 -110 44s-44 65.666 -44 108.999c0 44 14.667 80.667 44 110s66 44 110 44c44.667 0 81.334 -14.667 110.001 -44s43 -66 43 -110c0 -43.333 -14.333 -79.666 -43 -108.999s-65.334 -44 -110.001 -44zM389 0h-246v1024h246v-1024zM676 -147v1171h246
v-1178c0 -238.667 -121.667 -358 -365 -358c-49.333 0 -84.666 2.66699 -105.999 8v223c23.333 -4 47.666 -6 72.999 -6c50.667 0 88.667 10.167 114 30.5s38 56.833 38 109.5z" />
    <glyph glyph-name="Jcircumflex" unicode="&#x134;" horiz-adv-x="1044" 
d="M664 1679h-205l205 308h266l205 -308h-205l-133 154zM676 1536l245.997 -0.000976562v-1126c0 -92.667 -19 -172 -57 -238s-88.167 -114.5 -150.5 -145.5s-133.166 -46.5 -212.499 -46.5s-150.166 15.5 -212.499 46.5s-112.5 79.5 -150.5 145.5s-57 145.333 -57 238v135
h246v-115c0 -81.333 15 -139.166 45 -173.499s73 -51.5 129 -51.5c56.667 0 99.834 17 129.501 51s44.5 92 44.5 174v1106z" />
    <glyph glyph-name="jcircumflex" unicode="&#x135;" horiz-adv-x="532" 
d="M133 1229h-205l205 307h266l205 -307h-205l-133 153zM143 -147v1171h246v-1178c0 -238.667 -121.333 -358 -364 -358c-50 0 -85.667 2.66699 -107 8v223c23.333 -4 48 -6 74 -6c50.667 0 88.5 10.167 113.5 30.5s37.5 56.833 37.5 109.5z" />
    <glyph glyph-name="Kcommaaccent" unicode="&#x136;" horiz-adv-x="1062" 
d="M768 0l-379 743v-743h-246v1536h246v-743l385 743h268l-403 -731l424 -805h-295zM512 -430h-164l62 307h245z" />
    <glyph glyph-name="kcommaaccent" unicode="&#x137;" horiz-adv-x="1157" 
d="M829 0l-440 539v-539h-246v1536h246v-958l397 446h324l-451 -465l478 -559h-308zM553 -430h-164l62 307h245z" />
    <glyph glyph-name="Lacute" unicode="&#x139;" horiz-adv-x="888" 
d="M379 1679h-205l123 308h266zM868 225v-225h-725v1536h246v-1311h479z" />
    <glyph glyph-name="lacute" unicode="&#x13a;" horiz-adv-x="532" 
d="M369 1679h-205l123 308h266zM389 0h-246v1536h246v-1536z" />
    <glyph glyph-name="Lcommaaccent" unicode="&#x13b;" horiz-adv-x="888" 
d="M868 225v-225h-725v1536h246v-1311h479zM492 -430h-164l61 307h246z" />
    <glyph glyph-name="lcommaaccent" unicode="&#x13c;" horiz-adv-x="532" 
d="M389 0h-246v1536h246v-1536zM246 -430h-164l61 307h246z" />
    <glyph glyph-name="Lcaron" unicode="&#x13d;" horiz-adv-x="888" 
d="M868 225v-225h-725v1536h246v-1311h479zM512 1536h236l-99 -379h-137v379z" />
    <glyph glyph-name="lcaron" unicode="&#x13e;" horiz-adv-x="532" 
d="M389 0h-246v1536h246v-1536zM512 1536h236l-99 -379h-137v379z" />
    <glyph glyph-name="Ldot" unicode="&#x13f;" horiz-adv-x="888" 
d="M868 225v-225h-725v1536h246v-1311h479zM711 643c-44 0 -80.667 14.833 -110 44.5s-44 66.167 -44 109.5c0 44 14.667 80.5 44 109.5s66 43.5 110 43.5c44.667 0 81.334 -14.5 110.001 -43.5s43 -65.5 43 -109.5c0 -43.333 -14.333 -79.833 -43 -109.5
s-65.334 -44.5 -110.001 -44.5z" />
    <glyph glyph-name="ldot" unicode="&#x140;" horiz-adv-x="532" 
d="M389 0h-246v1536h246v-1536zM614 643c-44 0 -80.5 14.833 -109.5 44.5s-43.5 66.167 -43.5 109.5c0 44 14.5 80.5 43.5 109.5s65.5 43.5 109.5 43.5c44.667 0 81.5 -14.5 110.5 -43.5s43.5 -65.5 43.5 -109.5c0 -43.333 -14.5 -79.833 -43.5 -109.5
s-65.833 -44.5 -110.5 -44.5z" />
    <glyph glyph-name="Lslash" unicode="&#x141;" horiz-adv-x="888" 
d="M868 225v-225h-725v559l-143 -88v205l143 88v772h246v-618l205 126v-204l-205 -127v-488h479z" />
    <glyph glyph-name="lslash" unicode="&#x142;" horiz-adv-x="532" 
d="M532 840l-143 -88v-752h-246v598l-143 -88v205l143 88v733h246v-580l143 88v-204z" />
    <glyph glyph-name="Nacute" unicode="&#x143;" horiz-adv-x="1208" 
d="M717 1679h-205l123 308h266zM1065 1536v-1536h-403l-293 1348v-1348h-226v1536h408l289 -1329v1329h225z" />
    <glyph glyph-name="nacute" unicode="&#x144;" horiz-adv-x="1198" 
d="M717 1229h-205l123 307h266zM389 563l0.000976562 -563.001h-246v1024h246v-147c31.333 54 72.333 95.333 123 124s108 43 172 43c113.333 0 205.166 -37.167 275.499 -111.5s105.5 -181.166 105.5 -320.499v-612h-246v563c0 85.333 -19 151 -57 197s-90.667 69 -158 69
s-120 -23 -158 -69s-57 -111.667 -57 -197z" />
    <glyph glyph-name="Ncommaaccent" unicode="&#x145;" horiz-adv-x="1208" 
d="M1065 1536v-1536h-403l-293 1348v-1348h-226v1536h408l289 -1329v1329h225zM584 -430h-164l61 307h246z" />
    <glyph glyph-name="ncommaaccent" unicode="&#x146;" horiz-adv-x="1198" 
d="M389 563l0.000976562 -563.001h-246v1024h246v-147c31.333 54 72.333 95.333 123 124s108 43 172 43c113.333 0 205.166 -37.167 275.499 -111.5s105.5 -181.166 105.5 -320.499v-612h-246v563c0 85.333 -19 151 -57 197s-90.667 69 -158 69s-120 -23 -158 -69
s-57 -111.667 -57 -197zM584.001 -430.001h-164l61 307h246z" />
    <glyph glyph-name="Ncaron" unicode="&#x147;" horiz-adv-x="1208" 
d="M940 1987l-205 -308h-266l-205 308h205l133 -154l133 154h205zM1065 1536v-1536h-403l-293 1348v-1348h-226v1536h408l289 -1329v1329h225z" />
    <glyph glyph-name="ncaron" unicode="&#x148;" horiz-adv-x="1198" 
d="M942 1536l-205 -307h-266l-205 307h205l133 -154l133 154h205zM389 563l0.000976562 -563.001h-246v1024h246v-147c31.333 54 72.333 95.333 123 124s108 43 172 43c113.333 0 205.166 -37.167 275.499 -111.5s105.5 -181.166 105.5 -320.499v-612h-246v563
c0 85.333 -19 151 -57 197s-90.667 69 -158 69s-120 -23 -158 -69s-57 -111.667 -57 -197z" />
    <glyph glyph-name="Eng" unicode="&#x14a;" horiz-adv-x="1208" 
d="M143 0l-0.00195312 1536h408l289 -1296v1296h225v-1690c0 -238.667 -121.667 -358 -365 -358c-49.333 0 -84.666 2.66699 -105.999 8v223c22.667 -4 47.334 -6 74.001 -6c114.667 0 172 46.667 172 140v147h-178l-293 1315v-1315h-226z" />
    <glyph glyph-name="eng" unicode="&#x14b;" horiz-adv-x="1198" 
d="M684 1044c113.333 0 205.165 -37.168 275.498 -111.501s105.5 -181.166 105.5 -320.499v-766c0 -238.667 -121.667 -358 -365 -358c-49.333 0 -84.666 2.66699 -105.999 8v223c22.667 -4 47.334 -6 74.001 -6c50.667 0 88.5 10.167 113.5 30.5s37.5 56.833 37.5 109.5
v710c0 85.333 -19 151 -57 197s-90.667 69 -158 69s-120 -23 -158 -69s-57 -111.667 -57 -197v-563h-246v1024h246v-147c31.333 54 72.333 95.333 123 124s108 43 172 43z" />
    <glyph glyph-name="Omacron" unicode="&#x14c;" horiz-adv-x="1167" 
d="M881 1864v-164h-574v164h574zM584 -20c-146 0 -259.333 45 -340 135s-121 222.333 -121 397v512c0 174.667 40.333 307 121 397s194 135 340 135s259.167 -44.833 339.5 -134.5s120.5 -222.167 120.5 -397.5v-512c0 -175.333 -40.167 -307.833 -120.5 -397.5
s-193.5 -134.5 -339.5 -134.5zM584 205c70.667 0 124.167 23.5 160.5 70.5s54.5 125.833 54.5 236.5v512c0 110.667 -18 189.5 -54 236.5s-89.667 70.5 -161 70.5c-70.667 0 -124.167 -23.5 -160.5 -70.5s-54.5 -125.833 -54.5 -236.5v-512c0 -110.667 18 -189.5 54 -236.5
s89.667 -70.5 161 -70.5z" />
    <glyph glyph-name="omacron" unicode="&#x14d;" horiz-adv-x="1187" 
d="M891 1413v-164h-574v164h574zM594 -20c-150.667 0 -275.334 49.833 -374.001 149.5s-148 227.167 -148 382.5s49.333 282.833 148 382.5s223.334 149.5 374.001 149.5s275.334 -49.833 374.001 -149.5s148 -227.167 148 -382.5s-49.333 -282.833 -148 -382.5
s-223.334 -149.5 -374.001 -149.5zM594 205c80 0 146 28.333 198 85s78 130.667 78 222s-26 165.333 -78 222s-118 85 -198 85s-146.167 -28.5 -198.5 -85.5s-78.5 -130.833 -78.5 -221.5s26.167 -164.5 78.5 -221.5s118.5 -85.5 198.5 -85.5z" />
    <glyph glyph-name="Obreve" unicode="&#x14e;" horiz-adv-x="1167" 
d="M711 1987h193.999c0 -95.333 -29.167 -170.5 -87.5 -225.5s-136.166 -82.5 -233.499 -82.5c-96 0 -173.333 27.5 -232 82.5s-88 130.167 -88 225.5h195c0 -44.667 11.833 -78.167 35.5 -100.5s53.5 -33.5 89.5 -33.5c38 0 68.667 11.167 92 33.5s35 55.833 35 100.5z
M583.999 -20c-146 0 -259.333 45 -340 135s-121 222.333 -121 397v512c0 174.667 40.333 307 121 397s194 135 340 135s259.167 -44.833 339.5 -134.5s120.5 -222.167 120.5 -397.5v-512c0 -175.333 -40.167 -307.833 -120.5 -397.5s-193.5 -134.5 -339.5 -134.5z
M583.999 205c70.667 0 124.167 23.5 160.5 70.5s54.5 125.833 54.5 236.5v512c0 110.667 -18 189.5 -54 236.5s-89.667 70.5 -161 70.5c-70.667 0 -124.167 -23.5 -160.5 -70.5s-54.5 -125.833 -54.5 -236.5v-512c0 -110.667 18 -189.5 54 -236.5s89.667 -70.5 161 -70.5z
" />
    <glyph glyph-name="obreve" unicode="&#x14f;" horiz-adv-x="1187" 
d="M721 1536h193.999c0 -95.333 -29.167 -170.333 -87.5 -225s-136.166 -82 -233.499 -82c-96.667 0 -174.167 27.333 -232.5 82s-87.5 129.667 -87.5 225h195c0 -44 11.833 -77.167 35.5 -99.5s53.5 -33.5 89.5 -33.5c38 0 68.667 11 92 33s35 55.333 35 100zM593.999 -20
c-150.667 0 -275.334 49.833 -374.001 149.5s-148 227.167 -148 382.5s49.333 282.833 148 382.5s223.334 149.5 374.001 149.5s275.334 -49.833 374.001 -149.5s148 -227.167 148 -382.5s-49.333 -282.833 -148 -382.5s-223.334 -149.5 -374.001 -149.5zM593.999 205
c80 0 146 28.333 198 85s78 130.667 78 222s-26 165.333 -78 222s-118 85 -198 85s-146.167 -28.5 -198.5 -85.5s-78.5 -130.833 -78.5 -221.5s26.167 -164.5 78.5 -221.5s118.5 -85.5 198.5 -85.5z" />
    <glyph glyph-name="Ohungarumlaut" unicode="&#x150;" horiz-adv-x="1167" 
d="M492 1679h-164l61 308h246zM860 1679h-164l62 308h246zM584 -20c-146 0 -259.333 45 -340 135s-121 222.333 -121 397v512c0 174.667 40.333 307 121 397s194 135 340 135s259.167 -44.833 339.5 -134.5s120.5 -222.167 120.5 -397.5v-512
c0 -175.333 -40.167 -307.833 -120.5 -397.5s-193.5 -134.5 -339.5 -134.5zM584 205c70.667 0 124.167 23.5 160.5 70.5s54.5 125.833 54.5 236.5v512c0 110.667 -18 189.5 -54 236.5s-89.667 70.5 -161 70.5c-70.667 0 -124.167 -23.5 -160.5 -70.5
s-54.5 -125.833 -54.5 -236.5v-512c0 -110.667 18 -189.5 54 -236.5s89.667 -70.5 161 -70.5z" />
    <glyph glyph-name="ohungarumlaut" unicode="&#x151;" horiz-adv-x="1187" 
d="M502 1229h-164l61 307h246zM870 1229h-163l61 307h246zM594 -20c-150.667 0 -275.334 49.833 -374.001 149.5s-148 227.167 -148 382.5s49.333 282.833 148 382.5s223.334 149.5 374.001 149.5s275.334 -49.833 374.001 -149.5s148 -227.167 148 -382.5
s-49.333 -282.833 -148 -382.5s-223.334 -149.5 -374.001 -149.5zM594 205c80 0 146 28.333 198 85s78 130.667 78 222s-26 165.333 -78 222s-118 85 -198 85s-146.167 -28.5 -198.5 -85.5s-78.5 -130.833 -78.5 -221.5s26.167 -164.5 78.5 -221.5s118.5 -85.5 198.5 -85.5z
" />
    <glyph glyph-name="OE" unicode="&#x152;" horiz-adv-x="1564" 
d="M584 0c-64.667 0 -124.834 11.667 -180.501 35s-104.334 56.833 -146.001 100.5s-74.5 99.5 -98.5 167.5s-36 144.333 -36 229v472c0 84.667 12 161 36 229s56.833 123.833 98.5 167.5s90.334 77.167 146.001 100.5s115.834 35 180.501 35h899v-225h-459v-410h418v-225
h-418v-451h459v-225h-899zM584 1311c-143.333 0 -215 -109.333 -215 -328v-430c0 -218.667 71.667 -328 215 -328h194v1086h-194z" />
    <glyph glyph-name="oe" unicode="&#x153;" horiz-adv-x="1968" 
d="M1896 512c0 -18.667 -1.33203 -46.001 -3.99902 -82.001h-770c13.333 -75.333 43.833 -133.333 91.5 -174s109.5 -61 185.5 -61c102.667 0 171 37.333 205 112h266c-30 -105.333 -87.167 -186.166 -171.5 -242.499s-187.5 -84.5 -309.5 -84.5
c-83.333 0 -159.5 16.667 -228.5 50s-126.167 80 -171.5 140c-45.333 -60 -102.166 -106.667 -170.499 -140s-143.166 -50 -224.499 -50c-150.667 0 -275.334 49.833 -374.001 149.5s-148 227.167 -148 382.5s49.333 282.833 148 382.5s223.334 149.5 374.001 149.5
c81.333 0 156.166 -16.667 224.499 -50s125.166 -80 170.499 -140c45.333 60 102.5 106.667 171.5 140s145.167 50 228.5 50c147.333 0 268.666 -49.667 363.999 -149s143 -227 143 -383zM1389 828.999c-71.333 0 -130 -19.5 -176 -58.5s-75.667 -94.5 -89 -166.5h529
c-13.333 72 -42.833 127.5 -88.5 166.5s-104.167 58.5 -175.5 58.5zM594.001 204.999c80 0 146 28.333 198 85s78 130.667 78 222s-26 165.333 -78 222s-118 85 -198 85s-146.167 -28.5 -198.5 -85.5s-78.5 -130.833 -78.5 -221.5s26.167 -164.5 78.5 -221.5
s118.5 -85.5 198.5 -85.5z" />
    <glyph glyph-name="Racute" unicode="&#x154;" 
d="M674 1679h-205l123 308h266zM1085 0l-291.999 0.000976562l-404 754v-754h-246v1536h463c129.333 0 233.666 -34.833 312.999 -104.5s119 -167.834 119 -294.501v-62c0 -110 -30.833 -198 -92.5 -264s-144.167 -108.333 -247.5 -127zM586.001 1311h-197v-430h197
c138 0 207 71.667 207 215v20c0 130 -69 195 -207 195z" />
    <glyph glyph-name="racute" unicode="&#x155;" horiz-adv-x="825" 
d="M594 1229h-205l123 307h266zM389 522v-522h-246v1024h246v-166c76 124 190.667 186 344 186c26 0 43 -1.33301 51 -4v-268c-30.667 10.667 -66 16 -106 16c-91.333 0 -162.333 -23 -213 -69s-76 -111.667 -76 -197z" />
    <glyph glyph-name="Rcommaaccent" unicode="&#x156;" 
d="M1085 0l-291.999 0.000976562l-404 754v-754h-246v1536h463c129.333 0 233.666 -34.833 312.999 -104.5s119 -167.834 119 -294.501v-62c0 -110 -30.833 -198 -92.5 -264s-144.167 -108.333 -247.5 -127zM586.001 1311h-197v-430h197c138 0 207 71.667 207 215v20
c0 130 -69 195 -207 195zM516.001 -429.999h-164l62 307h245z" />
    <glyph glyph-name="rcommaaccent" unicode="&#x157;" horiz-adv-x="825" 
d="M389 522v-522h-246v1024h246v-166c76 124 190.667 186 344 186c26 0 43 -1.33301 51 -4v-268c-30.667 10.667 -66 16 -106 16c-91.333 0 -162.333 -23 -213 -69s-76 -111.667 -76 -197zM246 -430h-164l61 307h246z" />
    <glyph glyph-name="Rcaron" unicode="&#x158;" 
d="M897 1987l-205 -308h-266l-205 308h205l133 -154l133 154h205zM1085 0l-291.999 0.000976562l-404 754v-754h-246v1536h463c129.333 0 233.666 -34.833 312.999 -104.5s119 -167.834 119 -294.501v-62c0 -110 -30.833 -198 -92.5 -264s-144.167 -108.333 -247.5 -127z
M586.001 1311h-197v-430h197c138 0 207 71.667 207 215v20c0 130 -69 195 -207 195z" />
    <glyph glyph-name="rcaron" unicode="&#x159;" horiz-adv-x="825" 
d="M819 1536l-205 -307h-266l-205 307h205l133 -154l133 154h205zM389 522v-522h-246v1024h246v-166c76 124 190.667 186 344 186c26 0 43 -1.33301 51 -4v-268c-30.667 10.667 -66 16 -106 16c-91.333 0 -162.333 -23 -213 -69s-76 -111.667 -76 -197z" />
    <glyph glyph-name="Sacute" unicode="&#x15a;" horiz-adv-x="993" 
d="M612 1679h-204l122 308h267zM102 1169c0 66.667 10.333 125.335 31 176.002s49.5 91.167 86.5 121.5s78.833 52.833 125.5 67.5s98.334 22 155.001 22c76 0 143.667 -14.5 203 -43.5s107.166 -74.833 143.499 -137.5s54.5 -138.667 54.5 -228v-103h-246v97
c0 64 -13.5 111.667 -40.5 143s-65.167 47 -114.5 47c-46 0 -82.833 -14.167 -110.5 -42.5s-41.5 -68.166 -41.5 -119.499c0 -46.667 13 -87.334 39 -122.001s63.667 -69.667 113 -105l180 -129c76 -54.667 135.333 -114.667 178 -180s64 -143.333 64 -234
s-19.167 -168.167 -57.5 -232.5s-88.666 -111.5 -150.999 -141.5s-132.833 -45 -211.5 -45c-120.667 0 -220.834 36.333 -300.501 109s-119.5 172.667 -119.5 300v123h246v-109c0 -60.667 15.833 -108.834 47.5 -144.501s73.834 -53.5 126.501 -53.5
c53.333 0 95.666 14.667 126.999 44s47 69.333 47 120c0 53.333 -13.833 100.166 -41.5 140.499s-67.167 78.833 -118.5 115.5l-174 125c-49.333 35.333 -90.5 70.833 -123.5 106.5s-60.667 80.5 -83 134.5s-33.5 113.333 -33.5 178z" />
    <glyph glyph-name="sacute" unicode="&#x15b;" horiz-adv-x="1032" 
d="M625 1229h-205l123 307h266zM950 295c0 -96 -39.167 -172.497 -117.5 -229.497s-178.5 -85.5 -300.5 -85.5c-131.333 0 -239.166 32 -323.499 96s-126.5 151.333 -126.5 262h256c0 -53.333 17.833 -94.333 53.5 -123s82.5 -43 140.5 -43c52 0 92.333 9.5 121 28.5
s43 47.167 43 84.5c0 29.333 -11 53 -33 71s-50.5 31.5 -85.5 40.5s-73.667 17.167 -116 24.5s-84.666 17.333 -126.999 30s-81 29.167 -116 49.5s-63.5 50.333 -85.5 90s-33 87.834 -33 144.501c0 93.333 38 168.166 114 224.499s172 84.5 288 84.5
c122.667 0 225 -33.167 307 -99.5s123 -148.5 123 -246.5h-256c0 43.333 -16.5 79.5 -49.5 108.5s-74.5 43.5 -124.5 43.5c-46.667 0 -84 -9.33301 -112 -28s-42 -44.334 -42 -77.001c0 -23.333 8.66699 -42.833 26 -58.5s40 -27.334 68 -35.001s60.167 -15.667 96.5 -24
s73.166 -16 110.499 -23s74.166 -18.333 110.499 -34s68.5 -34 96.5 -55s50.667 -50.333 68 -88s26 -81.834 26 -132.501z" />
    <glyph glyph-name="Scircumflex" unicode="&#x15c;" horiz-adv-x="993" 
d="M365 1679h-205l205 308h266l205 -308h-205l-133 154zM102 1169c0 66.667 10.333 125.335 31 176.002s49.5 91.167 86.5 121.5s78.833 52.833 125.5 67.5s98.334 22 155.001 22c76 0 143.667 -14.5 203 -43.5s107.166 -74.833 143.499 -137.5s54.5 -138.667 54.5 -228
v-103h-246v97c0 64 -13.5 111.667 -40.5 143s-65.167 47 -114.5 47c-46 0 -82.833 -14.167 -110.5 -42.5s-41.5 -68.166 -41.5 -119.499c0 -46.667 13 -87.334 39 -122.001s63.667 -69.667 113 -105l180 -129c76 -54.667 135.333 -114.667 178 -180s64 -143.333 64 -234
s-19.167 -168.167 -57.5 -232.5s-88.666 -111.5 -150.999 -141.5s-132.833 -45 -211.5 -45c-120.667 0 -220.834 36.333 -300.501 109s-119.5 172.667 -119.5 300v123h246v-109c0 -60.667 15.833 -108.834 47.5 -144.501s73.834 -53.5 126.501 -53.5
c53.333 0 95.666 14.667 126.999 44s47 69.333 47 120c0 53.333 -13.833 100.166 -41.5 140.499s-67.167 78.833 -118.5 115.5l-174 125c-49.333 35.333 -90.5 70.833 -123.5 106.5s-60.667 80.5 -83 134.5s-33.5 113.333 -33.5 178z" />
    <glyph glyph-name="scircumflex" unicode="&#x15d;" horiz-adv-x="1032" 
d="M379 1229h-205l205 307h266l205 -307h-205l-133 153zM950 295c0 -96 -39.167 -172.497 -117.5 -229.497s-178.5 -85.5 -300.5 -85.5c-131.333 0 -239.166 32 -323.499 96s-126.5 151.333 -126.5 262h256c0 -53.333 17.833 -94.333 53.5 -123s82.5 -43 140.5 -43
c52 0 92.333 9.5 121 28.5s43 47.167 43 84.5c0 29.333 -11 53 -33 71s-50.5 31.5 -85.5 40.5s-73.667 17.167 -116 24.5s-84.666 17.333 -126.999 30s-81 29.167 -116 49.5s-63.5 50.333 -85.5 90s-33 87.834 -33 144.501c0 93.333 38 168.166 114 224.499
s172 84.5 288 84.5c122.667 0 225 -33.167 307 -99.5s123 -148.5 123 -246.5h-256c0 43.333 -16.5 79.5 -49.5 108.5s-74.5 43.5 -124.5 43.5c-46.667 0 -84 -9.33301 -112 -28s-42 -44.334 -42 -77.001c0 -23.333 8.66699 -42.833 26 -58.5s40 -27.334 68 -35.001
s60.167 -15.667 96.5 -24s73.166 -16 110.499 -23s74.166 -18.333 110.499 -34s68.5 -34 96.5 -55s50.667 -50.333 68 -88s26 -81.834 26 -132.501z" />
    <glyph glyph-name="Scedilla" unicode="&#x15e;" horiz-adv-x="993" 
d="M731 -307c0 -58.667 -21.333 -107.502 -64 -146.502s-97.667 -58.5 -165 -58.5s-122.5 16.333 -165.5 49s-64.5 72.334 -64.5 119.001h146c3.33301 -13.333 12.5 -24.166 27.5 -32.499s33.833 -12.5 56.5 -12.5c24.667 0 45.167 7.83301 61.5 23.5s24.5 35.167 24.5 58.5
s-8.16699 42.833 -24.5 58.5s-36.833 23.5 -61.5 23.5c-18 0 -33.667 -3.33301 -47 -10s-21.666 -13.667 -24.999 -21h-145l145 240c-102.667 14 -186.334 56.333 -251.001 127s-97 163.334 -97 278.001v123h246v-109c0 -60.667 15.833 -108.834 47.5 -144.501
s73.834 -53.5 126.501 -53.5c53.333 0 95.666 14.667 126.999 44s47 69.333 47 120c0 53.333 -13.833 100.166 -41.5 140.499s-67.167 78.833 -118.5 115.5l-174 125c-49.333 35.333 -90.5 70.833 -123.5 106.5s-60.667 80.5 -83 134.5s-33.5 113.333 -33.5 178
c0 66.667 10.333 125.334 31 176.001s49.5 91.167 86.5 121.5s78.833 52.833 125.5 67.5s98.334 22 155.001 22c76 0 143.667 -14.5 203 -43.5s107.166 -74.833 143.499 -137.5s54.5 -138.667 54.5 -228v-103h-246v97c0 64 -13.5 111.667 -40.5 143s-65.167 47 -114.5 47
c-46 0 -82.833 -14.167 -110.5 -42.5s-41.5 -68.166 -41.5 -119.499c0 -46.667 13 -87.334 39 -122.001s63.667 -69.667 113 -105l180 -129c76 -54.667 135.333 -114.667 178 -180s64 -143.333 64 -234c0 -120.667 -32.167 -216.5 -96.5 -287.5s-148.5 -113.5 -252.5 -127.5
l-59 -86h8c61.333 0 111.5 -20 150.5 -60s58.5 -88.333 58.5 -145z" />
    <glyph glyph-name="scedilla" unicode="&#x15f;" horiz-adv-x="1032" 
d="M762 -307c0 -58.667 -21.5 -107.497 -64.5 -146.497s-98.167 -58.5 -165.5 -58.5s-122.333 16.167 -165 48.5s-64 72.166 -64 119.499h146c3.33301 -13.333 12.333 -24.166 27 -32.499s33.334 -12.5 56.001 -12.5c24.667 0 45.167 7.83301 61.5 23.5
s24.5 35.167 24.5 58.5s-8.16699 42.833 -24.5 58.5s-36.833 23.5 -61.5 23.5c-18 0 -33.5 -3.33301 -46.5 -10s-21.167 -13.667 -24.5 -21h-146l146 240c-112.667 12 -204 49 -274 111s-105 143 -105 243h256c0 -53.333 17.833 -94.333 53.5 -123s82.5 -43 140.5 -43
c52 0 92.333 9.5 121 28.5s43 47.167 43 84.5c0 29.333 -11 53 -33 71s-50.5 31.5 -85.5 40.5s-73.667 17.167 -116 24.5s-84.666 17.333 -126.999 30s-81 29.167 -116 49.5s-63.5 50.333 -85.5 90s-33 87.834 -33 144.501c0 93.333 38 168.166 114 224.499
s172 84.5 288 84.5c122.667 0 225 -33.167 307 -99.5s123 -148.5 123 -246.5h-256c0 43.333 -16.5 79.5 -49.5 108.5s-74.5 43.5 -124.5 43.5c-46.667 0 -84 -9.33301 -112 -28s-42 -44.334 -42 -77.001c0 -23.333 8.66699 -42.833 26 -58.5s40 -27.334 68 -35.001
s60.167 -15.667 96.5 -24s73.166 -16 110.499 -23s74.166 -18.333 110.499 -34s68.5 -34 96.5 -55s50.667 -50.333 68 -88s26 -81.834 26 -132.501c0 -86 -32 -156.833 -96 -212.5s-148 -88.5 -252 -98.5l-57 -86h8c61.333 0 111.5 -20 150.5 -60s58.5 -88.333 58.5 -145z
" />
    <glyph glyph-name="Scaron" unicode="&#x160;" horiz-adv-x="993" 
d="M836 1987l-205 -308h-266l-205 308h205l133 -154l133 154h205zM102 1169c0 66.667 10.333 125.335 31 176.002s49.5 91.167 86.5 121.5s78.833 52.833 125.5 67.5s98.334 22 155.001 22c76 0 143.667 -14.5 203 -43.5s107.166 -74.833 143.499 -137.5
s54.5 -138.667 54.5 -228v-103h-246v97c0 64 -13.5 111.667 -40.5 143s-65.167 47 -114.5 47c-46 0 -82.833 -14.167 -110.5 -42.5s-41.5 -68.166 -41.5 -119.499c0 -46.667 13 -87.334 39 -122.001s63.667 -69.667 113 -105l180 -129c76 -54.667 135.333 -114.667 178 -180
s64 -143.333 64 -234s-19.167 -168.167 -57.5 -232.5s-88.666 -111.5 -150.999 -141.5s-132.833 -45 -211.5 -45c-120.667 0 -220.834 36.333 -300.501 109s-119.5 172.667 -119.5 300v123h246v-109c0 -60.667 15.833 -108.834 47.5 -144.501s73.834 -53.5 126.501 -53.5
c53.333 0 95.666 14.667 126.999 44s47 69.333 47 120c0 53.333 -13.833 100.166 -41.5 140.499s-67.167 78.833 -118.5 115.5l-174 125c-49.333 35.333 -90.5 70.833 -123.5 106.5s-60.667 80.5 -83 134.5s-33.5 113.333 -33.5 178z" />
    <glyph glyph-name="scaron" unicode="&#x161;" horiz-adv-x="1032" 
d="M850 1536l-205 -307h-266l-205 307h205l133 -154l133 154h205zM950 295c0 -96 -39.167 -172.497 -117.5 -229.497s-178.5 -85.5 -300.5 -85.5c-131.333 0 -239.166 32 -323.499 96s-126.5 151.333 -126.5 262h256c0 -53.333 17.833 -94.333 53.5 -123s82.5 -43 140.5 -43
c52 0 92.333 9.5 121 28.5s43 47.167 43 84.5c0 29.333 -11 53 -33 71s-50.5 31.5 -85.5 40.5s-73.667 17.167 -116 24.5s-84.666 17.333 -126.999 30s-81 29.167 -116 49.5s-63.5 50.333 -85.5 90s-33 87.834 -33 144.501c0 93.333 38 168.166 114 224.499
s172 84.5 288 84.5c122.667 0 225 -33.167 307 -99.5s123 -148.5 123 -246.5h-256c0 43.333 -16.5 79.5 -49.5 108.5s-74.5 43.5 -124.5 43.5c-46.667 0 -84 -9.33301 -112 -28s-42 -44.334 -42 -77.001c0 -23.333 8.66699 -42.833 26 -58.5s40 -27.334 68 -35.001
s60.167 -15.667 96.5 -24s73.166 -16 110.499 -23s74.166 -18.333 110.499 -34s68.5 -34 96.5 -55s50.667 -50.333 68 -88s26 -81.834 26 -132.501z" />
    <glyph glyph-name="Tcommaaccent" unicode="&#x162;" horiz-adv-x="888" 
d="M20 1311v225h848v-225h-301v-1311h-245v1311h-302zM424 -430h-164l62 307h245z" />
    <glyph glyph-name="tcommaaccent" unicode="&#x163;" horiz-adv-x="798" 
d="M451 350c0 -50 12.332 -86.667 36.999 -110s63.334 -35 116.001 -35c40 0 77.667 6 113 18v-219c-49.333 -16 -103.333 -24 -162 -24c-53.333 0 -100.333 5.83301 -141 17.5s-77.167 30.5 -109.5 56.5s-57 62.5 -74 109.5s-25.5 103.833 -25.5 170.5v475h-164v215h164
v307h246v-307h266v-215h-266v-459zM462.999 -430h-164l61 307h246z" />
    <glyph glyph-name="Tcaron" unicode="&#x164;" horiz-adv-x="888" 
d="M780 1987l-205 -308h-266l-205 308h205l133 -154l133 154h205zM20 1311v225h848v-225h-301v-1311h-245v1311h-302z" />
    <glyph glyph-name="tcaron" unicode="&#x165;" horiz-adv-x="798" 
d="M573 1536h236l-98 -379h-138v379zM451 350c0 -50 12.332 -86.667 36.999 -110s63.334 -35 116.001 -35c40 0 77.667 6 113 18v-219c-49.333 -16 -103.333 -24 -162 -24c-53.333 0 -100.333 5.83301 -141 17.5s-77.167 30.5 -109.5 56.5s-57 62.5 -74 109.5
s-25.5 103.833 -25.5 170.5v475h-164v215h164v307h246v-307h266v-215h-266v-459z" />
    <glyph glyph-name="Tbar" unicode="&#x166;" horiz-adv-x="888" 
d="M20 1311v225h848v-225h-301v-287h205v-164h-205v-860h-245v860h-205v164h205v287h-302z" />
    <glyph glyph-name="tbar" unicode="&#x167;" horiz-adv-x="798" 
d="M717 4c-49.333 -16 -103.334 -24 -162.001 -24c-53.333 0 -100.333 5.83301 -141 17.5s-77.167 30.5 -109.5 56.5s-57 62.5 -74 109.5s-25.5 103.833 -25.5 170.5v168h-115v143h115v164h-164v215h164v307h246v-307h266v-215h-266v-164h202v-143h-202v-152
c0 -50 12.333 -86.667 37 -110s63.334 -35 116.001 -35c40 0 77.667 6 113 18v-219z" />
    <glyph glyph-name="Utilde" unicode="&#x168;" horiz-adv-x="1167" 
d="M236 1679v103c0 136.667 58.667 205 176 205c29.333 0 59.333 -5.83301 90 -17.5s56.834 -24.667 78.501 -39s44.334 -27.333 68.001 -39s43.834 -17.5 60.501 -17.5c39.333 0 59 23.333 59 70v43h164v-103c0 -136.667 -58.667 -205 -176 -205
c-29.333 0 -59.333 5.83301 -90 17.5s-56.834 24.667 -78.501 39s-44.334 27.333 -68.001 39s-43.834 17.5 -60.501 17.5c-40 0 -60 -23.333 -60 -70v-43h-163zM133 1536h245.998v-1055c0 -99.333 17.167 -170.166 51.5 -212.499s85.5 -63.5 153.5 -63.5
c66.667 0 117.334 21.167 152.001 63.5s52 113.166 52 212.499v1055h246v-1055c0 -165.333 -39.167 -290.166 -117.5 -374.499s-189.166 -126.5 -332.499 -126.5s-254.333 42.167 -333 126.5s-118 209.166 -118 374.499v1055z" />
    <glyph glyph-name="utilde" unicode="&#x169;" horiz-adv-x="1187" 
d="M236 1229l-0.00195312 101.999c0 136.667 58.667 205 176 205c29.333 0 59.333 -5.83301 90 -17.5s56.834 -24.667 78.501 -39s44.334 -27.333 68.001 -39s43.834 -17.5 60.501 -17.5c39.333 0 59 23.333 59 70v43h164v-102c0 -136.667 -58.667 -205 -176 -205
c-36.667 0 -74.334 9.33301 -113.001 28s-74 37.334 -106 56.001s-58 28 -78 28c-40 0 -60 -23 -60 -69v-43h-163zM798.998 -0.000976562v145.002c-30.667 -52.667 -71 -93.334 -121 -122.001s-106 -43 -168 -43c-112 0 -202.833 37.167 -272.5 111.5
s-104.5 181.166 -104.5 320.499v612h246v-563c0 -85.333 18.667 -151 56 -197s89 -69 155 -69c65.333 0 116.5 23 153.5 69s55.5 111.667 55.5 197v563h245v-1024h-245z" />
    <glyph glyph-name="Umacron" unicode="&#x16a;" horiz-adv-x="1167" 
d="M881 1864v-164h-574v164h574zM133 1536h245.998v-1055c0 -99.333 17.167 -170.166 51.5 -212.499s85.5 -63.5 153.5 -63.5c66.667 0 117.334 21.167 152.001 63.5s52 113.166 52 212.499v1055h246v-1055c0 -165.333 -39.167 -290.166 -117.5 -374.499
s-189.166 -126.5 -332.499 -126.5s-254.333 42.167 -333 126.5s-118 209.166 -118 374.499v1055z" />
    <glyph glyph-name="umacron" unicode="&#x16b;" horiz-adv-x="1187" 
d="M881 1413v-164h-574v164h574zM799 0v145.002c-30.667 -52.667 -71 -93.334 -121 -122.001s-106 -43 -168 -43c-112 0 -202.833 37.167 -272.5 111.5s-104.5 181.166 -104.5 320.499v612h246v-563c0 -85.333 18.667 -151 56 -197s89 -69 155 -69
c65.333 0 116.5 23 153.5 69s55.5 111.667 55.5 197v563h245v-1024h-245z" />
    <glyph glyph-name="Ubreve" unicode="&#x16c;" horiz-adv-x="1167" 
d="M711 1987h193.999c0 -95.333 -29.167 -170.5 -87.5 -225.5s-136.166 -82.5 -233.499 -82.5c-96 0 -173.333 27.5 -232 82.5s-88 130.167 -88 225.5h195c0 -44.667 11.833 -78.167 35.5 -100.5s53.5 -33.5 89.5 -33.5c38 0 68.667 11.167 92 33.5s35 55.833 35 100.5z
M132.999 1536h245.998v-1055c0 -99.333 17.167 -170.166 51.5 -212.499s85.5 -63.5 153.5 -63.5c66.667 0 117.334 21.167 152.001 63.5s52 113.166 52 212.499v1055h246v-1055c0 -165.333 -39.167 -290.166 -117.5 -374.499s-189.166 -126.5 -332.499 -126.5
s-254.333 42.167 -333 126.5s-118 209.166 -118 374.499v1055z" />
    <glyph glyph-name="ubreve" unicode="&#x16d;" horiz-adv-x="1187" 
d="M711 1536h193.999c0 -95.333 -29.167 -170.333 -87.5 -225s-136.166 -82 -233.499 -82c-96.667 0 -174.167 27.333 -232.5 82s-87.5 129.667 -87.5 225h195c0 -44 11.833 -77.167 35.5 -99.5s53.5 -33.5 89.5 -33.5c38 0 68.667 11 92 33s35 55.333 35 100zM798.999 0
v145.002c-30.667 -52.667 -71 -93.334 -121 -122.001s-106 -43 -168 -43c-112 0 -202.833 37.167 -272.5 111.5s-104.5 181.166 -104.5 320.499v612h246v-563c0 -85.333 18.667 -151 56 -197s89 -69 155 -69c65.333 0 116.5 23 153.5 69s55.5 111.667 55.5 197v563h245
v-1024h-245z" />
    <glyph glyph-name="Uring" unicode="&#x16e;" horiz-adv-x="1167" 
d="M584 1618c-64 0 -116.166 18.5 -156.499 55.5s-60.5 83.167 -60.5 138.5c0 54 20.333 100 61 138s92.667 57 156 57c64 0 116.5 -19 157.5 -57s61.5 -84 61.5 -138c0 -55.333 -20.333 -101.5 -61 -138.5s-93.334 -55.5 -158.001 -55.5zM584.001 1741
c21.333 0 39.166 6.66602 53.499 19.999s21.5 30.333 21.5 51s-7.16699 37.834 -21.5 51.501s-32.166 20.5 -53.499 20.5c-20 0 -37.333 -7 -52 -21s-22 -31 -22 -51s7.33301 -36.833 22 -50.5s32 -20.5 52 -20.5zM133.001 1536h245.998v-1055
c0 -99.333 17.167 -170.166 51.5 -212.499s85.5 -63.5 153.5 -63.5c66.667 0 117.334 21.167 152.001 63.5s52 113.166 52 212.499v1055h246v-1055c0 -165.333 -39.167 -290.166 -117.5 -374.499s-189.166 -126.5 -332.499 -126.5s-254.333 42.167 -333 126.5
s-118 209.166 -118 374.499v1055z" />
    <glyph glyph-name="uring" unicode="&#x16f;" horiz-adv-x="1187" 
d="M584 1167c-63.333 0 -115.332 18.667 -155.999 56s-61 83.666 -61 138.999c0 54 20.333 99.833 61 137.5s92.667 56.5 156 56.5c64 0 116.5 -18.833 157.5 -56.5s61.5 -83.5 61.5 -137.5c0 -55.333 -20.333 -101.666 -61 -138.999s-93.334 -56 -158.001 -56z
M584.001 1290c21.333 0 39.166 6.83105 53.499 20.498s21.5 30.834 21.5 51.501s-7.16699 37.834 -21.5 51.501s-32.166 20.5 -53.499 20.5c-20 0 -37.333 -7 -52 -21s-22 -31 -22 -51s7.33301 -37 22 -51s32 -21 52 -21zM799.001 -0.00195312v145.002
c-30.667 -52.667 -71 -93.334 -121 -122.001s-106 -43 -168 -43c-112 0 -202.833 37.167 -272.5 111.5s-104.5 181.166 -104.5 320.499v612h246v-563c0 -85.333 18.667 -151 56 -197s89 -69 155 -69c65.333 0 116.5 23 153.5 69s55.5 111.667 55.5 197v563h245v-1024h-245z
" />
    <glyph glyph-name="Uhungarumlaut" unicode="&#x170;" horiz-adv-x="1167" 
d="M492 1679h-164l61 308h246zM860 1679h-164l62 308h246zM133 1536h245.998v-1055c0 -99.333 17.167 -170.166 51.5 -212.499s85.5 -63.5 153.5 -63.5c66.667 0 117.334 21.167 152.001 63.5s52 113.166 52 212.499v1055h246v-1055
c0 -165.333 -39.167 -290.166 -117.5 -374.499s-189.166 -126.5 -332.499 -126.5s-254.333 42.167 -333 126.5s-118 209.166 -118 374.499v1055z" />
    <glyph glyph-name="uhungarumlaut" unicode="&#x171;" horiz-adv-x="1187" 
d="M492 1229h-164l61 307h246zM860 1229h-164l62 307h246zM799 0v145.002c-30.667 -52.667 -71 -93.334 -121 -122.001s-106 -43 -168 -43c-112 0 -202.833 37.167 -272.5 111.5s-104.5 181.166 -104.5 320.499v612h246v-563c0 -85.333 18.667 -151 56 -197s89 -69 155 -69
c65.333 0 116.5 23 153.5 69s55.5 111.667 55.5 197v563h245v-1024h-245z" />
    <glyph glyph-name="Uogonek" unicode="&#x172;" horiz-adv-x="1167" 
d="M834 -324c0 -60 -23.833 -107.999 -71.5 -143.999s-110.834 -54 -189.501 -54c-72 0 -129.833 16.167 -173.5 48.5s-65.5 75.5 -65.5 129.5c0 20.667 2.66699 41.167 8 61.5s16.166 44.166 32.499 71.499l35 58c7 11.333 24.333 35.5 52 72.5l48.5 64.5
c-120 14 -212.833 62.833 -278.5 146.5s-98.5 200.5 -98.5 350.5v1055h246v-1055c0 -99.333 17.167 -170.166 51.5 -212.499s85.5 -63.5 153.5 -63.5c66.667 0 117.334 21.167 152.001 63.5s52 113.166 52 212.499v1055h246v-1055c0 -150.667 -33 -267.667 -99 -351
s-160 -132 -282 -146c-54.667 -79.333 -92.5 -141.833 -113.5 -187.5s-31.5 -85.167 -31.5 -118.5c0 -44.667 24 -67 72 -67c42.667 0 68.334 21.667 77.001 65h177z" />
    <glyph glyph-name="uogonek" unicode="&#x173;" horiz-adv-x="1187" 
d="M610 -344c0 22 3.16797 44.0029 9.50098 66.0029s17.333 46 33 72s29.167 47.167 40.5 63.5s29.333 40.666 54 72.999l52 69.5v145c-30.667 -52.667 -71 -93.334 -121 -122.001s-106 -43 -168 -43c-112 0 -202.833 37.167 -272.5 111.5s-104.5 181.166 -104.5 320.499
v612h246v-563c0 -85.333 18.667 -151 56 -197s89 -69 155 -69c65.333 0 116.5 23 153.5 69s55.5 111.667 55.5 197v563h245v-1024h-102c-60 -86 -101.333 -152.5 -124 -199.5s-34 -87.833 -34 -122.5c0 -44.667 24 -67 72 -67c21.333 0 38.666 5.83301 51.999 17.5
s22 27.5 26 47.5h176c0 -60 -23.667 -108 -71 -144s-110.333 -54 -189 -54c-72 0 -130 16.167 -174 48.5s-66 75.5 -66 129.5z" />
    <glyph glyph-name="Wcircumflex" unicode="&#x174;" horiz-adv-x="1536" 
d="M633 1679h-205l205 308h266l205 -308h-205l-133 154zM1516 1536l-211 -1536h-371l-166 1296l-166 -1296h-371l-211 1536h246l156 -1260l162 1260h368l162 -1260l156 1260h246z" />
    <glyph glyph-name="wcircumflex" unicode="&#x175;" horiz-adv-x="1566" 
d="M643 1229h-205l205 307h266l205 -307h-205l-133 153zM1536 1024l-256 -1024h-313l-183 797l-184 -797h-313l-256 1024h235l180 -795l181 795h313l180 -795l180 795h236z" />
    <glyph glyph-name="Ycircumflex" unicode="&#x176;" horiz-adv-x="983" 
d="M356 1679h-204l204 308h267l204 -308h-204l-134 154zM614 614v-614h-245v614l-369 922h246l246 -651l245 651h246z" />
    <glyph glyph-name="ycircumflex" unicode="&#x177;" horiz-adv-x="1026" 
d="M401 1229h-204l204 307h267l204 -307h-204l-133 153zM629 -106c-23.333 -68 -47.3311 -126 -71.998 -174s-54.834 -92 -90.501 -132s-77.834 -70 -126.501 -90s-104.667 -30 -168 -30c-58 0 -110.667 7.33301 -158 22v217c48 -14.667 93.333 -22 136 -22
c56.667 0 104.167 17 142.5 51s72.5 87.333 102.5 160l-385 1128h246l256 -788l258 788h246z" />
    <glyph glyph-name="Ydieresis" unicode="&#x178;" horiz-adv-x="983" 
d="M287 1700c-36 0 -67.167 13.167 -93.5 39.5s-39.5 57.5 -39.5 93.5s13.167 67.167 39.5 93.5s57.5 39.5 93.5 39.5c36.667 0 68 -13.167 94 -39.5s39 -57.5 39 -93.5s-13 -67.167 -39 -93.5s-57.333 -39.5 -94 -39.5zM696 1700c-36 0 -67.167 13.167 -93.5 39.5
s-39.5 57.5 -39.5 93.5s13.167 67.167 39.5 93.5s57.5 39.5 93.5 39.5c36.667 0 68 -13.167 94 -39.5s39 -57.5 39 -93.5s-13 -67.167 -39 -93.5s-57.333 -39.5 -94 -39.5zM614 614v-614h-245v614l-369 922h246l246 -651l245 651h246z" />
    <glyph glyph-name="Zacute" unicode="&#x179;" horiz-adv-x="901" 
d="M569 1679h-204l122 308h267zM860 225v-225h-799v287l547 1024h-536v225h768v-287l-545 -1024h565z" />
    <glyph glyph-name="zacute" unicode="&#x17a;" horiz-adv-x="962" 
d="M594 1229h-205l123 307h266zM911 215v-215h-839v276l553 533h-543v215h788v-276l-553 -533h594z" />
    <glyph glyph-name="Zdotaccent" unicode="&#x17b;" horiz-adv-x="901" 
d="M457 1679c-44 0 -80.667 14.833 -110 44.5s-44 66.167 -44 109.5c0 44 14.667 80.667 44 110s66 44 110 44c44.667 0 81.334 -14.667 110.001 -44s43 -66 43 -110c0 -43.333 -14.333 -79.833 -43 -109.5s-65.334 -44.5 -110.001 -44.5zM860 225v-225h-799v287l547 1024
h-536v225h768v-287l-545 -1024h565z" />
    <glyph glyph-name="zdotaccent" unicode="&#x17c;" horiz-adv-x="962" 
d="M481 1229c-44 0 -80.5 14.667 -109.5 44s-43.5 65.666 -43.5 108.999c0 44 14.5 80.667 43.5 110s65.5 44 109.5 44c44.667 0 81.5 -14.667 110.5 -44s43.5 -66 43.5 -110c0 -43.333 -14.5 -79.666 -43.5 -108.999s-65.833 -44 -110.5 -44zM911 215v-215h-839v276
l553 533h-543v215h788v-276l-553 -533h594z" />
    <glyph glyph-name="Zcaron" unicode="&#x17d;" horiz-adv-x="901" 
d="M793 1987l-205 -308h-266l-205 308h205l133 -154l133 154h205zM860 225v-225h-799v287l547 1024h-536v225h768v-287l-545 -1024h565z" />
    <glyph glyph-name="zcaron" unicode="&#x17e;" horiz-adv-x="962" 
d="M819 1536l-205 -307h-266l-205 307h205l133 -154l133 154h205zM911 215v-215h-839v276l553 533h-543v215h788v-276l-553 -533h594z" />
    <glyph glyph-name="florin" unicode="&#x192;" 
d="M891 676l-324 -0.000976562l-252 -1188h-245l252 1188h-168v143h198l76 359c28 132.667 81.167 228.834 159.5 288.501s184.166 89.5 317.499 89.5c40 0 75.667 -4.66699 107 -14v-225c-25.333 9.33301 -69.666 14 -132.999 14c-116 0 -184.333 -53.333 -205 -160
l-76 -352h293v-143z" />
    <glyph glyph-name="Aringacute" unicode="&#x1fa;" horiz-adv-x="1044" 
d="M614 2089h-204l122 307h267zM522 1618c-64 0 -116.166 18.5 -156.499 55.5s-60.5 83.167 -60.5 138.5c0 54 20.333 100 61 138s92.667 57 156 57c64 0 116.5 -19 157.5 -57s61.5 -84 61.5 -138c0 -55.333 -20.333 -101.5 -61 -138.5s-93.334 -55.5 -158.001 -55.5z
M522.001 1741c21.333 0 39.333 6.66602 54 19.999s22 30.333 22 51s-7.33301 37.834 -22 51.501s-32.667 20.5 -54 20.5c-20 0 -37.167 -7 -51.5 -21s-21.5 -31 -21.5 -51s7.16699 -36.833 21.5 -50.5s31.5 -20.5 51.5 -20.5zM20.001 -0.000976562l318 1536h369l317 -1536
h-248l-67 348h-373l-68 -348h-248zM379.001 572.999h287l-144 740z" />
    <glyph glyph-name="aringacute" unicode="&#x1fb;" 
d="M680 1679h-205l123 308h266zM569 1167c-63.333 0 -115.332 18.667 -155.999 56s-61 83.666 -61 138.999c0 54 20.333 99.833 61 137.5s92.667 56.5 156 56.5c64 0 116.5 -18.833 157.5 -56.5s61.5 -83.5 61.5 -137.5c0 -55.333 -20.333 -101.666 -61 -138.999
s-93.334 -56 -158.001 -56zM569.001 1290c21.333 0 39.333 6.83105 54 20.498s22 30.834 22 51.501s-7.33301 37.834 -22 51.501s-32.667 20.5 -54 20.5c-20 0 -37.167 -7 -51.5 -21s-21.5 -31 -21.5 -51s7.16699 -37 21.5 -51s31.5 -21 51.5 -21zM762.001 -0.00195312
v151.998c-62.667 -114.667 -171.334 -172 -326.001 -172c-61.333 0 -117.166 9.66699 -167.499 29s-92.333 51.833 -126 97.5s-50.5 101.5 -50.5 167.5c0 52.667 9.5 98.334 28.5 137.001s44.167 68.667 75.5 90s67 39.5 107 54.5s80.667 25.5 122 31.5s82 12.667 122 20
s75.667 14.5 107 21.5s56.5 18.5 75.5 34.5s28.5 36 28.5 60c0 38.667 -17.833 69.5 -53.5 92.5s-80.834 34.5 -135.501 34.5c-58 0 -104.167 -15 -138.5 -45s-51.5 -73 -51.5 -129h-256c0 64 12.333 120.333 37 169s58.334 87.167 101.001 115.5s89.834 49.333 141.501 63
s107.167 20.5 166.5 20.5c58.667 0 113.167 -6.16699 163.5 -18.5s96.166 -31.166 137.499 -56.499s74 -59.833 98 -103.5s36 -94.5 36 -152.5v-713h-242zM344.001 290.996c0 -34.667 13.168 -61.1689 39.501 -79.502s60.833 -27.5 103.5 -27.5c76 0 140.833 21 194.5 63
s80.5 100.333 80.5 175v47c-28 -12 -63 -22.5 -105 -31.5s-80 -16.667 -114 -23s-66.833 -14.166 -98.5 -23.499s-56.334 -22.166 -74.001 -38.499s-26.5 -36.833 -26.5 -61.5z" />
    <glyph glyph-name="AEacute" unicode="&#x1fc;" horiz-adv-x="1597" 
d="M1047 1679h-205l123 308h266zM1516 225v-225h-705v348h-410l-143 -348h-258l651 1536h865v-225h-459v-410h418v-225h-418v-451h459zM494 573h317v773z" />
    <glyph glyph-name="aeacute" unicode="&#x1fd;" horiz-adv-x="1855" 
d="M1004 1229h-205l123 307h266zM1784 512c0 -18.667 -1.3291 -46.0029 -3.99609 -82.0029h-770c13.333 -75.333 43.833 -133.333 91.5 -174s109.167 -61 184.5 -61c102.667 0 171 37.333 205 112h266c-30 -105.333 -87.167 -186.166 -171.5 -242.499
s-187.5 -84.5 -309.5 -84.5c-88 0 -168 18.667 -240 56s-130.667 89.666 -176 156.999c-65.333 -142 -196.333 -213 -393 -213c-50 0 -96.833 5.83301 -140.5 17.5s-83.334 28.834 -119.001 51.501s-63.834 53.334 -84.501 92.001s-31 83 -31 133
c0 52.667 9.5 98.334 28.5 137.001s44.167 68.667 75.5 90s67 39.5 107 54.5s80.667 25.5 122 31.5s82 12.667 122 20s75.667 14.5 107 21.5s56.5 18.5 75.5 34.5s28.5 36 28.5 60c0 38.667 -17.833 69.5 -53.5 92.5s-80.834 34.5 -135.501 34.5
c-58 0 -104.167 -15 -138.5 -45s-51.5 -73 -51.5 -129h-256c0 51.333 7.83301 98 23.5 140s36.834 77 63.501 105s58.334 51.333 95.001 70s75.167 32.167 115.5 40.5s83.166 12.5 128.499 12.5c79.333 0 150.666 -12.167 213.999 -36.5s112.666 -61.833 147.999 -112.5
c95.333 99.333 217 149 365 149c147.333 0 268.833 -49.667 364.5 -149s143.5 -227 143.5 -383zM1276 828.997c-71.333 0 -129.833 -19.5 -175.5 -58.5s-75.167 -94.5 -88.5 -166.5h528c-13.333 72 -42.833 127.5 -88.5 166.5s-104.167 58.5 -175.5 58.5zM344.004 290.997
c0 -34.667 13.168 -61.1689 39.501 -79.502s60.833 -27.5 103.5 -27.5c76 0 140.833 21 194.5 63s80.5 100.333 80.5 175v47c-28 -12 -63 -22.5 -105 -31.5s-80 -16.667 -114 -23s-66.833 -14.166 -98.5 -23.499s-56.334 -22.166 -74.001 -38.499s-26.5 -36.833 -26.5 -61.5
z" />
    <glyph glyph-name="Oslashacute" unicode="&#x1fe;" horiz-adv-x="1167" 
d="M696 1679h-204l122 308h267zM1044 512c0 -172 -39.5 -303.667 -118.5 -395s-182.833 -137 -311.5 -137c-118 0 -204 27 -258 81l-28 -61h-205l90 195c-60 69.333 -90 175 -90 317v512c0 172 39.5 303.667 118.5 395s182.833 137 311.5 137c118 0 204 -27 258 -81l29 61
h204l-90 -195c60 -69.333 90 -175 90 -317v-512zM369 1024l-0.000976562 -498l354 758c-35.333 31.333 -81.666 47 -138.999 47c-71.333 0 -125 -23.5 -161 -70.5s-54 -125.833 -54 -236.5zM798.999 512v498l-355 -758c35.333 -31.333 82 -47 140 -47
c71.333 0 125 23.5 161 70.5s54 125.833 54 236.5z" />
    <glyph glyph-name="oslashacute" unicode="&#x1ff;" horiz-adv-x="1187" 
d="M707 1229h-205l123 307h266zM1116 512c0 -155.333 -49.333 -282.833 -148 -382.5s-223.334 -149.5 -374.001 -149.5c-89.333 0 -172 19 -248 57l-29 -37h-245l123 158c-82 94.667 -123 212.667 -123 354c0 155.333 49.333 282.833 148 382.5s223.334 149.5 374.001 149.5
c89.333 0 172 -19 248 -57l28 37h246l-123 -158c82 -94.667 123 -212.667 123 -354zM317 512c0 -55.333 11 -106.667 33 -154l346 443c-30.667 12 -64.667 18 -102 18c-80 0 -146.167 -28.5 -198.5 -85.5s-78.5 -130.833 -78.5 -221.5zM870 511.999
c0 56.667 -10.667 108 -32 154l-346 -443c30.667 -12 64.667 -18 102 -18c80 0 146 28.333 198 85s78 130.667 78 222z" />
    <glyph glyph-name="Scommaaccent" unicode="&#x218;" horiz-adv-x="993" 
d="M102 1169c0 66.667 10.333 125.335 31 176.002s49.5 91.167 86.5 121.5s78.833 52.833 125.5 67.5s98.334 22 155.001 22c76 0 143.667 -14.5 203 -43.5s107.166 -74.833 143.499 -137.5s54.5 -138.667 54.5 -228v-103h-246v97c0 64 -13.5 111.667 -40.5 143
s-65.167 47 -114.5 47c-46 0 -82.833 -14.167 -110.5 -42.5s-41.5 -68.166 -41.5 -119.499c0 -46.667 13 -87.334 39 -122.001s63.667 -69.667 113 -105l180 -129c76 -54.667 135.333 -114.667 178 -180s64 -143.333 64 -234s-19.167 -168.167 -57.5 -232.5
s-88.666 -111.5 -150.999 -141.5s-132.833 -45 -211.5 -45c-120.667 0 -220.834 36.333 -300.501 109s-119.5 172.667 -119.5 300v123h246v-109c0 -60.667 15.833 -108.834 47.5 -144.501s73.834 -53.5 126.501 -53.5c53.333 0 95.666 14.667 126.999 44s47 69.333 47 120
c0 53.333 -13.833 100.166 -41.5 140.499s-67.167 78.833 -118.5 115.5l-174 125c-49.333 35.333 -90.5 70.833 -123.5 106.5s-60.667 80.5 -83 134.5s-33.5 113.333 -33.5 178zM481 -429.999h-164l62 307h246z" />
    <glyph glyph-name="scommaaccent" unicode="&#x219;" horiz-adv-x="1032" 
d="M950 295c0 -96 -39.167 -172.497 -117.5 -229.497s-178.5 -85.5 -300.5 -85.5c-131.333 0 -239.166 32 -323.499 96s-126.5 151.333 -126.5 262h256c0 -53.333 17.833 -94.333 53.5 -123s82.5 -43 140.5 -43c52 0 92.333 9.5 121 28.5s43 47.167 43 84.5
c0 29.333 -11 53 -33 71s-50.5 31.5 -85.5 40.5s-73.667 17.167 -116 24.5s-84.666 17.333 -126.999 30s-81 29.167 -116 49.5s-63.5 50.333 -85.5 90s-33 87.834 -33 144.501c0 93.333 38 168.166 114 224.499s172 84.5 288 84.5c122.667 0 225 -33.167 307 -99.5
s123 -148.5 123 -246.5h-256c0 43.333 -16.5 79.5 -49.5 108.5s-74.5 43.5 -124.5 43.5c-46.667 0 -84 -9.33301 -112 -28s-42 -44.334 -42 -77.001c0 -23.333 8.66699 -42.833 26 -58.5s40 -27.334 68 -35.001s60.167 -15.667 96.5 -24s73.166 -16 110.499 -23
s74.166 -18.333 110.499 -34s68.5 -34 96.5 -55s50.667 -50.333 68 -88s26 -81.834 26 -132.501zM512 -429.997h-164l62 307h245z" />
    <glyph glyph-name="dotlessj" unicode="&#x237;" horiz-adv-x="532" 
d="M143 -147v1171h246v-1178c0 -238.667 -121.333 -358 -364 -358c-50 0 -85.667 2.66699 -107 8v223c23.333 -4 48 -6 74 -6c50.667 0 88.5 10.167 113.5 30.5s37.5 56.833 37.5 109.5z" />
    <glyph glyph-name="uni02BC" unicode="&#x2bc;" horiz-adv-x="430" 
d="M367 1389c0 -106 -50.665 -234.334 -151.998 -385.001h-135c65.333 108.667 107.666 197.334 126.999 266.001c-36.667 2 -68.334 17 -95.001 45s-40 60.667 -40 98c0 39.333 14 73 42 101s61.667 42 101 42c42.667 0 78.667 -15.5 108 -46.5s44 -71.167 44 -120.5z" />
    <glyph glyph-name="circumflex" unicode="&#x2c6;" horiz-adv-x="1024" 
d="M379 1229h-205l205 307h266l205 -307h-205l-133 153z" />
    <glyph glyph-name="caron" unicode="&#x2c7;" horiz-adv-x="1024" 
d="M850 1536l-205 -307h-266l-205 307h205l133 -154l133 154h205z" />
    <glyph glyph-name="breve" unicode="&#x2d8;" horiz-adv-x="1024" 
d="M639 1536h195c0 -95.333 -29.333 -170.333 -88 -225s-136.667 -82 -234 -82c-96 0 -173.167 27.333 -231.5 82s-87.5 129.667 -87.5 225h194c0 -44 11.833 -77.167 35.5 -99.5s53.5 -33.5 89.5 -33.5c38 0 68.667 11 92 33s35 55.333 35 100z" />
    <glyph glyph-name="dotaccent" unicode="&#x2d9;" horiz-adv-x="1024" 
d="M512 1229c-44 0 -80.667 14.667 -110 44s-44 65.666 -44 108.999c0 44 14.667 80.667 44 110s66 44 110 44c44.667 0 81.5 -14.667 110.5 -44s43.5 -66 43.5 -110c0 -43.333 -14.5 -79.666 -43.5 -108.999s-65.833 -44 -110.5 -44z" />
    <glyph glyph-name="ring" unicode="&#x2da;" horiz-adv-x="1024" 
d="M512 1167c-63.333 0 -115.332 18.667 -155.999 56s-61 83.666 -61 138.999c0 54 20.333 99.833 61 137.5s92.667 56.5 156 56.5c64 0 116.5 -18.833 157.5 -56.5s61.5 -83.5 61.5 -137.5c0 -55.333 -20.333 -101.666 -61 -138.999s-93.334 -56 -158.001 -56z
M512.001 1290c21.333 0 39.333 6.83105 54 20.498s22 30.834 22 51.501s-7.33301 37.834 -22 51.501s-32.667 20.5 -54 20.5c-20 0 -37.333 -7 -52 -21s-22 -31 -22 -51s7.33301 -37 22 -51s32 -21 52 -21z" />
    <glyph glyph-name="ogonek" unicode="&#x2db;" horiz-adv-x="1024" 
d="M502 -522c-72 0 -129.999 16.168 -173.999 48.501s-66 75.5 -66 129.5c0 22 3.16699 44 9.5 66s17.333 46 33 72s29.167 47.167 40.5 63.5s29.333 40.666 54 72.999l52 69.5h143c-60 -86 -101.333 -152.5 -124 -199.5s-34 -87.833 -34 -122.5c0 -44.667 24 -67 72 -67
c21.333 0 38.666 5.83301 51.999 17.5s22 27.5 26 47.5h176c0 -60 -23.667 -108 -71 -144s-110.333 -54 -189 -54z" />
    <glyph glyph-name="tilde" unicode="&#x2dc;" horiz-adv-x="1024" 
d="M164 1229l-0.00195312 101.999c0 136.667 58.667 205 176 205c29.333 0 59.333 -5.83301 90 -17.5s56.834 -24.667 78.501 -39s44.334 -27.333 68.001 -39s43.834 -17.5 60.501 -17.5c39.333 0 59 23.333 59 70v43h164v-102c0 -136.667 -58.667 -205 -176 -205
c-36.667 0 -74.334 9.33301 -113.001 28s-74 37.334 -106 56.001s-58 28 -78 28c-39.333 0 -59 -23 -59 -69v-43h-164z" />
    <glyph glyph-name="hungarumlaut" unicode="&#x2dd;" horiz-adv-x="1024" 
d="M420 1229h-164l61 307h246zM788 1229h-163l61 307h246z" />
    <glyph glyph-name="Delta" unicode="&#x394;" horiz-adv-x="1044" 
d="M20 0l318 1536h369l317 -1536h-1004zM311 225h422l-211 1088z" />
    <glyph glyph-name="Omega" unicode="&#x3a9;" horiz-adv-x="1167" 
d="M1044 0l-419.001 -0.00292969v215c66 40.667 111.5 86.834 136.5 138.501s37.5 124.834 37.5 219.501v451c0 110.667 -18 189.5 -54 236.5s-89.667 70.5 -161 70.5c-70.667 0 -124.167 -23.5 -160.5 -70.5s-54.5 -125.833 -54.5 -236.5v-451
c0 -95.333 12.333 -168.666 37 -219.999s70.334 -97.333 137.001 -138v-215h-420v215h143c-95.333 69.333 -143 188.666 -143 357.999v451c0 174.667 40.333 307 121 397s194 135 340 135s259.167 -44.833 339.5 -134.5s120.5 -222.167 120.5 -397.5v-451
c0 -169.333 -47.667 -288.666 -143 -357.999h143v-215z" />
    <glyph glyph-name="mu" unicode="&#x3bc;" horiz-adv-x="1198" 
d="M389 -512l-246 0.000976562v1536h246v-563c0 -85.333 18.667 -151 56 -197s89 -69 155 -69c65.333 0 116.5 23 153.5 69s55.5 111.667 55.5 197v563h246v-1024h-246v145c-30.667 -52.667 -71 -93.334 -121 -122.001s-106 -43 -168 -43c-48 0 -91.667 6.66699 -131 20
v-512z" />
    <glyph glyph-name="pi" unicode="&#x3c0;" horiz-adv-x="1320" 
d="M133 809v215h1106v-215h-205v-809h-246v809h-210l-179 -809h-245l178 809h-199z" />
    <glyph glyph-name="afii10023" unicode="&#x401;" horiz-adv-x="929" 
d="M301 1700c-36 0 -67.167 13.167 -93.5 39.5s-39.5 57.5 -39.5 93.5s13.167 67.167 39.5 93.5s57.5 39.5 93.5 39.5c36.667 0 68 -13.167 94 -39.5s39 -57.5 39 -93.5s-13 -67.167 -39 -93.5s-57.333 -39.5 -94 -39.5zM711 1700c-36 0 -67.167 13.167 -93.5 39.5
s-39.5 57.5 -39.5 93.5s13.167 67.167 39.5 93.5s57.5 39.5 93.5 39.5c36.667 0 68 -13.167 94 -39.5s39 -57.5 39 -93.5s-13 -67.167 -39 -93.5s-57.333 -39.5 -94 -39.5zM143 0v1536h705v-225h-459v-410h418v-225h-418v-451h459v-225h-705z" />
    <glyph glyph-name="afii10051" unicode="&#x402;" horiz-adv-x="1253" 
d="M848 1311l-322.002 0.000976562v-398c60 15.333 121.667 23 185 23c77.333 0 142.333 -9 195 -27s94.667 -45.833 126 -83.5s53.833 -82.667 67.5 -135s20.5 -115.833 20.5 -190.5v-408c0 -238.667 -123.333 -358 -370 -358c-16.667 0 -33.5 0.666992 -50.5 2
s-29.5 2.66602 -37.5 3.99902l-13 2v223c20.667 -4 45.334 -6 74.001 -6c21.333 0 39.833 1.5 55.5 4.5s31.334 9 47.001 18s27.667 23.167 36 42.5s12.5 44 12.5 74v400c0 74 -13.5 128 -40.5 162s-77.5 51 -151.5 51c-66.667 0 -118.667 -7 -156 -21v-690h-245v1311h-261
v225h828v-225z" />
    <glyph glyph-name="afii10052" unicode="&#x403;" horiz-adv-x="888" 
d="M608 1679h-205l123 308h267zM143 0v1536h695v-225h-449v-1311h-246z" />
    <glyph glyph-name="afii10053" unicode="&#x404;" horiz-adv-x="1167" 
d="M1044 512c0 -175.333 -40.167 -307.833 -120.5 -397.5s-193.5 -134.5 -339.5 -134.5s-259.333 45 -340 135s-121 222.333 -121 397v512c0 174.667 40.333 307 121 397s194 135 340 135s259.167 -44.833 339.5 -134.5s120.5 -222.167 120.5 -397.5v-20h-245v20
c0 110.667 -18 189.5 -54 236.5s-89.667 70.5 -161 70.5c-70.667 0 -124.167 -23.5 -160.5 -70.5s-54.5 -125.833 -54.5 -236.5v-123h397v-225h-397v-164c0 -110.667 18 -189.5 54 -236.5s89.667 -70.5 161 -70.5c70.667 0 124.167 23.5 160.5 70.5s54.5 125.833 54.5 236.5
v41h245v-41z" />
    <glyph glyph-name="afii10054" unicode="&#x405;" horiz-adv-x="993" 
d="M102 1169c0 66.667 10.333 125.335 31 176.002s49.5 91.167 86.5 121.5s78.833 52.833 125.5 67.5s98.334 22 155.001 22c76 0 143.667 -14.5 203 -43.5s107.166 -74.833 143.499 -137.5s54.5 -138.667 54.5 -228v-103h-246v97c0 64 -13.5 111.667 -40.5 143
s-65.167 47 -114.5 47c-46 0 -82.833 -14.167 -110.5 -42.5s-41.5 -68.166 -41.5 -119.499c0 -46.667 13 -87.334 39 -122.001s63.667 -69.667 113 -105l180 -129c76 -54.667 135.333 -114.667 178 -180s64 -143.333 64 -234s-19.167 -168.167 -57.5 -232.5
s-88.666 -111.5 -150.999 -141.5s-132.833 -45 -211.5 -45c-120.667 0 -220.834 36.333 -300.501 109s-119.5 172.667 -119.5 300v123h246v-109c0 -60.667 15.833 -108.834 47.5 -144.501s73.834 -53.5 126.501 -53.5c53.333 0 95.666 14.667 126.999 44s47 69.333 47 120
c0 53.333 -13.833 100.166 -41.5 140.499s-67.167 78.833 -118.5 115.5l-174 125c-49.333 35.333 -90.5 70.833 -123.5 106.5s-60.667 80.5 -83 134.5s-33.5 113.333 -33.5 178z" />
    <glyph glyph-name="afii10055" unicode="&#x406;" horiz-adv-x="532" 
d="M389 0h-246v1536h246v-1536z" />
    <glyph glyph-name="afii10056" unicode="&#x407;" horiz-adv-x="532" 
d="M61 1700c-36 0 -67.167 13.167 -93.5 39.5s-39.5 57.5 -39.5 93.5s13.167 67.167 39.5 93.5s57.5 39.5 93.5 39.5c36.667 0 68.167 -13.167 94.5 -39.5s39.5 -57.5 39.5 -93.5s-13.167 -67.167 -39.5 -93.5s-57.833 -39.5 -94.5 -39.5zM471 1700
c-36 0 -67.167 13.167 -93.5 39.5s-39.5 57.5 -39.5 93.5s13.167 67.167 39.5 93.5s57.5 39.5 93.5 39.5c36.667 0 68 -13.167 94 -39.5s39 -57.5 39 -93.5s-13 -67.167 -39 -93.5s-57.333 -39.5 -94 -39.5zM389 0h-246v1536h246v-1536z" />
    <glyph glyph-name="afii10057" unicode="&#x408;" horiz-adv-x="1044" 
d="M676 1536l245.997 -0.000976562v-1126c0 -92.667 -19 -172 -57 -238s-88.167 -114.5 -150.5 -145.5s-133.166 -46.5 -212.499 -46.5s-150.166 15.5 -212.499 46.5s-112.5 79.5 -150.5 145.5s-57 145.333 -57 238v135h246v-115c0 -81.333 15 -139.166 45 -173.499
s73 -51.5 129 -51.5c56.667 0 99.834 17 129.501 51s44.5 92 44.5 174v1106z" />
    <glyph glyph-name="afii10058" unicode="&#x409;" horiz-adv-x="1634" 
d="M1593 481c0 -140 -42.167 -255.165 -126.5 -345.498s-201.833 -135.5 -352.5 -135.5h-401v1311h-269c0 -482 -9.33301 -807 -28 -975c-14.667 -124.667 -46 -211.834 -94 -261.501s-125.333 -74.5 -232 -74.5h-29v225h9c36.667 0 63.5 10.5 80.5 31.5
s30.167 51.5 39.5 91.5c12 49.333 19.833 166.166 23.5 350.499s5.5 463.5 5.5 837.5h739v-532h156c152.667 0 270.667 -41.833 354 -125.5s125 -195.5 125 -335.5v-62zM1081 778.002h-123v-553h123c96.667 0 165.334 23.5 206.001 70.5s61 115.833 61 206.5v20
c0 83.333 -20.333 146.833 -61 190.5s-109.334 65.5 -206.001 65.5z" />
    <glyph glyph-name="afii10059" unicode="&#x40a;" horiz-adv-x="1679" 
d="M1638 451c0 -138 -41.667 -247.667 -125 -329s-201.333 -122 -354 -122h-401v717h-369v-717h-246v1536h246v-594h369v594h246v-594h155c154.667 0 273.167 -37.333 355.5 -112s123.5 -180.667 123.5 -318v-61zM1126 717l-122 0.000976562v-492h122
c99.333 0 168.666 19.167 207.999 57.5s59 101.166 59 188.499v21c0 80 -19.667 137.5 -59 172.5s-108.666 52.5 -207.999 52.5z" />
    <glyph glyph-name="afii10060" unicode="&#x40b;" horiz-adv-x="1253" 
d="M848 1311h-322v-398c60 15.333 121.667 23 185 23c77.333 0 142.333 -9 195 -27s94.667 -45.833 126 -83.5s53.833 -82.667 67.5 -135s20.5 -115.833 20.5 -190.5v-500h-246v498c0 74 -13.5 128 -40.5 162s-77.5 51 -151.5 51c-66.667 0 -118.667 -7 -156 -21v-690h-245
v1311h-261v225h828v-225z" />
    <glyph glyph-name="afii10061" unicode="&#x40c;" horiz-adv-x="1062" 
d="M670 1679h-205l123 308h266zM768 0l-379 743v-743h-246v1536h246v-743l385 743h268l-403 -731l424 -805h-295z" />
    <glyph glyph-name="afii10062" unicode="&#x40e;" horiz-adv-x="1003" 
d="M637 1987h193.999c0 -95.333 -29.167 -170.5 -87.5 -225.5s-136.166 -82.5 -233.499 -82.5c-96 0 -173.333 27.5 -232 82.5s-88 130.167 -88 225.5h195c0 -44.667 11.833 -78.167 35.5 -100.5s53.5 -33.5 89.5 -33.5c38 0 68.667 11.167 92 33.5s35 55.833 35 100.5z
M685.999 428c-16 -60.667 -31.8369 -112.668 -47.5039 -156.001s-34.167 -84.5 -55.5 -123.5s-44.666 -70.167 -69.999 -93.5s-55.166 -41.666 -89.499 -54.999s-73.166 -20 -116.499 -20c-62 0 -114.333 7.33301 -157 22v217c36.667 -9.33301 73.334 -14 110.001 -14
c60.667 0 107 20.333 139 61l-379 1270h254l242 -926l219 926h248z" />
    <glyph glyph-name="afii10145" unicode="&#x40f;" horiz-adv-x="1198" 
d="M1055 1536v-1536h-344v-276h-224v276h-344v1536h246v-1311h420v1311h246z" />
    <glyph glyph-name="afii10017" unicode="&#x410;" horiz-adv-x="1044" 
d="M20 0l318 1536h369l317 -1536h-248l-67 348h-373l-68 -348h-248zM379 573h287l-144 740z" />
    <glyph glyph-name="afii10018" unicode="&#x411;" horiz-adv-x="1085" 
d="M143 0v1536h764v-225h-518v-369h174c135.333 0 242.666 -36.5 321.999 -109.5s119 -183.167 119 -330.5v-62c0 -152 -39.167 -263.333 -117.5 -334s-186.166 -106 -323.499 -106h-420zM537 717h-148v-492h152c78 0 133.667 19.5 167 58.5s50 99.5 50 181.5v18
c0 82 -16.667 141.5 -50 178.5s-90.333 55.5 -171 55.5z" />
    <glyph glyph-name="afii10019" unicode="&#x412;" 
d="M143 0l0.000976562 1536h437c129.333 0 232.333 -32.833 309 -98.5s115 -159.167 115 -280.5v-20c0 -141.333 -61 -241 -183 -299c69.333 -29.333 123.833 -74.5 163.5 -135.5s59.5 -134.833 59.5 -221.5v-41c0 -140 -38.333 -248.333 -115 -325
s-179.334 -115 -308.001 -115h-478zM559.001 1311l-170 -0.000976562v-389h170c65.333 0 114.833 15.5 148.5 46.5s50.5 80.167 50.5 147.5v21c0 60.667 -16.833 104.834 -50.5 132.501s-83.167 41.5 -148.5 41.5zM600.001 695.999h-211v-471h211
c65.333 0 114.833 18.833 148.5 56.5s50.5 97.5 50.5 179.5v20c0 76 -16.667 130.833 -50 164.5s-83 50.5 -149 50.5z" />
    <glyph glyph-name="afii10020" unicode="&#x413;" horiz-adv-x="888" 
d="M143 0v1536h695v-225h-449v-1311h-246z" />
    <glyph glyph-name="afii10021" unicode="&#x414;" horiz-adv-x="1259" 
d="M983 -276l0.00195312 276h-727v-276h-225v501h110c41.333 90.667 68.166 221.667 80.499 393s17.166 477.333 14.499 918h829v-1311h143v-501h-225zM422.002 426c-13.333 -85.333 -30.333 -152.333 -51 -201h448v1086h-358c-1.33301 -440 -14.333 -735 -39 -885z" />
    <glyph glyph-name="afii10022" unicode="&#x415;" horiz-adv-x="929" 
d="M143 0v1536h705v-225h-459v-410h418v-225h-418v-451h459v-225h-705z" />
    <glyph glyph-name="afii10024" unicode="&#x416;" horiz-adv-x="1486" 
d="M627 0v741l-338 -741h-289l383 797l-373 739h273l344 -741v741h245v-741l345 741h262l-373 -741l381 -795h-277l-338 741v-741h-245z" />
    <glyph glyph-name="afii10025" unicode="&#x417;" horiz-adv-x="1060" 
d="M979 428c0 -78 -11.334 -146.328 -34.001 -204.995s-54.334 -105.334 -95.001 -140.001s-87.167 -60.5 -139.5 -77.5s-110.166 -25.5 -173.499 -25.5c-62.667 0 -120.167 8.33301 -172.5 25s-99.333 42.167 -141 76.5s-74.334 80.666 -98.001 138.999
s-35.5 126.166 -35.5 203.499v111h246v-95c0 -80 18.667 -139.167 56 -177.5s85.666 -57.5 144.999 -57.5c64.667 0 113.5 18.167 146.5 54.5s49.5 96.5 49.5 180.5v17c0 75.333 -13.167 130.666 -39.5 165.999s-73.166 53 -140.499 53h-139v225h131c50 0 87 17 111 51
s36 89.333 36 166v12c0 134 -54.667 201 -164 201c-58.667 0 -103.667 -16.667 -135 -50s-47 -88.333 -47 -165v-69h-246v75c0 71.333 11.5 135.166 34.5 191.499s54.333 101.833 94 136.5s84.834 61 135.501 79s105.334 27 164.001 27c55.333 0 106.833 -7.33301 154.5 -22
s91 -37 130 -67s69.667 -71 92 -123s33.5 -112.333 33.5 -181v-16c0 -146 -49 -253.333 -147 -322c58.667 -34 104.667 -81.5 138 -142.5s50 -133.5 50 -217.5v-37z" />
    <glyph glyph-name="afii10026" unicode="&#x418;" horiz-adv-x="1208" 
d="M369 1536v-1282l331 1282h365v-1536h-225v1282l-332 -1282h-365v1536h226z" />
    <glyph glyph-name="afii10027" unicode="&#x419;" horiz-adv-x="1208" 
d="M737 1987h195c0 -95.333 -29.333 -170.5 -88 -225.5s-136.667 -82.5 -234 -82.5c-96 0 -173.167 27.5 -231.5 82.5s-87.5 130.167 -87.5 225.5h194c0 -44.667 11.833 -78.167 35.5 -100.5s53.5 -33.5 89.5 -33.5c38 0 68.667 11.167 92 33.5s35 55.833 35 100.5z
M369 1536v-1282l331 1282h365v-1536h-225v1282l-332 -1282h-365v1536h226z" />
    <glyph glyph-name="afii10028" unicode="&#x41a;" horiz-adv-x="1062" 
d="M768 0l-379 743v-743h-246v1536h246v-743l385 743h268l-403 -731l424 -805h-295z" />
    <glyph glyph-name="afii10029" unicode="&#x41b;" horiz-adv-x="1187" 
d="M190 348c12 49.333 19.833 166.168 23.5 350.501s5.5 463.5 5.5 837.5h825v-1536h-245v1311h-355c0 -482 -9.33301 -807 -28 -975c-14.667 -124.667 -46 -211.834 -94 -261.501s-125.333 -74.5 -232 -74.5h-29v225h9c36.667 0 63.5 10.5 80.5 31.5s30.167 51.5 39.5 91.5
z" />
    <glyph glyph-name="afii10030" unicode="&#x41c;" horiz-adv-x="1597" 
d="M1208 0v1333l-270 -1333h-297l-272 1343v-1343h-226v1536h418l238 -1180l229 1180h426v-1536h-246z" />
    <glyph glyph-name="afii10031" unicode="&#x41d;" horiz-adv-x="1208" 
d="M819 0v676h-430v-676h-246v1536h246v-635h430v635h246v-1536h-246z" />
    <glyph glyph-name="afii10032" unicode="&#x41e;" horiz-adv-x="1167" 
d="M584 -20c-146 0 -259.333 45 -340 135s-121 222.333 -121 397v512c0 174.667 40.333 307 121 397s194 135 340 135s259.167 -44.833 339.5 -134.5s120.5 -222.167 120.5 -397.5v-512c0 -175.333 -40.167 -307.833 -120.5 -397.5s-193.5 -134.5 -339.5 -134.5zM584 205
c70.667 0 124.167 23.5 160.5 70.5s54.5 125.833 54.5 236.5v512c0 110.667 -18 189.5 -54 236.5s-89.667 70.5 -161 70.5c-70.667 0 -124.167 -23.5 -160.5 -70.5s-54.5 -125.833 -54.5 -236.5v-512c0 -110.667 18 -189.5 54 -236.5s89.667 -70.5 161 -70.5z" />
    <glyph glyph-name="afii10033" unicode="&#x41f;" horiz-adv-x="1198" 
d="M143 0v1536h912v-1536h-246v1311h-420v-1311h-246z" />
    <glyph glyph-name="afii10034" unicode="&#x420;" horiz-adv-x="1085" 
d="M143 0l-0.000976562 1536h449c130 0 234.5 -36.667 313.5 -110s118.5 -176.666 118.5 -309.999v-102c0 -139.333 -39.667 -247.666 -119 -324.999s-183.666 -116 -312.999 -116h-203v-573h-246zM570.999 1311h-182v-512h182c138 0 207 78.333 207 235v62
c0 143.333 -69 215 -207 215z" />
    <glyph glyph-name="afii10035" unicode="&#x421;" horiz-adv-x="1167" 
d="M799 594h245v-82c0 -175.333 -40.167 -307.833 -120.5 -397.5s-193.5 -134.5 -339.5 -134.5s-259.333 45 -340 135s-121 222.333 -121 397v512c0 174.667 40.333 307 121 397s194 135 340 135s259.167 -44.833 339.5 -134.5s120.5 -222.167 120.5 -397.5v-61h-245v61
c0 110.667 -18 189.5 -54 236.5s-89.667 70.5 -161 70.5c-70.667 0 -124.167 -23.5 -160.5 -70.5s-54.5 -125.833 -54.5 -236.5v-512c0 -110.667 18 -189.5 54 -236.5s89.667 -70.5 161 -70.5c70.667 0 124.167 23.5 160.5 70.5s54.5 125.833 54.5 236.5v82z" />
    <glyph glyph-name="afii10036" unicode="&#x422;" horiz-adv-x="888" 
d="M20 1311v225h848v-225h-301v-1311h-245v1311h-302z" />
    <glyph glyph-name="afii10037" unicode="&#x423;" horiz-adv-x="1003" 
d="M686 428c-16 -60.667 -31.8369 -112.668 -47.5039 -156.001s-34.167 -84.5 -55.5 -123.5s-44.666 -70.167 -69.999 -93.5s-55.166 -41.666 -89.499 -54.999s-73.166 -20 -116.499 -20c-62 0 -114.333 7.33301 -157 22v217c36.667 -9.33301 73.334 -14 110.001 -14
c60.667 0 107 20.333 139 61l-379 1270h254l242 -926l219 926h248z" />
    <glyph glyph-name="afii10038" unicode="&#x424;" horiz-adv-x="1454" 
d="M891 115h-41v-135h-246v135h-41c-66 0 -125.333 9.16699 -178 27.5s-96.5 43.333 -131.5 75s-64 70.167 -87 115.5s-39.5 93.666 -49.5 144.999s-15 107 -15 167v256c0 166.667 40 295.334 120 386.001s194.333 136 343 136h39v133h246v-133h39
c148.667 0 263 -45.333 343 -136s120 -219.334 120 -386.001v-256c0 -60 -5 -115.667 -15 -167s-26.5 -99.666 -49.5 -144.999s-52 -83.833 -87 -115.5s-78.833 -56.667 -131.5 -75s-112 -27.5 -178 -27.5zM885 1208l-34.999 -0.000976562v-878h45
c71.333 0 124.333 24.5 159 73.5s52 124.167 52 225.5v282c0 59.333 -5.83301 109.333 -17.5 150s-28.334 71.334 -50.001 92.001s-44.667 35 -69 43s-52.5 12 -84.5 12zM559.001 329.999l45.001 0.000976562v878h-35c-32 0 -60.167 -4 -84.5 -12s-47.333 -22.333 -69 -43
s-38.334 -51.334 -50.001 -92.001s-17.5 -90.667 -17.5 -150v-282c0 -101.333 17.333 -176.5 52 -225.5s87.667 -73.5 159 -73.5z" />
    <glyph glyph-name="afii10039" unicode="&#x425;" horiz-adv-x="1003" 
d="M737 0l-235 569l-236 -569h-266l365 786l-345 750h267l215 -535l215 535h266l-344 -750l365 -786h-267z" />
    <glyph glyph-name="afii10040" unicode="&#x426;" horiz-adv-x="1249" 
d="M389 1536v-1311h420v1311h246v-1311h143v-501h-225v276h-830v1536h246z" />
    <glyph glyph-name="afii10041" unicode="&#x427;" 
d="M578 813c60.667 0 113.667 4.66699 159 14v709h246v-1536h-246v606c-55.333 -12 -119.333 -18 -192 -18c-160 0 -277.167 36.167 -351.5 108.5s-111.5 190.5 -111.5 354.5v485h246v-485c0 -88.667 20.833 -150.5 62.5 -185.5s104.167 -52.5 187.5 -52.5z" />
    <glyph glyph-name="afii10042" unicode="&#x428;" horiz-adv-x="1802" 
d="M1659 1536v-1536h-1516v1536h246v-1311h389v1311h246v-1311h389v1311h246z" />
    <glyph glyph-name="afii10043" unicode="&#x429;" horiz-adv-x="1853" 
d="M1024 1536v-1311h389v1311h246v-1311h143v-501h-225v276h-1434v1536h246v-1311h389v1311h246z" />
    <glyph glyph-name="afii10044" unicode="&#x42a;" horiz-adv-x="1228" 
d="M20 1311v225h512v-532h156c152.667 0 270.667 -41.833 354 -125.5s125 -195.5 125 -335.5v-62c0 -140 -42.167 -255.167 -126.5 -345.5s-201.833 -135.5 -352.5 -135.5h-401v1311h-267zM655 778h-123v-553h123c96.667 0 165.334 23.5 206.001 70.5s61 115.833 61 206.5
v20c0 83.333 -20.333 146.833 -61 190.5s-109.334 65.5 -206.001 65.5z" />
    <glyph glyph-name="afii10045" unicode="&#x42b;" horiz-adv-x="1566" 
d="M1024 481c0 -140 -42.167 -255.167 -126.5 -345.5s-201.833 -135.5 -352.5 -135.5h-402v1536h246v-532h156c152.667 0 270.667 -41.833 354 -125.5s125 -195.5 125 -335.5v-62zM1423 0h-245v1536h245v-1536zM512 778h-123v-553h123c96.667 0 165.167 23.5 205.5 70.5
s60.5 115.833 60.5 206.5v20c0 83.333 -20.167 146.833 -60.5 190.5s-108.833 65.5 -205.5 65.5z" />
    <glyph glyph-name="afii10046" unicode="&#x42c;" horiz-adv-x="1064" 
d="M1024 481c0 -140 -42.167 -255.167 -126.5 -345.5s-201.833 -135.5 -352.5 -135.5h-402v1536h246v-532h156c152.667 0 270.667 -41.833 354 -125.5s125 -195.5 125 -335.5v-62zM512 778h-123v-553h123c96.667 0 165.167 23.5 205.5 70.5s60.5 115.833 60.5 206.5v20
c0 83.333 -20.167 146.833 -60.5 190.5s-108.833 65.5 -205.5 65.5z" />
    <glyph glyph-name="afii10047" unicode="&#x42d;" horiz-adv-x="1167" 
d="M1044 512c0 -175.333 -40.167 -307.833 -120.5 -397.5s-193.5 -134.5 -339.5 -134.5s-259.333 45 -340 135s-121 222.333 -121 397v41h246v-41c0 -110.667 18.167 -189.5 54.5 -236.5s89.833 -70.5 160.5 -70.5c71.333 0 125 23.5 161 70.5s54 125.833 54 236.5v164h-377
v225h377v123c0 110.667 -18.167 189.5 -54.5 236.5s-89.833 70.5 -160.5 70.5c-71.333 0 -125 -23.5 -161 -70.5s-54 -125.833 -54 -236.5v-20h-246v20c0 174.667 40.333 307 121 397s194 135 340 135s259.167 -44.833 339.5 -134.5s120.5 -222.167 120.5 -397.5v-512z" />
    <glyph glyph-name="afii10048" unicode="&#x42e;" horiz-adv-x="1556" 
d="M1434 512c0 -175.333 -39.333 -307.833 -118 -397.5s-189.667 -134.5 -333 -134.5s-254.333 44.833 -333 134.5s-118 222.167 -118 397.5v164h-143v-676h-246v1536h246v-635h143v123c0 175.333 39.333 307.833 118 397.5s189.667 134.5 333 134.5
s254.333 -44.833 333 -134.5s118 -222.167 118 -397.5v-512zM983 205c67.333 0 118.333 23.5 153 70.5s52 125.833 52 236.5v512c0 110.667 -17.167 189.5 -51.5 236.5s-85.5 70.5 -153.5 70.5c-67.333 0 -118.333 -23.5 -153 -70.5s-52 -125.833 -52 -236.5v-512
c0 -110.667 17.167 -189.5 51.5 -236.5s85.5 -70.5 153.5 -70.5z" />
    <glyph glyph-name="afii10049" unicode="&#x42f;" 
d="M88 1116c0 133.333 39.499 236.667 118.499 310s183.5 110 313.5 110h463v-1536h-246v713l-413 -713h-283l395 649c-105.333 17.333 -189.666 60.333 -252.999 129s-95 161 -95 277v61zM540.999 840.001h196v471h-196c-138 0 -207 -71.667 -207 -215v-21
c0 -156.667 69 -235 207 -235z" />
    <glyph glyph-name="afii10065" unicode="&#x430;" 
d="M762 0v151.998c-62.667 -114.667 -171.334 -172 -326.001 -172c-61.333 0 -117.166 9.66699 -167.499 29s-92.333 51.833 -126 97.5s-50.5 101.5 -50.5 167.5c0 52.667 9.5 98.334 28.5 137.001s44.167 68.667 75.5 90s67 39.5 107 54.5s80.667 25.5 122 31.5
s82 12.667 122 20s75.667 14.5 107 21.5s56.5 18.5 75.5 34.5s28.5 36 28.5 60c0 38.667 -17.833 69.5 -53.5 92.5s-80.834 34.5 -135.501 34.5c-58 0 -104.167 -15 -138.5 -45s-51.5 -73 -51.5 -129h-256c0 64 12.333 120.333 37 169s58.334 87.167 101.001 115.5
s89.834 49.333 141.501 63s107.167 20.5 166.5 20.5c58.667 0 113.167 -6.16699 163.5 -18.5s96.166 -31.166 137.499 -56.499s74 -59.833 98 -103.5s36 -94.5 36 -152.5v-713h-242zM344 290.998c0 -34.667 13.168 -61.1689 39.501 -79.502s60.833 -27.5 103.5 -27.5
c76 0 140.833 21 194.5 63s80.5 100.333 80.5 175v47c-28 -12 -63 -22.5 -105 -31.5s-80 -16.667 -114 -23s-66.833 -14.166 -98.5 -23.499s-56.334 -22.166 -74.001 -38.499s-26.5 -36.833 -26.5 -61.5z" />
    <glyph glyph-name="afii10066" unicode="&#x431;" horiz-adv-x="1198" 
d="M1126 502c0 -101.333 -22.8311 -191.833 -68.498 -271.5s-108.167 -141.334 -187.5 -185.001s-168 -65.5 -266 -65.5c-97.333 0 -185.666 21.833 -264.999 65.5s-142 105 -188 184s-69 168.5 -69 268.5v381c0 80.667 6.66699 150.834 20 210.501
s32.166 109.667 56.499 150s56.666 74 96.999 101s84 48 131 63s103.167 27.167 168.5 36.5l242 35c24 3.33301 40.5 10.333 49.5 21s13.5 24 13.5 40h246c0 -49.333 -5.33301 -90 -16 -122s-29.334 -58.667 -56.001 -80s-58.5 -37.666 -95.5 -48.999
s-86.167 -21.333 -147.5 -30l-213 -30c-70 -10 -123 -25.167 -159 -45.5s-62.333 -52.333 -79 -96s-25 -105.834 -25 -186.501v-33c68.667 106.667 181.334 160 338.001 160c62 0 121.667 -12.833 179 -38.5s107.666 -61 150.999 -106s78 -100.333 104 -166
s39 -136.167 39 -211.5zM604.002 205c81.333 0 147.835 27.8311 199.502 83.498s77.5 126.834 77.5 213.501c0 86 -25.667 157 -77 213s-118 84 -200 84c-80.667 0 -146.834 -27.667 -198.501 -83s-77.5 -126.666 -77.5 -213.999c0 -88 25.667 -159.5 77 -214.5
s117.666 -82.5 198.999 -82.5z" />
    <glyph glyph-name="afii10067" unicode="&#x432;" horiz-adv-x="1142" 
d="M143 0l-0.000976562 1024h537c96 0 172.167 -22.833 228.5 -68.5s84.5 -112.167 84.5 -199.5c0 -98 -43.667 -168.333 -131 -211c52.667 -19.333 93.834 -49.5 123.501 -90.5s44.5 -91.5 44.5 -151.5c0 -100 -30 -175.5 -90 -226.5s-145.333 -76.5 -256 -76.5h-541z
M378.999 840l0.000976562 -224h229c54 0 92.5 9.5 115.5 28.5s34.5 46.5 34.5 82.5c0 39.333 -11.333 68 -34 86s-61.334 27 -116.001 27h-229zM645 432h-266v-248h266c92.667 0 139 42.333 139 127c0 80.667 -46.333 121 -139 121z" />
    <glyph glyph-name="afii10068" unicode="&#x433;" horiz-adv-x="872" 
d="M143 0v1024h688v-225h-442v-799h-246z" />
    <glyph glyph-name="afii10069" unicode="&#x434;" horiz-adv-x="1234" 
d="M958 -276v276h-692v-276h-225v501h102c16 34.667 29.167 73.667 39.5 117s20 123.333 29 240s13.5 264 13.5 442h815v-799h144v-501h-226zM428 424c-10.667 -82 -25 -148.333 -43 -199h410v574h-344c-4 -172.667 -11.667 -297.667 -23 -375z" />
    <glyph glyph-name="afii10070" unicode="&#x435;" horiz-adv-x="1159" 
d="M1087 512c0 -18.667 -1.33203 -46.001 -3.99902 -82.001h-770c13.333 -75.333 43.833 -133.333 91.5 -174s109.5 -61 185.5 -61c102.667 0 171 37.333 205 112h266c-30 -105.333 -87.167 -186.166 -171.5 -242.499s-187.5 -84.5 -309.5 -84.5
c-147.333 0 -268.833 49.667 -364.5 149s-143.5 227 -143.5 383s47.833 283.667 143.5 383s217.167 149 364.5 149s268.666 -49.667 363.999 -149s143 -227 143 -383zM580.001 828.999c-71.333 0 -130 -19.5 -176 -58.5s-75.667 -94.5 -89 -166.5h529
c-13.333 72 -42.833 127.5 -88.5 166.5s-104.167 58.5 -175.5 58.5z" />
    <glyph glyph-name="afii10072" unicode="&#x436;" horiz-adv-x="1689" 
d="M727 0v537l-399 -537h-308l441 561l-414 463h324l356 -444v444h246v-444l356 444h311l-401 -463l430 -561h-297l-399 537v-537h-246z" />
    <glyph glyph-name="afii10073" unicode="&#x437;" horiz-adv-x="1042" 
d="M580 428l-164 0.00292969v184h164c87.333 0 131 37.667 131 113c0 38 -14.667 68.333 -44 91s-74.333 34 -135 34c-134.667 0 -202 -65 -202 -195h-246c0 53.333 9.33301 103.166 28 149.499s46 87.5 82 123.5s83 64.333 141 85s123.667 31 197 31
c136 0 239 -28.667 309 -86s105 -128.333 105 -213c0 -46.667 -11.5 -90.5 -34.5 -131.5s-56.5 -72.167 -100.5 -93.5c106.667 -43.333 160 -118.333 160 -225c0 -98.667 -37.5 -175.834 -112.5 -231.501s-183.833 -83.5 -326.5 -83.5c-148 0 -261.667 34.667 -341 104
s-119 167.666 -119 294.999h245c0 -138 72.667 -207 218 -207c67.333 0 115.833 12 145.5 36s44.5 55.667 44.5 95s-12 70 -36 92s-60.333 33 -109 33z" />
    <glyph glyph-name="afii10074" unicode="&#x438;" horiz-adv-x="1239" 
d="M379 1024v-766l401 766h316v-1024h-236v764l-401 -764h-316v1024h236z" />
    <glyph glyph-name="afii10075" unicode="&#x439;" horiz-adv-x="1239" 
d="M741 1536h195c0 -95.333 -29.333 -170.333 -88 -225s-136.667 -82 -234 -82c-96 0 -173.167 27.333 -231.5 82s-87.5 129.667 -87.5 225h194c0 -44 11.833 -77.167 35.5 -99.5s53.5 -33.5 89.5 -33.5c38 0 68.667 11 92 33s35 55.333 35 100zM379 1024v-766l401 766h316
v-1024h-236v764l-401 -764h-316v1024h236z" />
    <glyph glyph-name="afii10076" unicode="&#x43a;" horiz-adv-x="1157" 
d="M829 0l-440 539v-539h-246v1024h246v-446l397 446h324l-451 -465l478 -559h-308z" />
    <glyph glyph-name="afii10077" unicode="&#x43b;" horiz-adv-x="1130" 
d="M170 311c24.667 72.667 36.999 310.333 36.999 713h780v-1024h-246v799h-309c-2 -208.667 -10.667 -361 -26 -457c-14 -89.333 -34.667 -159 -62 -209s-61 -84.667 -101 -104s-91.667 -29 -155 -29h-37v225h12c52.667 0 88.334 28.667 107.001 86z" />
    <glyph glyph-name="afii10078" unicode="&#x43c;" horiz-adv-x="1523" 
d="M1135 0v848l-246 -848h-275l-245 842v-842h-226v1024h416l207 -782l205 782h409v-1024h-245z" />
    <glyph glyph-name="afii10079" unicode="&#x43d;" horiz-adv-x="1208" 
d="M819 0v401h-430v-401h-246v1024h246v-397h430v397h246v-1024h-246z" />
    <glyph glyph-name="afii10080" unicode="&#x43e;" horiz-adv-x="1187" 
d="M594 -20c-150.667 0 -275.334 49.833 -374.001 149.5s-148 227.167 -148 382.5s49.333 282.833 148 382.5s223.334 149.5 374.001 149.5s275.334 -49.833 374.001 -149.5s148 -227.167 148 -382.5s-49.333 -282.833 -148 -382.5s-223.334 -149.5 -374.001 -149.5z
M594 205c80 0 146 28.333 198 85s78 130.667 78 222s-26 165.333 -78 222s-118 85 -198 85s-146.167 -28.5 -198.5 -85.5s-78.5 -130.833 -78.5 -221.5s26.167 -164.5 78.5 -221.5s118.5 -85.5 198.5 -85.5z" />
    <glyph glyph-name="afii10081" unicode="&#x43f;" horiz-adv-x="1177" 
d="M143 0v1024h891v-1024h-246v799h-399v-799h-246z" />
    <glyph glyph-name="afii10082" unicode="&#x440;" horiz-adv-x="1259" 
d="M696 -20c-122 0 -224.333 49.667 -307 149v-641h-246v1536h246v-129c82.667 99.333 185 149 307 149c141.333 0 258.666 -49.833 351.999 -149.5s140 -227.167 140 -382.5s-46.667 -282.833 -140 -382.5s-210.666 -149.5 -351.999 -149.5zM666 205
c80 0 146 28.333 198 85s78 130.667 78 222s-26 165.333 -78 222s-118 85 -198 85s-146.167 -28.5 -198.5 -85.5s-78.5 -130.833 -78.5 -221.5s26.167 -164.5 78.5 -221.5s118.5 -85.5 198.5 -85.5z" />
    <glyph glyph-name="afii10083" unicode="&#x441;" horiz-adv-x="1171" 
d="M840 616c-8 65.333 -35.498 115.5 -82.498 150.5s-104.167 52.5 -171.5 52.5c-78 0 -142.333 -28.333 -193 -85s-76 -130.667 -76 -222s25.333 -165.333 76 -222s115 -85 193 -85c67.333 0 125.166 19.5 173.499 58.5s77.166 94.5 86.499 166.5h254
c-6 -134 -57.167 -242.5 -153.5 -325.5s-216.5 -124.5 -360.5 -124.5c-148.667 0 -271.5 49.833 -368.5 149.5s-145.5 227.167 -145.5 382.5s48.5 282.833 145.5 382.5s219.833 149.5 368.5 149.5c138.667 0 255.5 -39.5 350.5 -118.5s148.833 -182.167 161.5 -309.5h-258z
" />
    <glyph glyph-name="afii10084" unicode="&#x442;" horiz-adv-x="921" 
d="M31 799v225h860v-225h-307v-799h-246v799h-307z" />
    <glyph glyph-name="afii10085" unicode="&#x443;" horiz-adv-x="1026" 
d="M629 -106c-23.333 -68 -47.3311 -126 -71.998 -174s-54.834 -92 -90.501 -132s-77.834 -70 -126.501 -90s-104.667 -30 -168 -30c-58 0 -110.667 7.33301 -158 22v217c48 -14.667 93.333 -22 136 -22c56.667 0 104.167 17 142.5 51s72.5 87.333 102.5 160l-385 1128h246
l256 -788l258 788h246z" />
    <glyph glyph-name="afii10086" unicode="&#x444;" horiz-adv-x="1433" 
d="M317 512c0 -90 25.833 -162.333 77.5 -217s118.167 -84.667 199.5 -90v614c-81.333 -5.33301 -147.833 -35.333 -199.5 -90s-77.5 -127 -77.5 -217zM1116 512c0 90 -25.667 162.333 -77 217s-117.666 84.667 -198.999 90v-614c81.333 5.33301 147.666 35.333 198.999 90
s77 127 77 217zM594 1536h246v-492c99.333 -3.33301 188.5 -27.166 267.5 -71.499s141.167 -106.666 186.5 -186.999s68 -171.5 68 -273.5s-22.667 -193.167 -68 -273.5s-107.5 -142.666 -186.5 -186.999s-168.167 -68.166 -267.5 -71.499v-492h-246v492
c-99.333 3.33301 -188.5 27.166 -267.5 71.499s-141.167 106.666 -186.5 186.999s-68 171.5 -68 273.5s22.667 193.167 68 273.5s107.5 142.666 186.5 186.999s168.167 68.166 267.5 71.499v492z" />
    <glyph glyph-name="afii10087" unicode="&#x445;" horiz-adv-x="1064" 
d="M778 0l-258 348l-233 -348h-287l387 528l-367 496h287l236 -317l215 317h286l-366 -502l387 -522h-287z" />
    <glyph glyph-name="afii10088" unicode="&#x446;" horiz-adv-x="1228" 
d="M389 1024v-799h399v799h246v-799h144v-501h-226v276h-809v1024h246z" />
    <glyph glyph-name="afii10089" unicode="&#x447;" 
d="M563 565c61.333 0 119.334 5.66699 174.001 17v442h246v-1024h-246v358c-52.667 -12 -117.334 -18 -194.001 -18c-160 0 -276.833 35.5 -350.5 106.5s-110.5 184.833 -110.5 341.5v236h246v-236c0 -80.667 19.167 -138 57.5 -172s97.5 -51 177.5 -51z" />
    <glyph glyph-name="afii10090" unicode="&#x448;" horiz-adv-x="1699" 
d="M1556 1024v-1024h-1413v1024h267v-799h317v799h246v-799h338v799h245z" />
    <glyph glyph-name="afii10091" unicode="&#x449;" horiz-adv-x="1751" 
d="M1475 -276v276h-1332v1024h267v-799h317v799h246v-799h338v799h245v-799h144v-501h-225z" />
    </font>
</defs>
</svg>
